SplineFontDB: 3.2
FontName: AxiomNovaItalic
FullName: AxiomNova Italic
FamilyName: AxiomNova
Weight: Medium
Copyright: Copyright (c) 2026, doran
Version: 001.000
ItalicAngle: 0
UnderlinePosition: -100
UnderlineWidth: 50
Ascent: 800
Descent: 200
InvalidEm: 0
sfntRevision: 0x00010000
LayerCount: 2
Layer: 0 1 "Back" 1
Layer: 1 1 "Fore" 0
XUID: [1021 541 -1475529344 31322]
StyleMap: 0x0000
FSType: 0
OS2Version: 4
OS2_WeightWidthSlopeOnly: 0
OS2_UseTypoMetrics: 1
CreationTime: 1778451323
ModificationTime: 1778479411
PfmFamily: 17
TTFWeight: 420
TTFWidth: 5
LineGap: 90
VLineGap: 0
Panose: 2 0 5 3 0 0 0 0 0 0
OS2TypoAscent: 720
OS2TypoAOffset: 0
OS2TypoDescent: -190
OS2TypoDOffset: 0
OS2TypoLinegap: 90
OS2WinAscent: 780
OS2WinAOffset: 0
OS2WinDescent: 230
OS2WinDOffset: 0
HheadAscent: 720
HheadAOffset: 0
HheadDescent: -190
HheadDOffset: 0
OS2SubXSize: 650
OS2SubYSize: 700
OS2SubXOff: 0
OS2SubYOff: 140
OS2SupXSize: 650
OS2SupYSize: 700
OS2SupXOff: 0
OS2SupYOff: 480
OS2StrikeYSize: 49
OS2StrikeYPos: 258
OS2CapHeight: 700
OS2XHeight: 510
OS2Vendor: 'PfEd'
OS2CodePages: 00000001.00000000
OS2UnicodeRanges: 00000001.00000000.00000000.00000000
Lookup: 258 0 0 "'kern' Horizontal Kerning in Latin lookup 0" { "'kern' Horizontal Kerning in Latin lookup 0 subtable"  } ['kern' ('latn' <'dflt' > ) ]
DEI: 91125
ShortTable: cvt  2
  33
  633
EndShort
ShortTable: maxp 16
  1
  0
  89
  588
  5
  0
  0
  2
  0
  1
  1
  0
  64
  0
  0
  0
EndShort
LangName: 1033 "" "" "" "FontForge 2.0 : AxiomNova Regenerated Regular : 10-5-2026" "" "Version 001.000"
GaspTable: 1 65535 2 0
Encoding: UnicodeBmp
UnicodeInterp: none
NameList: Adobe Glyph List
DisplaySize: -48
AntiAlias: 1
FitToEm: 0
BeginChars: 65539 150

StartChar: .notdef
Encoding: 65536 -1 0
Width: 382
GlyphClass: 1
Flags: W
LayerCount: 2
Fore
SplineSet
33 0 m 1,0,-1
 -84 666 l 1,1,-1
 181 666 l 1,2,-1
 298 0 l 1,3,-1
 33 0 l 1,0,-1
60 33 m 1,4,-1
 259 33 l 1,5,-1
 153 633 l 1,6,-1
 -46 633 l 1,7,-1
 60 33 l 1,4,-1
EndSplineSet
EndChar

StartChar: uni0000
Encoding: 0 0 3
Width: 597
GlyphClass: 2
Flags: W
LayerCount: 2
Fore
SplineSet
192 181 m 1,0,-1
 242 181 l 1,1,-1
 243 173 l 1,2,-1
 260 173 l 1,3,-1
 262 164 l 1,4,-1
 271 164 l 1,5,-1
 272 156 l 1,6,-1
 280 156 l 1,7,-1
 282 147 l 1,8,-1
 291 147 l 1,9,-1
 297 113 l 1,10,-1
 305 113 l 1,11,-1
 306 105 l 1,12,-1
 298 105 l 1,13,-1
 304 71 l 1,14,-1
 295 71 l 1,15,-1
 297 63 l 1,16,-1
 289 63 l 1,17,-1
 290 54 l 1,18,-1
 273 54 l 1,19,-1
 275 46 l 1,20,-1
 199 46 l 1,21,-1
 197 54 l 1,22,-1
 189 54 l 1,23,-1
 188 63 l 1,24,-1
 179 63 l 1,25,-1
 177 71 l 1,26,-1
 169 71 l 1,27,-1
 165 97 l 1,28,-1
 156 97 l 1,29,-1
 150 130 l 1,30,-1
 159 130 l 1,31,-1
 156 147 l 1,32,-1
 164 147 l 1,33,-1
 161 164 l 1,34,-1
 178 164 l 1,35,-1
 176 173 l 1,36,-1
 193 173 l 1,37,-1
 192 181 l 1,0,-1
67 746 m 1,38,-1
 193 746 l 1,39,-1
 195 738 l 1,40,-1
 237 738 l 1,41,-1
 238 729 l 1,42,-1
 263 729 l 1,43,-1
 265 721 l 1,44,-1
 291 721 l 1,45,-1
 292 712 l 1,46,-1
 300 712 l 1,47,-1
 302 704 l 1,48,-1
 319 704 l 1,49,-1
 320 695 l 1,50,-1
 329 695 l 1,51,-1
 331 687 l 1,52,-1
 339 687 l 1,53,-1
 340 679 l 1,54,-1
 348 679 l 1,55,-1
 351 662 l 1,56,-1
 360 662 l 1,57,-1
 363 645 l 1,58,-1
 371 645 l 1,59,-1
 376 619 l 1,60,-1
 385 619 l 1,61,-1
 400 535 l 1,62,-1
 391 535 l 1,63,-1
 395 510 l 1,64,-1
 387 510 l 1,65,-1
 390 493 l 1,66,-1
 381 493 l 1,67,-1
 382 485 l 1,68,-1
 374 485 l 1,69,-1
 376 476 l 1,70,-1
 368 476 l 1,71,-1
 371 459 l 1,72,-1
 362 459 l 1,73,-1
 363 451 l 1,74,-1
 355 451 l 1,75,-1
 357 442 l 1,76,-1
 348 442 l 1,77,-1
 349 434 l 1,78,-1
 332 434 l 1,79,-1
 334 426 l 1,80,-1
 326 426 l 1,81,-1
 327 417 l 1,82,-1
 318 417 l 1,83,-1
 320 409 l 1,84,-1
 312 409 l 1,85,-1
 313 400 l 1,86,-1
 296 400 l 1,87,-1
 298 392 l 1,88,-1
 290 392 l 1,89,-1
 291 383 l 1,90,-1
 282 383 l 1,91,-1
 284 375 l 1,92,-1
 276 375 l 1,93,-1
 277 366 l 1,94,-1
 268 366 l 1,95,-1
 270 358 l 1,96,-1
 262 358 l 1,97,-1
 263 350 l 1,98,-1
 255 350 l 1,99,-1
 257 341 l 1,100,-1
 248 341 l 1,101,-1
 251 324 l 1,102,-1
 243 324 l 1,103,-1
 246 307 l 1,104,-1
 237 307 l 1,105,-1
 246 257 l 1,106,-1
 145 257 l 1,107,-1
 140 282 l 1,108,-1
 132 282 l 1,109,-1
 122 341 l 1,110,-1
 130 341 l 1,111,-1
 127 358 l 1,112,-1
 136 358 l 1,113,-1
 133 375 l 1,114,-1
 141 375 l 1,115,-1
 139 383 l 1,116,-1
 147 383 l 1,117,-1
 146 392 l 1,118,-1
 155 392 l 1,119,-1
 153 400 l 1,120,-1
 161 400 l 1,121,-1
 160 409 l 1,122,-1
 169 409 l 1,123,-1
 167 417 l 1,124,-1
 175 417 l 1,125,-1
 174 426 l 1,126,-1
 183 426 l 1,127,-1
 181 434 l 1,128,-1
 189 434 l 1,129,-1
 188 442 l 1,130,-1
 196 442 l 1,131,-1
 194 451 l 1,132,-1
 211 451 l 1,133,-1
 210 459 l 1,134,-1
 219 459 l 1,135,-1
 217 468 l 1,136,-1
 225 468 l 1,137,-1
 224 476 l 1,138,-1
 233 476 l 1,139,-1
 231 485 l 1,140,-1
 239 485 l 1,141,-1
 238 493 l 1,142,-1
 246 493 l 1,143,-1
 245 501 l 1,144,-1
 254 501 l 1,145,-1
 252 510 l 1,146,-1
 260 510 l 1,147,-1
 259 518 l 1,148,-1
 268 518 l 1,149,-1
 265 535 l 1,150,-1
 273 535 l 1,151,-1
 262 594 l 1,152,-1
 254 594 l 1,153,-1
 251 611 l 1,154,-1
 242 611 l 1,155,-1
 241 619 l 1,156,-1
 233 619 l 1,157,-1
 231 628 l 1,158,-1
 214 628 l 1,159,-1
 213 636 l 1,160,-1
 188 636 l 1,161,-1
 186 645 l 1,162,-1
 68 645 l 1,163,-1
 70 636 l 1,164,-1
 36 636 l 1,165,-1
 37 628 l 1,166,-1
 20 628 l 1,167,-1
 22 619 l 1,168,-1
 -3 619 l 1,169,-1
 -2 611 l 1,170,-1
 -19 611 l 1,171,-1
 -17 603 l 1,172,-1
 -26 603 l 1,173,-1
 -25 594 l 1,174,-1
 -33 594 l 1,175,-1
 -54 712 l 1,176,-1
 -29 712 l 1,177,-1
 -30 721 l 1,178,-1
 -4 721 l 1,179,-1
 -6 729 l 1,180,-1
 19 729 l 1,181,-1
 18 738 l 1,182,-1
 69 738 l 1,183,-1
 67 746 l 1,38,-1
EndSplineSet
EndChar

StartChar: exclam
Encoding: 33 33 5
Width: 919
GlyphClass: 1
Flags: W
LayerCount: 2
Fore
SplineSet
467 188 m 1,0,-1
 465 196 l 1,1,-1
 365 196 l 1,2,-1
 367 188 l 1,3,-1
 359 188 l 1,4,-1
 357 196 l 1,5,-1
 348 196 l 1,6,-1
 347 205 l 1,7,-1
 356 205 l 1,8,-1
 275 663 l 1,9,-1
 266 663 l 1,10,-1
 265 671 l 1,11,-1
 274 671 l 1,12,-1
 251 778 l 1,13,-1
 374 778 l 1,14,-1
 475 188 l 1,15,-1
 467 188 l 1,0,-1
389 135 m 1,16,-1
 451 135 l 1,17,-1
 453 126 l 1,18,-1
 470 126 l 1,19,-1
 471 117 l 1,20,-1
 480 117 l 1,21,-1
 482 109 l 1,22,-1
 491 109 l 1,23,-1
 492 100 l 1,24,-1
 500 100 l 1,25,-1
 511 39 l 1,26,-1
 503 39 l 1,27,-1
 506 21 l 1,28,-1
 497 21 l 1,29,-1
 499 13 l 1,30,-1
 490 13 l 1,31,-1
 491 4 l 1,32,-1
 482 4 l 1,33,-1
 484 -5 l 1,34,-1
 406 -5 l 1,35,-1
 404 4 l 1,36,-1
 395 4 l 1,37,-1
 394 13 l 1,38,-1
 385 13 l 1,39,-1
 383 21 l 1,40,-1
 374 21 l 1,41,-1
 373 30 l 1,42,-1
 365 30 l 1,43,-1
 354 91 l 1,44,-1
 362 91 l 1,45,-1
 359 109 l 1,46,-1
 368 109 l 1,47,-1
 366 117 l 1,48,-1
 375 117 l 1,49,-1
 374 126 l 1,50,-1
 391 126 l 1,51,-1
 389 135 l 1,16,-1
EndSplineSet
EndChar

StartChar: quotedbl
Encoding: 34 34 6
Width: 586
GlyphClass: 1
Flags: W
LayerCount: 2
Fore
SplineSet
224 740 m 1,0,-1
 308 740 l 1,1,-1
 310 728 l 1,2,-1
 334 728 l 1,3,-1
 336 716 l 1,4,-1
 348 716 l 1,5,-1
 350 704 l 1,6,-1
 362 704 l 1,7,-1
 366 680 l 1,8,-1
 378 680 l 1,9,-1
 404 535 l 1,10,-1
 392 535 l 1,11,-1
 398 498 l 1,12,-1
 386 498 l 1,13,-1
 390 474 l 1,14,-1
 378 474 l 1,15,-1
 381 462 l 1,16,-1
 369 462 l 1,17,-1
 373 438 l 1,18,-1
 361 438 l 1,19,-1
 363 426 l 1,20,-1
 339 426 l 1,21,-1
 341 414 l 1,22,-1
 329 414 l 1,23,-1
 331 402 l 1,24,-1
 307 402 l 1,25,-1
 309 390 l 1,26,-1
 237 390 l 1,27,-1
 235 402 l 1,28,-1
 259 402 l 1,29,-1
 257 414 l 1,30,-1
 269 414 l 1,31,-1
 267 426 l 1,32,-1
 279 426 l 1,33,-1
 277 438 l 1,34,-1
 289 438 l 1,35,-1
 285 462 l 1,36,-1
 297 462 l 1,37,-1
 292 486 l 1,38,-1
 304 486 l 1,39,-1
 294 547 l 1,40,-1
 282 547 l 1,41,-1
 279 559 l 1,42,-1
 243 559 l 1,43,-1
 241 571 l 1,44,-1
 229 571 l 1,45,-1
 227 583 l 1,46,-1
 215 583 l 1,47,-1
 213 595 l 1,48,-1
 201 595 l 1,49,-1
 197 620 l 1,50,-1
 185 620 l 1,51,-1
 172 692 l 1,52,-1
 184 692 l 1,53,-1
 182 704 l 1,54,-1
 194 704 l 1,55,-1
 192 716 l 1,56,-1
 204 716 l 1,57,-1
 202 728 l 1,58,-1
 226 728 l 1,59,-1
 224 740 l 1,0,-1
-7 740 m 1,60,-1
 78 740 l 1,61,-1
 80 728 l 1,62,-1
 104 728 l 1,63,-1
 106 716 l 1,64,-1
 118 716 l 1,65,-1
 120 704 l 1,66,-1
 132 704 l 1,67,-1
 136 680 l 1,68,-1
 148 680 l 1,69,-1
 174 535 l 1,70,-1
 162 535 l 1,71,-1
 168 498 l 1,72,-1
 156 498 l 1,73,-1
 160 474 l 1,74,-1
 148 474 l 1,75,-1
 151 462 l 1,76,-1
 139 462 l 1,77,-1
 143 438 l 1,78,-1
 131 438 l 1,79,-1
 133 426 l 1,80,-1
 108 426 l 1,81,-1
 110 414 l 1,82,-1
 98 414 l 1,83,-1
 100 402 l 1,84,-1
 76 402 l 1,85,-1
 78 390 l 1,86,-1
 5 390 l 1,87,-1
 3 402 l 1,88,-1
 27 402 l 1,89,-1
 25 414 l 1,90,-1
 38 414 l 1,91,-1
 36 426 l 1,92,-1
 48 426 l 1,93,-1
 46 438 l 1,94,-1
 58 438 l 1,95,-1
 54 462 l 1,96,-1
 66 462 l 1,97,-1
 61 486 l 1,98,-1
 73 486 l 1,99,-1
 63 547 l 1,100,-1
 51 547 l 1,101,-1
 48 559 l 1,102,-1
 12 559 l 1,103,-1
 10 571 l 1,104,-1
 -3 571 l 1,105,-1
 -5 583 l 1,106,-1
 -17 583 l 1,107,-1
 -19 595 l 1,108,-1
 -31 595 l 1,109,-1
 -35 620 l 1,110,-1
 -47 620 l 1,111,-1
 -60 692 l 1,112,-1
 -48 692 l 1,113,-1
 -50 704 l 1,114,-1
 -38 704 l 1,115,-1
 -40 716 l 1,116,-1
 -28 716 l 1,117,-1
 -30 728 l 1,118,-1
 -5 728 l 1,119,-1
 -7 740 l 1,60,-1
EndSplineSet
EndChar

StartChar: numbersign
Encoding: 35 35 7
Width: 824
GlyphClass: 1
Flags: W
LayerCount: 2
Fore
SplineSet
538 700 m 1,0,-1
 547 700 l 1,1,-1
 548 691 l 1,2,-1
 556 691 l 1,3,-1
 558 683 l 1,4,-1
 550 683 l 1,5,-1
 554 657 l 1,6,-1
 545 657 l 1,7,-1
 551 623 l 1,8,-1
 542 623 l 1,9,-1
 548 589 l 1,10,-1
 540 589 l 1,11,-1
 546 555 l 1,12,-1
 537 555 l 1,13,-1
 543 521 l 1,14,-1
 535 521 l 1,15,-1
 540 495 l 1,16,-1
 634 495 l 1,17,-1
 647 418 l 1,18,-1
 527 418 l 1,19,-1
 532 393 l 1,20,-1
 524 393 l 1,21,-1
 530 359 l 1,22,-1
 521 359 l 1,23,-1
 527 324 l 1,24,-1
 519 324 l 1,25,-1
 525 290 l 1,26,-1
 516 290 l 1,27,-1
 519 273 l 1,28,-1
 613 273 l 1,29,-1
 626 196 l 1,30,-1
 515 196 l 1,31,-1
 517 188 l 1,32,-1
 509 188 l 1,33,-1
 515 154 l 1,34,-1
 506 154 l 1,35,-1
 513 111 l 1,36,-1
 504 111 l 1,37,-1
 509 85 l 1,38,-1
 501 85 l 1,39,-1
 507 51 l 1,40,-1
 498 51 l 1,41,-1
 505 9 l 1,42,-1
 497 9 l 1,43,-1
 499 0 l 1,44,-1
 413 0 l 1,45,-1
 407 34 l 1,46,-1
 416 34 l 1,47,-1
 408 77 l 1,48,-1
 417 77 l 1,49,-1
 411 111 l 1,50,-1
 419 111 l 1,51,-1
 413 145 l 1,52,-1
 422 145 l 1,53,-1
 416 179 l 1,54,-1
 424 179 l 1,55,-1
 421 196 l 1,56,-1
 216 196 l 1,57,-1
 222 162 l 1,58,-1
 214 162 l 1,59,-1
 220 128 l 1,60,-1
 211 128 l 1,61,-1
 217 94 l 1,62,-1
 209 94 l 1,63,-1
 215 60 l 1,64,-1
 206 60 l 1,65,-1
 212 26 l 1,66,-1
 204 26 l 1,67,-1
 209 0 l 1,68,-1
 115 0 l 1,69,-1
 112 17 l 1,70,-1
 120 17 l 1,71,-1
 114 51 l 1,72,-1
 123 51 l 1,73,-1
 117 85 l 1,74,-1
 125 85 l 1,75,-1
 119 120 l 1,76,-1
 128 120 l 1,77,-1
 122 154 l 1,78,-1
 130 154 l 1,79,-1
 124 188 l 1,80,-1
 133 188 l 1,81,-1
 131 196 l 1,82,-1
 37 196 l 1,83,-1
 24 273 l 1,84,-1
 135 273 l 1,85,-1
 130 299 l 1,86,-1
 139 299 l 1,87,-1
 133 333 l 1,88,-1
 141 333 l 1,89,-1
 135 367 l 1,90,-1
 144 367 l 1,91,-1
 138 401 l 1,92,-1
 146 401 l 1,93,-1
 143 418 l 1,94,-1
 49 418 l 1,95,-1
 37 487 l 1,96,-1
 29 487 l 1,97,-1
 28 495 l 1,98,-1
 147 495 l 1,99,-1
 145 504 l 1,100,-1
 154 504 l 1,101,-1
 148 538 l 1,102,-1
 156 538 l 1,103,-1
 150 572 l 1,104,-1
 159 572 l 1,105,-1
 153 606 l 1,106,-1
 161 606 l 1,107,-1
 155 640 l 1,108,-1
 164 640 l 1,109,-1
 158 674 l 1,110,-1
 166 674 l 1,111,-1
 163 691 l 1,112,-1
 172 691 l 1,113,-1
 171 700 l 1,114,-1
 179 700 l 1,115,-1
 180 691 l 1,116,-1
 257 691 l 1,117,-1
 259 683 l 1,118,-1
 251 683 l 1,119,-1
 257 649 l 1,120,-1
 248 649 l 1,121,-1
 254 615 l 1,122,-1
 246 615 l 1,123,-1
 252 580 l 1,124,-1
 243 580 l 1,125,-1
 249 546 l 1,126,-1
 241 546 l 1,127,-1
 247 512 l 1,128,-1
 238 512 l 1,129,-1
 241 495 l 1,130,-1
 446 495 l 1,131,-1
 444 504 l 1,132,-1
 453 504 l 1,133,-1
 447 538 l 1,134,-1
 455 538 l 1,135,-1
 449 572 l 1,136,-1
 458 572 l 1,137,-1
 452 606 l 1,138,-1
 460 606 l 1,139,-1
 454 640 l 1,140,-1
 463 640 l 1,141,-1
 457 674 l 1,142,-1
 465 674 l 1,143,-1
 461 700 l 1,144,-1
 521 700 l 1,145,-1
 522 691 l 1,146,-1
 539 691 l 1,147,-1
 538 700 l 1,0,-1
434 273 m 1,148,-1
 428 307 l 1,149,-1
 436 307 l 1,150,-1
 430 341 l 1,151,-1
 439 341 l 1,152,-1
 433 376 l 1,153,-1
 441 376 l 1,154,-1
 436 401 l 1,155,-1
 445 401 l 1,156,-1
 442 418 l 1,157,-1
 228 418 l 1,158,-1
 236 376 l 1,159,-1
 228 376 l 1,160,-1
 234 341 l 1,161,-1
 225 341 l 1,162,-1
 231 307 l 1,163,-1
 223 307 l 1,164,-1
 229 273 l 1,165,-1
 434 273 l 1,148,-1
EndSplineSet
EndChar

StartChar: dollar
Encoding: 36 36 8
Width: 743
GlyphClass: 1
Flags: W
LayerCount: 2
Fore
SplineSet
409 144 m 1,0,-1
 407 153 l 1,1,-1
 425 153 l 1,2,-1
 423 162 l 1,3,-1
 440 162 l 1,4,-1
 439 170 l 1,5,-1
 448 170 l 1,6,-1
 446 179 l 1,7,-1
 454 179 l 1,8,-1
 453 188 l 1,9,-1
 462 188 l 1,10,-1
 459 205 l 1,11,-1
 467 205 l 1,12,-1
 458 257 l 1,13,-1
 450 257 l 1,14,-1
 447 274 l 1,15,-1
 438 274 l 1,16,-1
 436 283 l 1,17,-1
 428 283 l 1,18,-1
 427 291 l 1,19,-1
 409 291 l 1,20,-1
 407 300 l 1,21,-1
 399 300 l 1,22,-1
 398 309 l 1,23,-1
 372 309 l 1,24,-1
 404 144 l 1,25,-1
 409 144 l 1,0,-1
191 620 m 1,26,-1
 170 620 l 1,27,-1
 171 611 l 1,28,-1
 145 611 l 1,29,-1
 147 602 l 1,30,-1
 138 602 l 1,31,-1
 139 594 l 1,32,-1
 131 594 l 1,33,-1
 134 576 l 1,34,-1
 125 576 l 1,35,-1
 138 507 l 1,36,-1
 147 507 l 1,37,-1
 148 499 l 1,38,-1
 156 499 l 1,39,-1
 158 490 l 1,40,-1
 175 490 l 1,41,-1
 176 481 l 1,42,-1
 202 481 l 1,43,-1
 204 473 l 1,44,-1
 217 473 l 1,45,-1
 191 620 l 1,26,-1
54 196 m 1,46,-1
 62 196 l 1,47,-1
 64 188 l 1,48,-1
 82 188 l 1,49,-1
 83 179 l 1,50,-1
 100 179 l 1,51,-1
 102 170 l 1,52,-1
 128 170 l 1,53,-1
 129 162 l 1,54,-1
 155 162 l 1,55,-1
 157 153 l 1,56,-1
 191 153 l 1,57,-1
 193 144 l 1,58,-1
 254 144 l 1,59,-1
 255 136 l 1,60,-1
 282 136 l 1,61,-1
 279 165 l 1,62,-1
 271 165 l 1,63,-1
 269 173 l 1,64,-1
 260 173 l 1,65,-1
 259 182 l 1,66,-1
 268 182 l 1,67,-1
 240 343 l 1,68,-1
 236 343 l 1,69,-1
 234 352 l 1,70,-1
 191 352 l 1,71,-1
 190 360 l 1,72,-1
 164 360 l 1,73,-1
 162 369 l 1,74,-1
 136 369 l 1,75,-1
 134 378 l 1,76,-1
 117 378 l 1,77,-1
 116 386 l 1,78,-1
 98 386 l 1,79,-1
 96 395 l 1,80,-1
 79 395 l 1,81,-1
 78 404 l 1,82,-1
 69 404 l 1,83,-1
 67 412 l 1,84,-1
 59 412 l 1,85,-1
 58 421 l 1,86,-1
 49 421 l 1,87,-1
 47 430 l 1,88,-1
 39 430 l 1,89,-1
 38 438 l 1,90,-1
 29 438 l 1,91,-1
 27 447 l 1,92,-1
 18 447 l 1,93,-1
 15 464 l 1,94,-1
 7 464 l 1,95,-1
 3 490 l 1,96,-1
 -6 490 l 1,97,-1
 -23 585 l 1,98,-1
 -14 585 l 1,99,-1
 -20 620 l 1,100,-1
 -12 620 l 1,101,-1
 -15 637 l 1,102,-1
 -6 637 l 1,103,-1
 -8 646 l 1,104,-1
 1 646 l 1,105,-1
 0 654 l 1,106,-1
 8 654 l 1,107,-1
 6 663 l 1,108,-1
 15 663 l 1,109,-1
 14 672 l 1,110,-1
 22 672 l 1,111,-1
 20 680 l 1,112,-1
 29 680 l 1,113,-1
 28 689 l 1,114,-1
 45 689 l 1,115,-1
 43 697 l 1,116,-1
 61 697 l 1,117,-1
 60 706 l 1,118,-1
 86 706 l 1,119,-1
 84 715 l 1,120,-1
 110 715 l 1,121,-1
 109 723 l 1,122,-1
 152 723 l 1,123,-1
 150 732 l 1,124,-1
 168 732 l 1,125,-1
 163 755 l 1,126,-1
 286 755 l 1,127,-1
 290 732 l 1,128,-1
 349 732 l 1,129,-1
 351 723 l 1,130,-1
 402 723 l 1,131,-1
 403 715 l 1,132,-1
 438 715 l 1,133,-1
 440 706 l 1,134,-1
 466 706 l 1,135,-1
 487 585 l 1,136,-1
 478 585 l 1,137,-1
 476 594 l 1,138,-1
 450 594 l 1,139,-1
 449 602 l 1,140,-1
 415 602 l 1,141,-1
 413 611 l 1,142,-1
 378 611 l 1,143,-1
 377 620 l 1,144,-1
 317 620 l 1,145,-1
 315 628 l 1,146,-1
 310 628 l 1,147,-1
 347 438 l 1,148,-1
 375 438 l 1,149,-1
 376 430 l 1,150,-1
 402 430 l 1,151,-1
 404 421 l 1,152,-1
 429 421 l 1,153,-1
 430 412 l 1,154,-1
 456 412 l 1,155,-1
 458 404 l 1,156,-1
 476 404 l 1,157,-1
 477 395 l 1,158,-1
 494 395 l 1,159,-1
 496 386 l 1,160,-1
 505 386 l 1,161,-1
 506 378 l 1,162,-1
 523 378 l 1,163,-1
 525 369 l 1,164,-1
 534 369 l 1,165,-1
 536 360 l 1,166,-1
 544 360 l 1,167,-1
 545 352 l 1,168,-1
 554 352 l 1,169,-1
 557 334 l 1,170,-1
 565 334 l 1,171,-1
 568 317 l 1,172,-1
 577 317 l 1,173,-1
 580 300 l 1,174,-1
 589 300 l 1,175,-1
 610 179 l 1,176,-1
 601 179 l 1,177,-1
 604 162 l 1,178,-1
 595 162 l 1,179,-1
 599 144 l 1,180,-1
 591 144 l 1,181,-1
 594 127 l 1,182,-1
 585 127 l 1,183,-1
 586 118 l 1,184,-1
 578 118 l 1,185,-1
 580 110 l 1,186,-1
 571 110 l 1,187,-1
 572 101 l 1,188,-1
 563 101 l 1,189,-1
 565 92 l 1,190,-1
 557 92 l 1,191,-1
 558 84 l 1,192,-1
 540 84 l 1,193,-1
 542 75 l 1,194,-1
 534 75 l 1,195,-1
 535 67 l 1,196,-1
 517 67 l 1,197,-1
 519 58 l 1,198,-1
 493 58 l 1,199,-1
 494 49 l 1,200,-1
 460 49 l 1,201,-1
 462 41 l 1,202,-1
 423 41 l 1,203,-1
 431 0 l 1,204,-1
 296 0 l 1,205,-1
 292 32 l 1,206,-1
 247 32 l 1,207,-1
 246 41 l 1,208,-1
 185 41 l 1,209,-1
 183 49 l 1,210,-1
 149 49 l 1,211,-1
 148 58 l 1,212,-1
 113 58 l 1,213,-1
 111 67 l 1,214,-1
 77 67 l 1,215,-1
 76 75 l 1,216,-1
 67 75 l 1,217,-1
 56 136 l 1,218,-1
 65 136 l 1,219,-1
 54 196 l 1,46,-1
EndSplineSet
EndChar

StartChar: percent
Encoding: 37 37 9
Width: 655
GlyphClass: 1
Flags: W
LayerCount: 2
Fore
SplineSet
75 711 m 1,0,-1
 132 711 l 1,1,-1
 132 708 l 1,2,-1
 142 706 l 1,3,-1
 151 713 l 1,4,-1
 151 706 l 1,5,-1
 151 703 l 1,6,-1
 159 703 l 1,7,-1
 160 700 l 1,8,-1
 165 700 l 1,9,-1
 165 698 l 1,10,-1
 170 698 l 1,11,-1
 170 695 l 1,12,-1
 173 695 l 1,13,-1
 174 693 l 1,14,-1
 179 693 l 1,15,-1
 179 690 l 1,16,-1
 182 690 l 1,17,-1
 183 688 l 1,18,-1
 185 688 l 1,19,-1
 185 685 l 1,20,-1
 188 685 l 1,21,-1
 189 682 l 1,22,-1
 191 682 l 1,23,-1
 191 680 l 1,24,-1
 194 680 l 1,25,-1
 195 677 l 1,26,-1
 197 677 l 1,27,-1
 197 675 l 1,28,-1
 200 675 l 1,29,-1
 201 672 l 1,30,-1
 204 672 l 1,31,-1
 204 667 l 1,32,-1
 206 667 l 1,33,-1
 207 664 l 1,34,-1
 210 664 l 1,35,-1
 211 659 l 1,36,-1
 213 659 l 1,37,-1
 214 651 l 1,38,-1
 217 651 l 1,39,-1
 218 646 l 1,40,-1
 221 646 l 1,41,-1
 223 636 l 1,42,-1
 225 636 l 1,43,-1
 227 623 l 1,44,-1
 230 624 l 1,45,-1
 236 591 l 1,46,-1
 233 589 l 1,47,-1
 236 574 l 1,48,-1
 234 574 l 1,49,-1
 235 566 l 1,50,-1
 232 566 l 1,51,-1
 234 558 l 1,52,-1
 231 558 l 1,53,-1
 231 553 l 1,54,-1
 229 553 l 1,55,-1
 230 548 l 1,56,-1
 227 548 l 1,57,-1
 228 545 l 1,58,-1
 226 545 l 1,59,-1
 227 540 l 1,60,-1
 224 540 l 1,61,-1
 224 537 l 1,62,-1
 221 537 l 1,63,-1
 222 535 l 1,64,-1
 220 535 l 1,65,-1
 220 532 l 1,66,-1
 217 532 l 1,67,-1
 218 530 l 1,68,-1
 216 530 l 1,69,-1
 216 527 l 1,70,-1
 213 527 l 1,71,-1
 214 524 l 1,72,-1
 212 524 l 1,73,-1
 212 522 l 1,74,-1
 209 522 l 1,75,-1
 209 519 l 1,76,-1
 204 519 l 1,77,-1
 205 517 l 1,78,-1
 200 517 l 1,79,-1
 200 514 l 1,80,-1
 194 514 l 1,81,-1
 195 512 l 1,82,-1
 190 512 l 1,83,-1
 190 509 l 1,84,-1
 182 509 l 1,85,-1
 183 506 l 1,86,-1
 173 506 l 1,87,-1
 173 504 l 1,88,-1
 155 504 l 1,89,-1
 156 501 l 1,90,-1
 114 501 l 1,91,-1
 113 504 l 1,92,-1
 101 504 l 1,93,-1
 101 506 l 1,94,-1
 90 506 l 1,95,-1
 89 509 l 1,96,-1
 81 509 l 1,97,-1
 81 512 l 1,98,-1
 76 512 l 1,99,-1
 75 514 l 1,100,-1
 70 514 l 1,101,-1
 70 517 l 1,102,-1
 65 517 l 1,103,-1
 64 519 l 1,104,-1
 61 519 l 1,105,-1
 61 522 l 1,106,-1
 56 522 l 1,107,-1
 56 524 l 1,108,-1
 53 524 l 1,109,-1
 52 527 l 1,110,-1
 50 527 l 1,111,-1
 50 530 l 1,112,-1
 47 530 l 1,113,-1
 46 532 l 1,114,-1
 44 532 l 1,115,-1
 44 535 l 1,116,-1
 41 535 l 1,117,-1
 40 537 l 1,118,-1
 37 537 l 1,119,-1
 34 546 l 1,120,-1
 32 546 l 1,121,-1
 33 548 l 1,122,-1
 30 548 l 1,123,-1
 30 550 l 1,124,-1
 28 550 l 1,125,-1
 27 555 l 1,126,-1
 24 555 l 1,127,-1
 23 563 l 1,128,-1
 20 563 l 1,129,-1
 18 571 l 1,130,-1
 16 571 l 1,131,-1
 14 584 l 1,132,-1
 11 584 l 1,133,-1
 3 631 l 1,134,-1
 6 631 l 1,135,-1
 4 641 l 1,136,-1
 6 641 l 1,137,-1
 5 649 l 1,138,-1
 8 649 l 1,139,-1
 6 657 l 1,140,-1
 9 657 l 1,141,-1
 8 662 l 1,142,-1
 10 662 l 1,143,-1
 9 667 l 1,144,-1
 12 667 l 1,145,-1
 12 670 l 1,146,-1
 14 670 l 1,147,-1
 13 675 l 1,148,-1
 16 675 l 1,149,-1
 16 677 l 1,150,-1
 19 677 l 1,151,-1
 18 680 l 1,152,-1
 20 680 l 1,153,-1
 20 682 l 1,154,-1
 23 682 l 1,155,-1
 22 685 l 1,156,-1
 24 685 l 1,157,-1
 24 688 l 1,158,-1
 27 688 l 1,159,-1
 26 690 l 1,160,-1
 29 690 l 1,161,-1
 29 693 l 1,162,-1
 34 693 l 1,163,-1
 33 695 l 1,164,-1
 38 695 l 1,165,-1
 38 698 l 1,166,-1
 40 698 l 1,167,-1
 40 700 l 1,168,-1
 48 700 l 1,169,-1
 47 703 l 1,170,-1
 55 703 l 1,171,-1
 55 706 l 1,172,-1
 63 706 l 1,173,-1
 62 708 l 1,174,-1
 75 708 l 1,175,-1
 75 711 l 1,0,-1
153 532 m 1,176,-1
 153 535 l 1,177,-1
 163 535 l 1,178,-1
 162 537 l 1,179,-1
 170 537 l 1,180,-1
 170 540 l 1,181,-1
 172 540 l 1,182,-1
 171 542 l 1,183,-1
 176 542 l 1,184,-1
 176 545 l 1,185,-1
 179 545 l 1,186,-1
 178 548 l 1,187,-1
 183 548 l 1,188,-1
 183 550 l 1,189,-1
 186 550 l 1,190,-1
 185 555 l 1,191,-1
 187 555 l 1,192,-1
 187 558 l 1,193,-1
 190 558 l 1,194,-1
 189 563 l 1,195,-1
 192 563 l 1,196,-1
 191 568 l 1,197,-1
 193 568 l 1,198,-1
 192 574 l 1,199,-1
 195 574 l 1,200,-1
 193 586 l 1,201,-1
 195 586 l 1,202,-1
 188 623 l 1,203,-1
 186 623 l 1,204,-1
 184 633 l 1,205,-1
 181 633 l 1,206,-1
 180 641 l 1,207,-1
 178 641 l 1,208,-1
 177 649 l 1,209,-1
 174 649 l 1,210,-1
 173 651 l 1,211,-1
 170 651 l 1,212,-1
 169 657 l 1,213,-1
 167 657 l 1,214,-1
 167 659 l 1,215,-1
 164 659 l 1,216,-1
 163 662 l 1,217,-1
 160 662 l 1,218,-1
 160 664 l 1,219,-1
 158 664 l 1,220,-1
 157 667 l 1,221,-1
 154 667 l 1,222,-1
 154 670 l 1,223,-1
 152 670 l 1,224,-1
 152 672 l 1,225,-1
 147 672 l 1,226,-1
 146 675 l 1,227,-1
 138 675 l 1,228,-1
 138 677 l 1,229,-1
 128 677 l 1,230,-1
 127 680 l 1,231,-1
 88 680 l 1,232,-1
 89 677 l 1,233,-1
 76 677 l 1,234,-1
 76 675 l 1,235,-1
 71 675 l 1,236,-1
 72 672 l 1,237,-1
 66 672 l 1,238,-1
 66 670 l 1,239,-1
 61 670 l 1,240,-1
 61 667 l 1,241,-1
 58 667 l 1,242,-1
 59 664 l 1,243,-1
 57 664 l 1,244,-1
 57 662 l 1,245,-1
 54 662 l 1,246,-1
 55 659 l 1,247,-1
 53 659 l 1,248,-1
 54 654 l 1,249,-1
 51 654 l 1,250,-1
 52 649 l 1,251,-1
 49 649 l 1,252,-1
 49 644 l 1,253,-1
 47 644 l 1,254,-1
 49 636 l 1,255,-1
 46 636 l 1,256,-1
 48 626 l 1,257,-1
 46 626 l 1,258,-1
 53 586 l 1,259,-1
 55 586 l 1,260,-1
 57 574 l 1,261,-1
 60 574 l 1,262,-1
 61 568 l 1,263,-1
 63 568 l 1,264,-1
 64 561 l 1,265,-1
 67 561 l 1,266,-1
 68 558 l 1,267,-1
 71 558 l 1,268,-1
 71 553 l 1,269,-1
 73 553 l 1,270,-1
 74 550 l 1,271,-1
 77 550 l 1,272,-1
 77 548 l 1,273,-1
 79 548 l 1,274,-1
 80 545 l 1,275,-1
 83 545 l 1,276,-1
 83 544 l 1,277,-1
 86 544 l 1,278,-1
 89 540 l 1,279,-1
 95 540 l 1,280,-1
 95 537 l 1,281,-1
 100 537 l 1,282,-1
 101 535 l 1,283,-1
 111 535 l 1,284,-1
 111 532 l 1,285,-1
 153 532 l 1,176,-1
368 228 m 1,286,-1
 425 228 l 1,287,-1
 425 225 l 1,288,-1
 435 225 l 1,289,-1
 436 223 l 1,290,-1
 444 223 l 1,291,-1
 444 220 l 1,292,-1
 452 220 l 1,293,-1
 453 218 l 1,294,-1
 458 218 l 1,295,-1
 458 215 l 1,296,-1
 463 215 l 1,297,-1
 464 212 l 1,298,-1
 467 212 l 1,299,-1
 467 210 l 1,300,-1
 472 210 l 1,301,-1
 472 207 l 1,302,-1
 476 207 l 1,303,-1
 476 205 l 1,304,-1
 478 205 l 1,305,-1
 478 202 l 1,306,-1
 481 202 l 1,307,-1
 482 200 l 1,308,-1
 484 200 l 1,309,-1
 484 197 l 1,310,-1
 487 197 l 1,311,-1
 488 194 l 1,312,-1
 490 194 l 1,313,-1
 490 192 l 1,314,-1
 493 192 l 1,315,-1
 494 189 l 1,316,-1
 497 189 l 1,317,-1
 498 184 l 1,318,-1
 500 184 l 1,319,-1
 500 181 l 1,320,-1
 503 181 l 1,321,-1
 504 176 l 1,322,-1
 506 176 l 1,323,-1
 507 168 l 1,324,-1
 510 168 l 1,325,-1
 511 163 l 1,326,-1
 514 163 l 1,327,-1
 516 153 l 1,328,-1
 518 153 l 1,329,-1
 520 140 l 1,330,-1
 523 140 l 1,331,-1
 529 106 l 1,332,-1
 526 106 l 1,333,-1
 529 91 l 1,334,-1
 527 91 l 1,335,-1
 528 83 l 1,336,-1
 525 83 l 1,337,-1
 527 75 l 1,338,-1
 524 75 l 1,339,-1
 525 70 l 1,340,-1
 523 70 l 1,341,-1
 524 65 l 1,342,-1
 521 65 l 1,343,-1
 521 62 l 1,344,-1
 519 62 l 1,345,-1
 520 57 l 1,346,-1
 517 57 l 1,347,-1
 517 54 l 1,348,-1
 514 54 l 1,349,-1
 515 52 l 1,350,-1
 513 52 l 1,351,-1
 513 49 l 1,352,-1
 510 49 l 1,353,-1
 511 46 l 1,354,-1
 509 46 l 1,355,-1
 509 44 l 1,356,-1
 506 44 l 1,357,-1
 507 41 l 1,358,-1
 505 41 l 1,359,-1
 505 39 l 1,360,-1
 502 39 l 1,361,-1
 503 36 l 1,362,-1
 498 36 l 1,363,-1
 498 34 l 1,364,-1
 493 34 l 1,365,-1
 494 31 l 1,366,-1
 488 31 l 1,367,-1
 488 28 l 1,368,-1
 483 28 l 1,369,-1
 483 26 l 1,370,-1
 475 26 l 1,371,-1
 476 23 l 1,372,-1
 466 23 l 1,373,-1
 466 21 l 1,374,-1
 448 21 l 1,375,-1
 449 18 l 1,376,-1
 407 18 l 1,377,-1
 406 21 l 1,378,-1
 394 21 l 1,379,-1
 394 23 l 1,380,-1
 383 23 l 1,381,-1
 382 26 l 1,382,-1
 374 26 l 1,383,-1
 374 28 l 1,384,-1
 369 28 l 1,385,-1
 369 31 l 1,386,-1
 364 31 l 1,387,-1
 363 34 l 1,388,-1
 358 34 l 1,389,-1
 358 36 l 1,390,-1
 355 36 l 1,391,-1
 354 39 l 1,392,-1
 349 39 l 1,393,-1
 349 41 l 1,394,-1
 346 41 l 1,395,-1
 345 44 l 1,396,-1
 343 44 l 1,397,-1
 343 46 l 1,398,-1
 340 46 l 1,399,-1
 339 49 l 1,400,-1
 337 49 l 1,401,-1
 337 52 l 1,402,-1
 334 52 l 1,403,-1
 333 54 l 1,404,-1
 330 54 l 1,405,-1
 330 59 l 1,406,-1
 328 59 l 1,407,-1
 327 65 l 1,408,-1
 324 65 l 1,409,-1
 323 67 l 1,410,-1
 321 67 l 1,411,-1
 320 72 l 1,412,-1
 317 72 l 1,413,-1
 316 80 l 1,414,-1
 313 80 l 1,415,-1
 311 88 l 1,416,-1
 309 88 l 1,417,-1
 307 101 l 1,418,-1
 304 101 l 1,419,-1
 296 148 l 1,420,-1
 299 148 l 1,421,-1
 297 158 l 1,422,-1
 299 158 l 1,423,-1
 298 166 l 1,424,-1
 301 166 l 1,425,-1
 299 174 l 1,426,-1
 302 174 l 1,427,-1
 301 179 l 1,428,-1
 303 179 l 1,429,-1
 303 184 l 1,430,-1
 306 184 l 1,431,-1
 305 187 l 1,432,-1
 307 187 l 1,433,-1
 306 192 l 1,434,-1
 309 192 l 1,435,-1
 309 194 l 1,436,-1
 312 194 l 1,437,-1
 311 197 l 1,438,-1
 313 197 l 1,439,-1
 313 200 l 1,440,-1
 316 200 l 1,441,-1
 315 202 l 1,442,-1
 317 202 l 1,443,-1
 317 205 l 1,444,-1
 320 205 l 1,445,-1
 320 207 l 1,446,-1
 322 207 l 1,447,-1
 321 210 l 1,448,-1
 327 210 l 1,449,-1
 327 212 l 1,450,-1
 332 212 l 1,451,-1
 331 215 l 1,452,-1
 333 215 l 1,453,-1
 333 218 l 1,454,-1
 341 218 l 1,455,-1
 340 220 l 1,456,-1
 348 220 l 1,457,-1
 348 223 l 1,458,-1
 356 223 l 1,459,-1
 355 225 l 1,460,-1
 368 225 l 1,461,-1
 368 228 l 1,286,-1
445 49 m 1,462,-1
 445 52 l 1,463,-1
 456 52 l 1,464,-1
 455 54 l 1,465,-1
 462 54 l 1,466,-1
 462 57 l 1,467,-1
 465 57 l 1,468,-1
 465 59 l 1,469,-1
 470 59 l 1,470,-1
 469 62 l 1,471,-1
 472 62 l 1,472,-1
 472 65 l 1,473,-1
 477 65 l 1,474,-1
 476 67 l 1,475,-1
 479 67 l 1,476,-1
 478 72 l 1,477,-1
 480 72 l 1,478,-1
 480 75 l 1,479,-1
 483 75 l 1,480,-1
 482 80 l 1,481,-1
 485 80 l 1,482,-1
 484 86 l 1,483,-1
 486 86 l 1,484,-1
 485 91 l 1,485,-1
 488 91 l 1,486,-1
 486 104 l 1,487,-1
 488 104 l 1,488,-1
 481 140 l 1,489,-1
 479 140 l 1,490,-1
 478 150 l 1,491,-1
 475 150 l 1,492,-1
 473 158 l 1,493,-1
 471 158 l 1,494,-1
 470 166 l 1,495,-1
 467 166 l 1,496,-1
 466 168 l 1,497,-1
 463 168 l 1,498,-1
 462 174 l 1,499,-1
 460 174 l 1,500,-1
 460 176 l 1,501,-1
 457 176 l 1,502,-1
 456 179 l 1,503,-1
 453 179 l 1,504,-1
 453 181 l 1,505,-1
 451 181 l 1,506,-1
 451 184 l 1,507,-1
 448 184 l 1,508,-1
 447 187 l 1,509,-1
 445 187 l 1,510,-1
 445 189 l 1,511,-1
 439 189 l 1,512,-1
 438 192 l 1,513,-1
 431 192 l 1,514,-1
 431 194 l 1,515,-1
 420 194 l 1,516,-1
 419 197 l 1,517,-1
 381 197 l 1,518,-1
 382 194 l 1,519,-1
 369 194 l 1,520,-1
 369 192 l 1,521,-1
 364 192 l 1,522,-1
 365 189 l 1,523,-1
 359 189 l 1,524,-1
 359 187 l 1,525,-1
 354 187 l 1,526,-1
 355 184 l 1,527,-1
 352 184 l 1,528,-1
 352 181 l 1,529,-1
 350 181 l 1,530,-1
 350 179 l 1,531,-1
 347 179 l 1,532,-1
 348 176 l 1,533,-1
 345 176 l 1,534,-1
 346 171 l 1,535,-1
 344 171 l 1,536,-1
 345 166 l 1,537,-1
 342 166 l 1,538,-1
 343 160 l 1,539,-1
 341 160 l 1,540,-1
 342 153 l 1,541,-1
 339 153 l 1,542,-1
 341 142 l 1,543,-1
 339 142 l 1,544,-1
 346 104 l 1,545,-1
 348 104 l 1,546,-1
 350 91 l 1,547,-1
 353 91 l 1,548,-1
 354 86 l 1,549,-1
 356 86 l 1,550,-1
 357 78 l 1,551,-1
 360 78 l 1,552,-1
 361 75 l 1,553,-1
 363 75 l 1,554,-1
 364 70 l 1,555,-1
 367 70 l 1,556,-1
 367 67 l 1,557,-1
 370 67 l 1,558,-1
 371 65 l 1,559,-1
 373 65 l 1,560,-1
 373 62 l 1,561,-1
 376 62 l 1,562,-1
 377 59 l 1,563,-1
 382 59 l 1,564,-1
 382 57 l 1,565,-1
 388 57 l 1,566,-1
 388 54 l 1,567,-1
 393 54 l 1,568,-1
 394 52 l 1,569,-1
 404 52 l 1,570,-1
 404 49 l 1,571,-1
 445 49 l 1,462,-1
218 7 m 1,572,-1
 216 15 l 1,573,-1
 116 15 l 1,574,-1
 118 7 l 1,575,-1
 110 7 l 1,576,-1
 108 15 l 1,577,-1
 99 15 l 1,578,-1
 98 24 l 1,579,-1
 107 24 l 1,580,-1
 238 476 l 1,581,-1
 233 482 l 1,582,-1
 236 494 l 1,583,-1
 237 484 l 1,584,-1
 309 699 l 1,585,-1
 432 699 l 1,586,-1
 226 7 l 1,587,-1
 218 7 l 1,572,-1
EndSplineSet
EndChar

StartChar: ampersand
Encoding: 38 38 10
Width: 842
GlyphClass: 1
Flags: W
LayerCount: 2
Fore
SplineSet
526 358 m 1,0,-1
 634 358 l 1,1,-1
 638 333 l 1,2,-1
 630 333 l 1,3,-1
 638 292 l 1,4,-1
 629 292 l 1,5,-1
 633 267 l 1,6,-1
 625 267 l 1,7,-1
 629 242 l 1,8,-1
 621 242 l 1,9,-1
 626 217 l 1,10,-1
 617 217 l 1,11,-1
 620 200 l 1,12,-1
 612 200 l 1,13,-1
 615 183 l 1,14,-1
 607 183 l 1,15,-1
 610 167 l 1,16,-1
 601 167 l 1,17,-1
 604 150 l 1,18,-1
 596 150 l 1,19,-1
 599 133 l 1,20,-1
 607 133 l 1,21,-1
 608 125 l 1,22,-1
 617 125 l 1,23,-1
 618 117 l 1,24,-1
 626 117 l 1,25,-1
 628 108 l 1,26,-1
 636 108 l 1,27,-1
 637 100 l 1,28,-1
 646 100 l 1,29,-1
 648 92 l 1,30,-1
 656 92 l 1,31,-1
 657 83 l 1,32,-1
 665 83 l 1,33,-1
 668 67 l 1,34,-1
 677 67 l 1,35,-1
 679 58 l 1,36,-1
 687 58 l 1,37,-1
 688 50 l 1,38,-1
 696 50 l 1,39,-1
 698 42 l 1,40,-1
 707 42 l 1,41,-1
 708 33 l 1,42,-1
 724 33 l 1,43,-1
 726 25 l 1,44,-1
 735 25 l 1,45,-1
 736 17 l 1,46,-1
 686 17 l 1,47,-1
 688 8 l 1,48,-1
 588 8 l 1,49,-1
 586 17 l 1,50,-1
 577 17 l 1,51,-1
 576 25 l 1,52,-1
 568 25 l 1,53,-1
 566 33 l 1,54,-1
 558 33 l 1,55,-1
 555 50 l 1,56,-1
 546 50 l 1,57,-1
 545 58 l 1,58,-1
 520 58 l 1,59,-1
 521 50 l 1,60,-1
 513 50 l 1,61,-1
 515 42 l 1,62,-1
 498 42 l 1,63,-1
 499 33 l 1,64,-1
 483 33 l 1,65,-1
 485 25 l 1,66,-1
 460 25 l 1,67,-1
 461 17 l 1,68,-1
 436 17 l 1,69,-1
 438 8 l 1,70,-1
 404 8 l 1,71,-1
 405 0 l 1,72,-1
 247 0 l 1,73,-1
 246 8 l 1,74,-1
 213 8 l 1,75,-1
 211 17 l 1,76,-1
 186 17 l 1,77,-1
 185 25 l 1,78,-1
 168 25 l 1,79,-1
 166 33 l 1,80,-1
 149 33 l 1,81,-1
 148 42 l 1,82,-1
 140 42 l 1,83,-1
 138 50 l 1,84,-1
 130 50 l 1,85,-1
 129 58 l 1,86,-1
 120 58 l 1,87,-1
 118 67 l 1,88,-1
 110 67 l 1,89,-1
 109 75 l 1,90,-1
 101 75 l 1,91,-1
 99 83 l 1,92,-1
 90 83 l 1,93,-1
 89 92 l 1,94,-1
 81 92 l 1,95,-1
 78 108 l 1,96,-1
 70 108 l 1,97,-1
 67 125 l 1,98,-1
 58 125 l 1,99,-1
 52 158 l 1,100,-1
 44 158 l 1,101,-1
 29 242 l 1,102,-1
 37 242 l 1,103,-1
 33 267 l 1,104,-1
 42 267 l 1,105,-1
 39 283 l 1,106,-1
 47 283 l 1,107,-1
 44 300 l 1,108,-1
 52 300 l 1,109,-1
 49 317 l 1,110,-1
 58 317 l 1,111,-1
 57 325 l 1,112,-1
 65 325 l 1,113,-1
 63 333 l 1,114,-1
 71 333 l 1,115,-1
 70 342 l 1,116,-1
 79 342 l 1,117,-1
 77 350 l 1,118,-1
 85 350 l 1,119,-1
 84 358 l 1,120,-1
 92 358 l 1,121,-1
 90 367 l 1,122,-1
 107 367 l 1,123,-1
 106 375 l 1,124,-1
 114 375 l 1,125,-1
 112 383 l 1,126,-1
 129 383 l 1,127,-1
 128 392 l 1,128,-1
 153 392 l 1,129,-1
 151 400 l 1,130,-1
 176 400 l 1,131,-1
 173 417 l 1,132,-1
 165 417 l 1,133,-1
 164 425 l 1,134,-1
 155 425 l 1,135,-1
 154 433 l 1,136,-1
 146 433 l 1,137,-1
 143 450 l 1,138,-1
 135 450 l 1,139,-1
 133 458 l 1,140,-1
 124 458 l 1,141,-1
 121 475 l 1,142,-1
 113 475 l 1,143,-1
 109 500 l 1,144,-1
 101 500 l 1,145,-1
 86 583 l 1,146,-1
 94 583 l 1,147,-1
 90 608 l 1,148,-1
 98 608 l 1,149,-1
 95 625 l 1,150,-1
 104 625 l 1,151,-1
 102 633 l 1,152,-1
 110 633 l 1,153,-1
 109 642 l 1,154,-1
 117 642 l 1,155,-1
 115 650 l 1,156,-1
 124 650 l 1,157,-1
 123 658 l 1,158,-1
 131 658 l 1,159,-1
 129 667 l 1,160,-1
 146 667 l 1,161,-1
 145 675 l 1,162,-1
 170 675 l 1,163,-1
 169 683 l 1,164,-1
 194 683 l 1,165,-1
 192 692 l 1,166,-1
 250 692 l 1,167,-1
 249 700 l 1,168,-1
 291 700 l 1,169,-1
 292 692 l 1,170,-1
 375 692 l 1,171,-1
 377 683 l 1,172,-1
 410 683 l 1,173,-1
 411 675 l 1,174,-1
 436 675 l 1,175,-1
 452 583 l 1,176,-1
 427 583 l 1,177,-1
 426 592 l 1,178,-1
 401 592 l 1,179,-1
 399 600 l 1,180,-1
 358 600 l 1,181,-1
 357 608 l 1,182,-1
 257 608 l 1,183,-1
 258 600 l 1,184,-1
 233 600 l 1,185,-1
 235 592 l 1,186,-1
 226 592 l 1,187,-1
 227 583 l 1,188,-1
 219 583 l 1,189,-1
 221 575 l 1,190,-1
 213 575 l 1,191,-1
 214 567 l 1,192,-1
 205 567 l 1,193,-1
 215 508 l 1,194,-1
 224 508 l 1,195,-1
 227 492 l 1,196,-1
 235 492 l 1,197,-1
 238 475 l 1,198,-1
 246 475 l 1,199,-1
 249 458 l 1,200,-1
 258 458 l 1,201,-1
 260 450 l 1,202,-1
 268 450 l 1,203,-1
 269 442 l 1,204,-1
 277 442 l 1,205,-1
 279 433 l 1,206,-1
 288 433 l 1,207,-1
 290 417 l 1,208,-1
 298 417 l 1,209,-1
 300 408 l 1,210,-1
 308 408 l 1,211,-1
 309 400 l 1,212,-1
 318 400 l 1,213,-1
 320 392 l 1,214,-1
 328 392 l 1,215,-1
 329 383 l 1,216,-1
 337 383 l 1,217,-1
 339 375 l 1,218,-1
 348 375 l 1,219,-1
 349 367 l 1,220,-1
 357 367 l 1,221,-1
 359 358 l 1,222,-1
 367 358 l 1,223,-1
 368 350 l 1,224,-1
 377 350 l 1,225,-1
 379 342 l 1,226,-1
 387 342 l 1,227,-1
 388 333 l 1,228,-1
 396 333 l 1,229,-1
 398 325 l 1,230,-1
 407 325 l 1,231,-1
 408 317 l 1,232,-1
 416 317 l 1,233,-1
 418 308 l 1,234,-1
 426 308 l 1,235,-1
 427 300 l 1,236,-1
 436 300 l 1,237,-1
 438 292 l 1,238,-1
 446 292 l 1,239,-1
 447 283 l 1,240,-1
 455 283 l 1,241,-1
 457 275 l 1,242,-1
 466 275 l 1,243,-1
 467 267 l 1,244,-1
 475 267 l 1,245,-1
 478 250 l 1,246,-1
 486 250 l 1,247,-1
 487 242 l 1,248,-1
 496 242 l 1,249,-1
 498 233 l 1,250,-1
 506 233 l 1,251,-1
 507 225 l 1,252,-1
 515 225 l 1,253,-1
 517 217 l 1,254,-1
 526 217 l 1,255,-1
 521 242 l 1,256,-1
 529 242 l 1,257,-1
 527 258 l 1,258,-1
 535 258 l 1,259,-1
 527 300 l 1,260,-1
 536 300 l 1,261,-1
 526 358 l 1,0,-1
382 83 m 1,262,-1
 381 92 l 1,263,-1
 406 92 l 1,264,-1
 404 100 l 1,265,-1
 429 100 l 1,266,-1
 428 108 l 1,267,-1
 445 108 l 1,268,-1
 443 117 l 1,269,-1
 459 117 l 1,270,-1
 458 125 l 1,271,-1
 467 125 l 1,272,-1
 464 142 l 1,273,-1
 455 142 l 1,274,-1
 452 158 l 1,275,-1
 444 158 l 1,276,-1
 443 167 l 1,277,-1
 435 167 l 1,278,-1
 433 175 l 1,279,-1
 424 175 l 1,280,-1
 423 183 l 1,281,-1
 415 183 l 1,282,-1
 412 200 l 1,283,-1
 404 200 l 1,284,-1
 402 208 l 1,285,-1
 393 208 l 1,286,-1
 392 217 l 1,287,-1
 384 217 l 1,288,-1
 382 225 l 1,289,-1
 374 225 l 1,290,-1
 373 233 l 1,291,-1
 364 233 l 1,292,-1
 361 250 l 1,293,-1
 353 250 l 1,294,-1
 352 258 l 1,295,-1
 344 258 l 1,296,-1
 342 267 l 1,297,-1
 333 267 l 1,298,-1
 332 275 l 1,299,-1
 324 275 l 1,300,-1
 322 283 l 1,301,-1
 314 283 l 1,302,-1
 313 292 l 1,303,-1
 304 292 l 1,304,-1
 302 300 l 1,305,-1
 294 300 l 1,306,-1
 293 308 l 1,307,-1
 285 308 l 1,308,-1
 283 317 l 1,309,-1
 274 317 l 1,310,-1
 273 325 l 1,311,-1
 265 325 l 1,312,-1
 263 333 l 1,313,-1
 255 333 l 1,314,-1
 254 342 l 1,315,-1
 229 342 l 1,316,-1
 230 333 l 1,317,-1
 213 333 l 1,318,-1
 215 325 l 1,319,-1
 198 325 l 1,320,-1
 199 317 l 1,321,-1
 191 317 l 1,322,-1
 193 308 l 1,323,-1
 176 308 l 1,324,-1
 177 300 l 1,325,-1
 169 300 l 1,326,-1
 171 292 l 1,327,-1
 163 292 l 1,328,-1
 164 283 l 1,329,-1
 155 283 l 1,330,-1
 158 267 l 1,331,-1
 150 267 l 1,332,-1
 154 242 l 1,333,-1
 146 242 l 1,334,-1
 160 167 l 1,335,-1
 168 167 l 1,336,-1
 171 150 l 1,337,-1
 179 150 l 1,338,-1
 182 133 l 1,339,-1
 191 133 l 1,340,-1
 192 125 l 1,341,-1
 200 125 l 1,342,-1
 201 117 l 1,343,-1
 209 117 l 1,344,-1
 211 108 l 1,345,-1
 220 108 l 1,346,-1
 221 100 l 1,347,-1
 237 100 l 1,348,-1
 239 92 l 1,349,-1
 273 92 l 1,350,-1
 274 83 l 1,351,-1
 382 83 l 1,262,-1
EndSplineSet
EndChar

StartChar: quotesingle
Encoding: 39 39 11
Width: 586
GlyphClass: 1
Flags: W
LayerCount: 2
Fore
SplineSet
105 740 m 1,0,-1
 190 740 l 1,1,-1
 192 728 l 1,2,-1
 216 728 l 1,3,-1
 218 716 l 1,4,-1
 230 716 l 1,5,-1
 232 704 l 1,6,-1
 244 704 l 1,7,-1
 248 680 l 1,8,-1
 260 680 l 1,9,-1
 286 535 l 1,10,-1
 274 535 l 1,11,-1
 280 498 l 1,12,-1
 268 498 l 1,13,-1
 272 474 l 1,14,-1
 260 474 l 1,15,-1
 263 462 l 1,16,-1
 251 462 l 1,17,-1
 255 438 l 1,18,-1
 243 438 l 1,19,-1
 245 426 l 1,20,-1
 220 426 l 1,21,-1
 222 414 l 1,22,-1
 210 414 l 1,23,-1
 212 402 l 1,24,-1
 188 402 l 1,25,-1
 190 390 l 1,26,-1
 117 390 l 1,27,-1
 115 402 l 1,28,-1
 139 402 l 1,29,-1
 137 414 l 1,30,-1
 150 414 l 1,31,-1
 148 426 l 1,32,-1
 160 426 l 1,33,-1
 158 438 l 1,34,-1
 170 438 l 1,35,-1
 166 462 l 1,36,-1
 178 462 l 1,37,-1
 173 486 l 1,38,-1
 185 486 l 1,39,-1
 175 547 l 1,40,-1
 163 547 l 1,41,-1
 160 559 l 1,42,-1
 124 559 l 1,43,-1
 122 571 l 1,44,-1
 109 571 l 1,45,-1
 107 583 l 1,46,-1
 95 583 l 1,47,-1
 93 595 l 1,48,-1
 81 595 l 1,49,-1
 77 620 l 1,50,-1
 65 620 l 1,51,-1
 52 692 l 1,52,-1
 64 692 l 1,53,-1
 62 704 l 1,54,-1
 74 704 l 1,55,-1
 72 716 l 1,56,-1
 84 716 l 1,57,-1
 82 728 l 1,58,-1
 107 728 l 1,59,-1
 105 740 l 1,0,-1
EndSplineSet
EndChar

StartChar: parenleft
Encoding: 40 40 12
Width: 538
GlyphClass: 1
Flags: W
LayerCount: 2
Fore
SplineSet
84 685 m 1,0,-1
 82 700 l 1,1,-1
 96 700 l 1,2,-1
 97 693 l 1,3,-1
 171 693 l 1,4,-1
 173 678 l 1,5,-1
 166 678 l 1,6,-1
 168 671 l 1,7,-1
 160 671 l 1,8,-1
 161 663 l 1,9,-1
 154 663 l 1,10,-1
 157 648 l 1,11,-1
 150 648 l 1,12,-1
 151 641 l 1,13,-1
 143 641 l 1,14,-1
 146 626 l 1,15,-1
 139 626 l 1,16,-1
 140 619 l 1,17,-1
 132 619 l 1,18,-1
 134 604 l 1,19,-1
 127 604 l 1,20,-1
 130 589 l 1,21,-1
 123 589 l 1,22,-1
 126 575 l 1,23,-1
 118 575 l 1,24,-1
 120 560 l 1,25,-1
 113 560 l 1,26,-1
 117 538 l 1,27,-1
 110 538 l 1,28,-1
 113 523 l 1,29,-1
 105 523 l 1,30,-1
 110 494 l 1,31,-1
 103 494 l 1,32,-1
 107 472 l 1,33,-1
 100 472 l 1,34,-1
 109 420 l 1,35,-1
 101 420 l 1,36,-1
 127 273 l 1,37,-1
 135 273 l 1,38,-1
 143 228 l 1,39,-1
 150 228 l 1,40,-1
 155 199 l 1,41,-1
 162 199 l 1,42,-1
 166 177 l 1,43,-1
 174 177 l 1,44,-1
 178 155 l 1,45,-1
 185 155 l 1,46,-1
 187 140 l 1,47,-1
 194 140 l 1,48,-1
 197 125 l 1,49,-1
 205 125 l 1,50,-1
 207 111 l 1,51,-1
 214 111 l 1,52,-1
 216 103 l 1,53,-1
 223 103 l 1,54,-1
 225 88 l 1,55,-1
 233 88 l 1,56,-1
 236 74 l 1,57,-1
 243 74 l 1,58,-1
 244 66 l 1,59,-1
 252 66 l 1,60,-1
 255 52 l 1,61,-1
 262 52 l 1,62,-1
 263 44 l 1,63,-1
 270 44 l 1,64,-1
 273 29 l 1,65,-1
 281 29 l 1,66,-1
 282 22 l 1,67,-1
 289 22 l 1,68,-1
 292 7 l 1,69,-1
 204 7 l 1,70,-1
 205 0 l 1,71,-1
 197 0 l 1,72,-1
 196 7 l 1,73,-1
 189 7 l 1,74,-1
 186 22 l 1,75,-1
 179 22 l 1,76,-1
 178 29 l 1,77,-1
 170 29 l 1,78,-1
 167 44 l 1,79,-1
 160 44 l 1,80,-1
 159 52 l 1,81,-1
 151 52 l 1,82,-1
 148 66 l 1,83,-1
 141 66 l 1,84,-1
 140 74 l 1,85,-1
 133 74 l 1,86,-1
 130 88 l 1,87,-1
 122 88 l 1,88,-1
 120 103 l 1,89,-1
 113 103 l 1,90,-1
 111 111 l 1,91,-1
 104 111 l 1,92,-1
 102 125 l 1,93,-1
 94 125 l 1,94,-1
 90 147 l 1,95,-1
 83 147 l 1,96,-1
 80 162 l 1,97,-1
 72 162 l 1,98,-1
 70 177 l 1,99,-1
 63 177 l 1,100,-1
 58 206 l 1,101,-1
 51 206 l 1,102,-1
 45 236 l 1,103,-1
 37 236 l 1,104,-1
 31 273 l 1,105,-1
 24 273 l 1,106,-1
 -3 427 l 1,107,-1
 4 427 l 1,108,-1
 -4 472 l 1,109,-1
 4 472 l 1,110,-1
 -1 501 l 1,111,-1
 6 501 l 1,112,-1
 2 523 l 1,113,-1
 9 523 l 1,114,-1
 6 538 l 1,115,-1
 14 538 l 1,116,-1
 11 553 l 1,117,-1
 18 553 l 1,118,-1
 16 567 l 1,119,-1
 24 567 l 1,120,-1
 21 582 l 1,121,-1
 28 582 l 1,122,-1
 26 597 l 1,123,-1
 33 597 l 1,124,-1
 31 604 l 1,125,-1
 39 604 l 1,126,-1
 37 619 l 1,127,-1
 44 619 l 1,128,-1
 43 626 l 1,129,-1
 50 626 l 1,130,-1
 47 641 l 1,131,-1
 55 641 l 1,132,-1
 54 648 l 1,133,-1
 61 648 l 1,134,-1
 58 663 l 1,135,-1
 66 663 l 1,136,-1
 65 671 l 1,137,-1
 72 671 l 1,138,-1
 70 678 l 1,139,-1
 77 678 l 1,140,-1
 76 685 l 1,141,-1
 84 685 l 1,0,-1
EndSplineSet
EndChar

StartChar: parenright
Encoding: 41 41 13
Width: 538
GlyphClass: 1
Flags: W
LayerCount: 2
Fore
SplineSet
-49 685 m 1,0,-1
 -51 700 l 1,1,-1
 -36 700 l 1,2,-1
 -35 693 l 1,3,-1
 -28 693 l 1,4,-1
 -29 700 l 1,5,-1
 45 700 l 1,6,-1
 46 693 l 1,7,-1
 53 693 l 1,8,-1
 54 685 l 1,9,-1
 62 685 l 1,10,-1
 63 678 l 1,11,-1
 70 678 l 1,12,-1
 73 663 l 1,13,-1
 80 663 l 1,14,-1
 81 656 l 1,15,-1
 89 656 l 1,16,-1
 91 648 l 1,17,-1
 98 648 l 1,18,-1
 100 634 l 1,19,-1
 107 634 l 1,20,-1
 109 626 l 1,21,-1
 117 626 l 1,22,-1
 119 612 l 1,23,-1
 126 612 l 1,24,-1
 127 604 l 1,25,-1
 134 604 l 1,26,-1
 137 589 l 1,27,-1
 145 589 l 1,28,-1
 148 575 l 1,29,-1
 155 575 l 1,30,-1
 156 567 l 1,31,-1
 164 567 l 1,32,-1
 168 545 l 1,33,-1
 175 545 l 1,34,-1
 177 531 l 1,35,-1
 184 531 l 1,36,-1
 188 508 l 1,37,-1
 196 508 l 1,38,-1
 200 486 l 1,39,-1
 207 486 l 1,40,-1
 214 449 l 1,41,-1
 221 449 l 1,42,-1
 255 258 l 1,43,-1
 248 258 l 1,44,-1
 255 214 l 1,45,-1
 248 214 l 1,46,-1
 254 184 l 1,47,-1
 246 184 l 1,48,-1
 249 162 l 1,49,-1
 242 162 l 1,50,-1
 245 147 l 1,51,-1
 238 147 l 1,52,-1
 242 125 l 1,53,-1
 234 125 l 1,54,-1
 236 111 l 1,55,-1
 229 111 l 1,56,-1
 232 96 l 1,57,-1
 224 96 l 1,58,-1
 227 81 l 1,59,-1
 220 81 l 1,60,-1
 221 74 l 1,61,-1
 214 74 l 1,62,-1
 217 59 l 1,63,-1
 209 59 l 1,64,-1
 210 52 l 1,65,-1
 203 52 l 1,66,-1
 205 37 l 1,67,-1
 198 37 l 1,68,-1
 200 29 l 1,69,-1
 192 29 l 1,70,-1
 193 22 l 1,71,-1
 186 22 l 1,72,-1
 187 15 l 1,73,-1
 180 15 l 1,74,-1
 182 7 l 1,75,-1
 174 7 l 1,76,-1
 175 0 l 1,77,-1
 124 0 l 1,78,-1
 123 7 l 1,79,-1
 78 7 l 1,80,-1
 76 15 l 1,81,-1
 84 15 l 1,82,-1
 83 22 l 1,83,-1
 90 22 l 1,84,-1
 89 29 l 1,85,-1
 96 29 l 1,86,-1
 94 37 l 1,87,-1
 102 37 l 1,88,-1
 100 52 l 1,89,-1
 107 52 l 1,90,-1
 104 66 l 1,91,-1
 112 66 l 1,92,-1
 111 74 l 1,93,-1
 118 74 l 1,94,-1
 115 88 l 1,95,-1
 122 88 l 1,96,-1
 121 96 l 1,97,-1
 129 96 l 1,98,-1
 126 111 l 1,99,-1
 133 111 l 1,100,-1
 131 125 l 1,101,-1
 138 125 l 1,102,-1
 135 140 l 1,103,-1
 143 140 l 1,104,-1
 141 155 l 1,105,-1
 148 155 l 1,106,-1
 144 177 l 1,107,-1
 152 177 l 1,108,-1
 148 199 l 1,109,-1
 155 199 l 1,110,-1
 148 236 l 1,111,-1
 155 236 l 1,112,-1
 119 442 l 1,113,-1
 112 442 l 1,114,-1
 106 479 l 1,115,-1
 99 479 l 1,116,-1
 93 508 l 1,117,-1
 85 508 l 1,118,-1
 81 531 l 1,119,-1
 74 531 l 1,120,-1
 72 545 l 1,121,-1
 64 545 l 1,122,-1
 60 567 l 1,123,-1
 53 567 l 1,124,-1
 50 582 l 1,125,-1
 43 582 l 1,126,-1
 41 597 l 1,127,-1
 33 597 l 1,128,-1
 31 604 l 1,129,-1
 24 604 l 1,130,-1
 22 619 l 1,131,-1
 15 619 l 1,132,-1
 12 634 l 1,133,-1
 4 634 l 1,134,-1
 3 641 l 1,135,-1
 -4 641 l 1,136,-1
 -5 648 l 1,137,-1
 -13 648 l 1,138,-1
 -16 663 l 1,139,-1
 -23 663 l 1,140,-1
 -24 671 l 1,141,-1
 -31 671 l 1,142,-1
 -33 678 l 1,143,-1
 -41 678 l 1,144,-1
 -42 685 l 1,145,-1
 -49 685 l 1,0,-1
EndSplineSet
EndChar

StartChar: asterisk
Encoding: 42 42 14
Width: 939
GlyphClass: 1
Flags: W
LayerCount: 2
Fore
SplineSet
323 525 m 1,0,-1
 399 525 l 1,1,-1
 413 446 l 1,2,-1
 461 503 l 1,3,-1
 525 449 l 1,4,5
 524 449 524 449 477 392 c 1,6,-1
 576 392 l 1,7,-1
 589 315 l 1,8,-1
 550 315 l 1,9,-1
 549 322 l 1,10,-1
 486 322 l 1,11,-1
 573 247 l 1,12,-1
 529 192 l 1,13,-1
 497 220 l 1,14,-1
 502 224 l 1,15,-1
 444 273 l 1,16,-1
 461 175 l 1,17,-1
 385 175 l 1,18,-1
 370 261 l 1,19,-1
 320 202 l 1,20,-1
 257 256 l 1,21,-1
 305 315 l 1,22,-1
 239 315 l 1,23,-1
 238 322 l 1,24,-1
 225 322 l 1,25,-1
 226 315 l 1,26,-1
 207 315 l 1,27,-1
 194 392 l 1,28,-1
 295 392 l 1,29,-1
 238 440 l 1,30,-1
 242 445 l 1,31,-1
 231 454 l 1,32,-1
 228 449 l 1,33,-1
 211 463 l 1,34,-1
 256 517 l 2,35,36
 257 517 257 517 337 449 c 1,37,-1
 323 525 l 1,0,-1
EndSplineSet
EndChar

StartChar: plus
Encoding: 43 43 15
Width: 939
GlyphClass: 1
Flags: W
LayerCount: 2
Fore
SplineSet
323 525 m 1,0,-1
 399 525 l 1,1,-1
 423 392 l 1,2,-1
 576 392 l 1,3,-1
 589 315 l 1,4,-1
 550 315 l 1,5,-1
 549 322 l 1,6,-1
 454 322 l 1,7,-1
 455 315 l 1,8,-1
 449 315 l 1,9,-1
 448 322 l 1,10,-1
 441 322 l 1,11,-1
 442 315 l 1,12,-1
 436 315 l 1,13,-1
 461 175 l 1,14,-1
 385 175 l 1,15,-1
 360 315 l 1,16,-1
 239 315 l 1,17,-1
 238 322 l 1,18,-1
 225 322 l 1,19,-1
 226 315 l 1,20,-1
 207 315 l 1,21,-1
 194 392 l 1,22,-1
 347 392 l 1,23,-1
 323 525 l 1,0,-1
EndSplineSet
EndChar

StartChar: comma
Encoding: 44 44 16
Width: 586
GlyphClass: 1
Flags: W
LayerCount: 2
Fore
SplineSet
172 357 m 1,0,-1
 257 357 l 1,1,-1
 259 345 l 1,2,-1
 283 345 l 1,3,-1
 285 333 l 1,4,-1
 297 333 l 1,5,-1
 299 321 l 1,6,-1
 311 321 l 1,7,-1
 316 296 l 1,8,-1
 328 296 l 1,9,-1
 353 152 l 1,10,-1
 341 152 l 1,11,-1
 348 116 l 1,12,-1
 336 116 l 1,13,-1
 340 92 l 1,14,-1
 328 92 l 1,15,-1
 330 80 l 1,16,-1
 318 80 l 1,17,-1
 322 56 l 1,18,-1
 310 56 l 1,19,-1
 312 43 l 1,20,-1
 287 43 l 1,21,-1
 290 31 l 1,22,-1
 278 31 l 1,23,-1
 280 19 l 1,24,-1
 256 19 l 1,25,-1
 258 7 l 1,26,-1
 185 7 l 1,27,-1
 183 19 l 1,28,-1
 207 19 l 1,29,-1
 205 31 l 1,30,-1
 218 31 l 1,31,-1
 215 43 l 1,32,-1
 227 43 l 1,33,-1
 225 56 l 1,34,-1
 237 56 l 1,35,-1
 233 80 l 1,36,-1
 245 80 l 1,37,-1
 241 104 l 1,38,-1
 253 104 l 1,39,-1
 242 164 l 1,40,-1
 230 164 l 1,41,-1
 228 176 l 1,42,-1
 192 176 l 1,43,-1
 190 188 l 1,44,-1
 177 188 l 1,45,-1
 175 200 l 1,46,-1
 163 200 l 1,47,-1
 161 212 l 1,48,-1
 149 212 l 1,49,-1
 144 236 l 1,50,-1
 132 236 l 1,51,-1
 120 308 l 1,52,-1
 132 308 l 1,53,-1
 129 321 l 1,54,-1
 141 321 l 1,55,-1
 139 333 l 1,56,-1
 151 333 l 1,57,-1
 149 345 l 1,58,-1
 174 345 l 1,59,-1
 172 357 l 1,0,-1
EndSplineSet
EndChar

StartChar: hyphen
Encoding: 45 45 17
Width: 1189
GlyphClass: 1
Flags: W
LayerCount: 2
Fore
SplineSet
785 438 m 1,0,-1
 881 438 l 1,1,-1
 910 273 l 1,2,-1
 151 273 l 1,3,-1
 122 438 l 1,4,-1
 702 438 l 1,5,-1
 785 438 l 1,0,-1
EndSplineSet
EndChar

StartChar: period
Encoding: 46 46 18
Width: 919
GlyphClass: 1
Flags: W
LayerCount: 2
Fore
SplineSet
200 207 m 5,0,-1
 262 207 l 5,1,-1
 264 198 l 5,2,-1
 281 198 l 5,3,-1
 283 189 l 5,4,-1
 292 189 l 5,5,-1
 293 181 l 5,6,-1
 302 181 l 5,7,-1
 304 172 l 5,8,-1
 312 172 l 5,9,-1
 322 111 l 5,10,-1
 314 111 l 5,11,-1
 318 93 l 5,12,-1
 309 93 l 5,13,-1
 310 85 l 5,14,-1
 301 85 l 5,15,-1
 303 76 l 5,16,-1
 294 76 l 5,17,-1
 295 67 l 5,18,-1
 217 67 l 5,19,-1
 216 76 l 5,20,-1
 207 76 l 5,21,-1
 205 85 l 5,22,-1
 196 85 l 5,23,-1
 195 93 l 5,24,-1
 186 93 l 5,25,-1
 184 102 l 5,26,-1
 176 102 l 5,27,-1
 165 163 l 5,28,-1
 173 163 l 5,29,-1
 170 181 l 5,30,-1
 179 181 l 5,31,-1
 178 189 l 5,32,-1
 187 189 l 5,33,-1
 185 198 l 5,34,-1
 202 198 l 5,35,-1
 200 207 l 5,0,-1
EndSplineSet
EndChar

StartChar: slash
Encoding: 47 47 19
Width: 538
GlyphClass: 1
Flags: W
LayerCount: 2
Fore
SplineSet
149 40 m 1,0,-1
 148 48 l 1,1,-1
 48 48 l 1,2,-1
 49 40 l 1,3,-1
 41 40 l 1,4,-1
 40 48 l 1,5,-1
 31 48 l 1,6,-1
 29 57 l 1,7,-1
 38 57 l 1,8,-1
 167 509 l 1,9,-1
 158 509 l 1,10,-1
 157 517 l 1,11,-1
 166 517 l 1,12,-1
 240 732 l 1,13,-1
 363 732 l 1,14,-1
 157 40 l 1,15,-1
 149 40 l 1,0,-1
EndSplineSet
EndChar

StartChar: zero
Encoding: 48 48 20
Width: 788
GlyphClass: 1
Flags: W
LayerCount: 2
Fore
SplineSet
222 700 m 1,0,-1
 316 700 l 1,1,-1
 317 691 l 1,2,-1
 359 691 l 1,3,-1
 361 683 l 1,4,-1
 395 683 l 1,5,-1
 396 674 l 1,6,-1
 413 674 l 1,7,-1
 415 666 l 1,8,-1
 433 666 l 1,9,-1
 434 657 l 1,10,-1
 442 657 l 1,11,-1
 444 649 l 1,12,-1
 461 649 l 1,13,-1
 462 640 l 1,14,-1
 471 640 l 1,15,-1
 473 632 l 1,16,-1
 481 632 l 1,17,-1
 482 623 l 1,18,-1
 491 623 l 1,19,-1
 493 615 l 1,20,-1
 501 615 l 1,21,-1
 502 606 l 1,22,-1
 511 606 l 1,23,-1
 514 589 l 1,24,-1
 522 589 l 1,25,-1
 524 580 l 1,26,-1
 533 580 l 1,27,-1
 536 563 l 1,28,-1
 544 563 l 1,29,-1
 547 546 l 1,30,-1
 556 546 l 1,31,-1
 559 529 l 1,32,-1
 567 529 l 1,33,-1
 571 504 l 1,34,-1
 580 504 l 1,35,-1
 586 470 l 1,36,-1
 595 470 l 1,37,-1
 603 427 l 1,38,-1
 611 427 l 1,39,-1
 638 273 l 1,40,-1
 630 273 l 1,41,-1
 639 222 l 1,42,-1
 630 222 l 1,43,-1
 636 188 l 1,44,-1
 627 188 l 1,45,-1
 631 162 l 1,46,-1
 623 162 l 1,47,-1
 626 145 l 1,48,-1
 617 145 l 1,49,-1
 620 128 l 1,50,-1
 612 128 l 1,51,-1
 615 111 l 1,52,-1
 606 111 l 1,53,-1
 608 102 l 1,54,-1
 600 102 l 1,55,-1
 603 85 l 1,56,-1
 594 85 l 1,57,-1
 595 77 l 1,58,-1
 587 77 l 1,59,-1
 589 68 l 1,60,-1
 580 68 l 1,61,-1
 581 60 l 1,62,-1
 573 60 l 1,63,-1
 575 51 l 1,64,-1
 558 51 l 1,65,-1
 559 43 l 1,66,-1
 550 43 l 1,67,-1
 552 34 l 1,68,-1
 535 34 l 1,69,-1
 536 26 l 1,70,-1
 519 26 l 1,71,-1
 521 17 l 1,72,-1
 495 17 l 1,73,-1
 496 9 l 1,74,-1
 462 9 l 1,75,-1
 464 0 l 1,76,-1
 293 0 l 1,77,-1
 291 9 l 1,78,-1
 266 9 l 1,79,-1
 265 17 l 1,80,-1
 239 17 l 1,81,-1
 237 26 l 1,82,-1
 220 26 l 1,83,-1
 219 34 l 1,84,-1
 211 34 l 1,85,-1
 209 43 l 1,86,-1
 192 43 l 1,87,-1
 191 51 l 1,88,-1
 182 51 l 1,89,-1
 180 60 l 1,90,-1
 171 60 l 1,91,-1
 170 68 l 1,92,-1
 162 68 l 1,93,-1
 160 77 l 1,94,-1
 151 77 l 1,95,-1
 150 85 l 1,96,-1
 142 85 l 1,97,-1
 139 102 l 1,98,-1
 130 102 l 1,99,-1
 128 111 l 1,100,-1
 120 111 l 1,101,-1
 117 128 l 1,102,-1
 108 128 l 1,103,-1
 105 145 l 1,104,-1
 97 145 l 1,105,-1
 94 162 l 1,106,-1
 85 162 l 1,107,-1
 82 179 l 1,108,-1
 74 179 l 1,109,-1
 68 213 l 1,110,-1
 59 213 l 1,111,-1
 53 248 l 1,112,-1
 45 248 l 1,113,-1
 32 324 l 1,114,-1
 23 324 l 1,115,-1
 15 367 l 1,116,-1
 24 367 l 1,117,-1
 9 452 l 1,118,-1
 17 452 l 1,119,-1
 11 487 l 1,120,-1
 20 487 l 1,121,-1
 16 512 l 1,122,-1
 24 512 l 1,123,-1
 19 538 l 1,124,-1
 28 538 l 1,125,-1
 25 555 l 1,126,-1
 33 555 l 1,127,-1
 30 572 l 1,128,-1
 39 572 l 1,129,-1
 38 580 l 1,130,-1
 46 580 l 1,131,-1
 43 598 l 1,132,-1
 52 598 l 1,133,-1
 50 606 l 1,134,-1
 58 606 l 1,135,-1
 57 615 l 1,136,-1
 66 615 l 1,137,-1
 64 623 l 1,138,-1
 72 623 l 1,139,-1
 71 632 l 1,140,-1
 80 632 l 1,141,-1
 78 640 l 1,142,-1
 87 640 l 1,143,-1
 86 649 l 1,144,-1
 103 649 l 1,145,-1
 101 657 l 1,146,-1
 109 657 l 1,147,-1
 108 666 l 1,148,-1
 125 666 l 1,149,-1
 123 674 l 1,150,-1
 149 674 l 1,151,-1
 148 683 l 1,152,-1
 173 683 l 1,153,-1
 171 691 l 1,154,-1
 223 691 l 1,155,-1
 222 700 l 1,0,-1
413 94 m 1,156,-1
 412 102 l 1,157,-1
 438 102 l 1,158,-1
 436 111 l 1,159,-1
 453 111 l 1,160,-1
 452 120 l 1,161,-1
 460 120 l 1,162,-1
 458 128 l 1,163,-1
 475 128 l 1,164,-1
 474 137 l 1,165,-1
 483 137 l 1,166,-1
 480 154 l 1,167,-1
 488 154 l 1,168,-1
 486 162 l 1,169,-1
 495 162 l 1,170,-1
 492 179 l 1,171,-1
 500 179 l 1,172,-1
 497 196 l 1,173,-1
 506 196 l 1,174,-1
 502 222 l 1,175,-1
 511 222 l 1,176,-1
 503 265 l 1,177,-1
 511 265 l 1,178,-1
 483 427 l 1,179,-1
 475 427 l 1,180,-1
 467 470 l 1,181,-1
 458 470 l 1,182,-1
 452 504 l 1,183,-1
 443 504 l 1,184,-1
 440 521 l 1,185,-1
 432 521 l 1,186,-1
 431 529 l 1,187,-1
 422 529 l 1,188,-1
 419 546 l 1,189,-1
 411 546 l 1,190,-1
 409 555 l 1,191,-1
 400 555 l 1,192,-1
 399 563 l 1,193,-1
 391 563 l 1,194,-1
 389 572 l 1,195,-1
 372 572 l 1,196,-1
 371 580 l 1,197,-1
 362 580 l 1,198,-1
 360 589 l 1,199,-1
 335 589 l 1,200,-1
 334 598 l 1,201,-1
 231 598 l 1,202,-1
 232 589 l 1,203,-1
 206 589 l 1,204,-1
 208 580 l 1,205,-1
 191 580 l 1,206,-1
 192 572 l 1,207,-1
 184 572 l 1,208,-1
 186 563 l 1,209,-1
 169 563 l 1,210,-1
 172 546 l 1,211,-1
 163 546 l 1,212,-1
 164 538 l 1,213,-1
 156 538 l 1,214,-1
 158 529 l 1,215,-1
 149 529 l 1,216,-1
 152 512 l 1,217,-1
 144 512 l 1,218,-1
 148 487 l 1,219,-1
 139 487 l 1,220,-1
 145 452 l 1,221,-1
 137 452 l 1,222,-1
 149 384 l 1,223,-1
 140 384 l 1,224,-1
 155 299 l 1,225,-1
 164 299 l 1,226,-1
 175 239 l 1,227,-1
 183 239 l 1,228,-1
 187 213 l 1,229,-1
 196 213 l 1,230,-1
 201 188 l 1,231,-1
 209 188 l 1,232,-1
 212 171 l 1,233,-1
 221 171 l 1,234,-1
 224 154 l 1,235,-1
 232 154 l 1,236,-1
 233 145 l 1,237,-1
 242 145 l 1,238,-1
 244 137 l 1,239,-1
 252 137 l 1,240,-1
 253 128 l 1,241,-1
 262 128 l 1,242,-1
 264 120 l 1,243,-1
 272 120 l 1,244,-1
 273 111 l 1,245,-1
 290 111 l 1,246,-1
 292 102 l 1,247,-1
 327 102 l 1,248,-1
 328 94 l 1,249,-1
 413 94 l 1,156,-1
EndSplineSet
EndChar

StartChar: one
Encoding: 49 49 21
Width: 538
GlyphClass: 1
Flags: W
LayerCount: 2
Fore
SplineSet
91 700 m 1,0,-1
 188 700 l 1,1,-1
 311 0 l 1,2,-1
 187 0 l 1,3,-1
 87 567 l 1,4,-1
 69 567 l 1,5,-1
 71 558 l 1,6,-1
 54 558 l 1,7,-1
 55 549 l 1,8,-1
 37 549 l 1,9,-1
 39 541 l 1,10,-1
 21 541 l 1,11,-1
 22 532 l 1,12,-1
 5 532 l 1,13,-1
 7 523 l 1,14,-1
 -11 523 l 1,15,-1
 -10 514 l 1,16,-1
 -19 514 l 1,17,-1
 -42 647 l 1,18,-1
 -24 647 l 1,19,-1
 -26 656 l 1,20,-1
 0 656 l 1,21,-1
 -1 665 l 1,22,-1
 26 665 l 1,23,-1
 24 673 l 1,24,-1
 42 673 l 1,25,-1
 41 682 l 1,26,-1
 58 682 l 1,27,-1
 56 691 l 1,28,-1
 92 691 l 1,29,-1
 91 700 l 1,0,-1
EndSplineSet
EndChar

StartChar: two
Encoding: 50 50 22
Width: 651
GlyphClass: 1
Flags: W
LayerCount: 2
Fore
SplineSet
96 700 m 1,0,-1
 208 700 l 1,1,-1
 209 691 l 1,2,-1
 252 691 l 1,3,-1
 254 683 l 1,4,-1
 289 683 l 1,5,-1
 290 674 l 1,6,-1
 307 674 l 1,7,-1
 309 665 l 1,8,-1
 327 665 l 1,9,-1
 328 657 l 1,10,-1
 345 657 l 1,11,-1
 347 648 l 1,12,-1
 356 648 l 1,13,-1
 357 640 l 1,14,-1
 365 640 l 1,15,-1
 367 631 l 1,16,-1
 376 631 l 1,17,-1
 377 622 l 1,18,-1
 385 622 l 1,19,-1
 387 614 l 1,20,-1
 396 614 l 1,21,-1
 399 596 l 1,22,-1
 408 596 l 1,23,-1
 409 588 l 1,24,-1
 417 588 l 1,25,-1
 420 570 l 1,26,-1
 429 570 l 1,27,-1
 435 536 l 1,28,-1
 444 536 l 1,29,-1
 460 449 l 1,30,-1
 451 449 l 1,31,-1
 458 406 l 1,32,-1
 449 406 l 1,33,-1
 452 389 l 1,34,-1
 444 389 l 1,35,-1
 447 372 l 1,36,-1
 438 372 l 1,37,-1
 443 346 l 1,38,-1
 434 346 l 1,39,-1
 436 337 l 1,40,-1
 428 337 l 1,41,-1
 431 320 l 1,42,-1
 422 320 l 1,43,-1
 423 311 l 1,44,-1
 415 311 l 1,45,-1
 417 302 l 1,46,-1
 408 302 l 1,47,-1
 411 285 l 1,48,-1
 402 285 l 1,49,-1
 403 277 l 1,50,-1
 395 277 l 1,51,-1
 397 268 l 1,52,-1
 388 268 l 1,53,-1
 389 259 l 1,54,-1
 380 259 l 1,55,-1
 382 251 l 1,56,-1
 374 251 l 1,57,-1
 375 242 l 1,58,-1
 366 242 l 1,59,-1
 368 233 l 1,60,-1
 359 233 l 1,61,-1
 360 225 l 1,62,-1
 352 225 l 1,63,-1
 354 216 l 1,64,-1
 345 216 l 2,65,66
 344 216 344 216 346 207 c 1,67,-1
 338 207 l 1,68,-1
 339 199 l 1,69,-1
 322 199 l 1,70,-1
 323 190 l 1,71,-1
 315 190 l 1,72,-1
 317 181 l 1,73,-1
 308 181 l 1,74,-1
 309 173 l 1,75,-1
 300 173 l 1,76,-1
 302 164 l 1,77,-1
 285 164 l 1,78,-1
 286 156 l 1,79,-1
 277 156 l 1,80,-1
 279 147 l 1,81,-1
 262 147 l 1,82,-1
 264 138 l 1,83,-1
 255 138 l 1,84,-1
 256 130 l 1,85,-1
 248 130 l 1,86,-1
 250 121 l 1,87,-1
 232 121 l 1,88,-1
 233 112 l 1,89,-1
 225 112 l 1,90,-1
 227 104 l 1,91,-1
 529 104 l 1,92,-1
 547 0 l 1,93,-1
 81 0 l 1,94,-1
 79 9 l 1,95,-1
 70 9 l 1,96,-1
 69 17 l 1,97,-1
 78 17 l 1,98,-1
 66 86 l 1,99,-1
 57 86 l 1,100,-1
 55 95 l 1,101,-1
 64 95 l 1,102,-1
 63 104 l 1,103,-1
 71 104 l 1,104,-1
 69 112 l 1,105,-1
 78 112 l 1,106,-1
 77 121 l 1,107,-1
 86 121 l 1,108,-1
 84 130 l 1,109,-1
 101 130 l 1,110,-1
 100 138 l 1,111,-1
 108 138 l 1,112,-1
 106 147 l 1,113,-1
 115 147 l 1,114,-1
 113 156 l 1,115,-1
 122 156 l 1,116,-1
 121 164 l 1,117,-1
 129 164 l 1,118,-1
 127 173 l 1,119,-1
 145 173 l 1,120,-1
 144 181 l 1,121,-1
 152 181 l 1,122,-1
 150 190 l 1,123,-1
 159 190 l 1,124,-1
 158 199 l 1,125,-1
 167 199 l 2,126,127
 168 199 168 199 166 207 c 1,128,-1
 174 207 l 1,129,-1
 172 216 l 1,130,-1
 181 216 l 1,131,-1
 179 225 l 1,132,-1
 196 225 l 1,133,-1
 195 233 l 1,134,-1
 204 233 l 1,135,-1
 202 242 l 1,136,-1
 210 242 l 1,137,-1
 209 251 l 1,138,-1
 218 251 l 1,139,-1
 216 259 l 1,140,-1
 225 259 l 1,141,-1
 224 268 l 1,142,-1
 232 268 l 1,143,-1
 230 277 l 1,144,-1
 239 277 l 1,145,-1
 238 285 l 1,146,-1
 247 285 l 1,147,-1
 245 294 l 1,148,-1
 253 294 l 1,149,-1
 252 302 l 1,150,-1
 261 302 l 1,151,-1
 259 311 l 1,152,-1
 268 311 l 1,153,-1
 267 320 l 1,154,-1
 275 320 l 1,155,-1
 273 328 l 1,156,-1
 282 328 l 1,157,-1
 279 346 l 1,158,-1
 288 346 l 1,159,-1
 287 354 l 1,160,-1
 295 354 l 1,161,-1
 291 372 l 1,162,-1
 300 372 l 1,163,-1
 299 380 l 1,164,-1
 307 380 l 1,165,-1
 304 398 l 1,166,-1
 313 398 l 1,167,-1
 310 415 l 1,168,-1
 319 415 l 1,169,-1
 314 441 l 1,170,-1
 322 441 l 1,171,-1
 308 519 l 1,172,-1
 300 519 l 1,173,-1
 297 536 l 1,174,-1
 288 536 l 1,175,-1
 285 553 l 1,176,-1
 276 553 l 1,177,-1
 275 562 l 1,178,-1
 267 562 l 1,179,-1
 265 570 l 1,180,-1
 248 570 l 1,181,-1
 247 579 l 1,182,-1
 221 579 l 1,183,-1
 219 588 l 1,184,-1
 158 588 l 1,185,-1
 157 596 l 1,186,-1
 123 596 l 1,187,-1
 124 588 l 1,188,-1
 63 588 l 1,189,-1
 65 579 l 1,190,-1
 39 579 l 1,191,-1
 40 570 l 1,192,-1
 14 570 l 1,193,-1
 16 562 l 1,194,-1
 -1 562 l 1,195,-1
 0 553 l 1,196,-1
 -17 553 l 1,197,-1
 -36 665 l 1,198,-1
 -19 665 l 1,199,-1
 -21 674 l 1,200,-1
 13 674 l 1,201,-1
 12 683 l 1,202,-1
 47 683 l 1,203,-1
 45 691 l 1,204,-1
 97 691 l 1,205,-1
 96 700 l 1,0,-1
EndSplineSet
EndChar

StartChar: three
Encoding: 51 51 23
Width: 636
GlyphClass: 1
Flags: W
LayerCount: 2
Fore
SplineSet
48 137 m 1,0,-1
 57 137 l 1,1,-1
 58 128 l 1,2,-1
 75 128 l 1,3,-1
 77 120 l 1,4,-1
 102 120 l 1,5,-1
 103 111 l 1,6,-1
 137 111 l 1,7,-1
 139 102 l 1,8,-1
 191 102 l 1,9,-1
 192 94 l 1,10,-1
 251 94 l 1,11,-1
 250 102 l 1,12,-1
 310 102 l 1,13,-1
 308 111 l 1,14,-1
 334 111 l 1,15,-1
 333 120 l 1,16,-1
 350 120 l 1,17,-1
 348 128 l 1,18,-1
 356 128 l 1,19,-1
 355 137 l 1,20,-1
 364 137 l 1,21,-1
 362 145 l 1,22,-1
 370 145 l 1,23,-1
 366 171 l 1,24,-1
 375 171 l 1,25,-1
 363 239 l 1,26,-1
 354 239 l 1,27,-1
 351 256 l 1,28,-1
 343 256 l 1,29,-1
 341 265 l 1,30,-1
 332 265 l 1,31,-1
 331 273 l 1,32,-1
 323 273 l 1,33,-1
 321 282 l 1,34,-1
 312 282 l 1,35,-1
 311 290 l 1,36,-1
 294 290 l 1,37,-1
 292 299 l 1,38,-1
 258 299 l 1,39,-1
 257 307 l 1,40,-1
 120 307 l 1,41,-1
 103 401 l 1,42,-1
 197 401 l 1,43,-1
 196 410 l 1,44,-1
 239 410 l 1,45,-1
 237 418 l 1,46,-1
 263 418 l 1,47,-1
 262 427 l 1,48,-1
 279 427 l 1,49,-1
 277 435 l 1,50,-1
 285 435 l 1,51,-1
 284 444 l 1,52,-1
 293 444 l 1,53,-1
 291 452 l 1,54,-1
 299 452 l 1,55,-1
 296 470 l 1,56,-1
 305 470 l 1,57,-1
 293 538 l 1,58,-1
 284 538 l 1,59,-1
 281 555 l 1,60,-1
 273 555 l 1,61,-1
 272 563 l 1,62,-1
 263 563 l 1,63,-1
 261 572 l 1,64,-1
 253 572 l 1,65,-1
 252 580 l 1,66,-1
 235 580 l 1,67,-1
 233 589 l 1,68,-1
 198 589 l 1,69,-1
 197 598 l 1,70,-1
 95 598 l 1,71,-1
 96 589 l 1,72,-1
 53 589 l 1,73,-1
 55 580 l 1,74,-1
 30 580 l 1,75,-1
 31 572 l 1,76,-1
 14 572 l 1,77,-1
 16 563 l 1,78,-1
 -1 563 l 1,79,-1
 0 555 l 1,80,-1
 -17 555 l 1,81,-1
 -36 666 l 1,82,-1
 -19 666 l 1,83,-1
 -21 674 l 1,84,-1
 4 674 l 1,85,-1
 3 683 l 1,86,-1
 37 683 l 1,87,-1
 35 691 l 1,88,-1
 87 691 l 1,89,-1
 86 700 l 1,90,-1
 197 700 l 1,91,-1
 198 691 l 1,92,-1
 240 691 l 1,93,-1
 242 683 l 1,94,-1
 276 683 l 1,95,-1
 277 674 l 1,96,-1
 294 674 l 1,97,-1
 296 666 l 1,98,-1
 314 666 l 1,99,-1
 315 657 l 1,100,-1
 332 657 l 1,101,-1
 334 649 l 1,102,-1
 342 649 l 1,103,-1
 343 640 l 1,104,-1
 352 640 l 1,105,-1
 354 632 l 1,106,-1
 362 632 l 1,107,-1
 363 623 l 1,108,-1
 372 623 l 1,109,-1
 374 615 l 1,110,-1
 382 615 l 1,111,-1
 383 606 l 1,112,-1
 392 606 l 1,113,-1
 395 589 l 1,114,-1
 403 589 l 1,115,-1
 408 563 l 1,116,-1
 417 563 l 1,117,-1
 433 470 l 1,118,-1
 424 470 l 1,119,-1
 429 444 l 1,120,-1
 421 444 l 1,121,-1
 424 427 l 1,122,-1
 415 427 l 1,123,-1
 416 418 l 1,124,-1
 408 418 l 1,125,-1
 410 410 l 1,126,-1
 401 410 l 1,127,-1
 402 401 l 1,128,-1
 394 401 l 1,129,-1
 396 393 l 1,130,-1
 387 393 l 1,131,-1
 388 384 l 1,132,-1
 380 384 l 1,133,-1
 382 376 l 1,134,-1
 365 376 l 1,135,-1
 366 367 l 1,136,-1
 348 367 l 1,137,-1
 351 350 l 1,138,-1
 377 350 l 1,139,-1
 379 341 l 1,140,-1
 396 341 l 1,141,-1
 397 333 l 1,142,-1
 406 333 l 1,143,-1
 408 324 l 1,144,-1
 425 324 l 1,145,-1
 426 316 l 1,146,-1
 434 316 l 1,147,-1
 436 307 l 1,148,-1
 445 307 l 1,149,-1
 446 299 l 1,150,-1
 454 299 l 1,151,-1
 457 282 l 1,152,-1
 466 282 l 1,153,-1
 469 265 l 1,154,-1
 477 265 l 1,155,-1
 482 239 l 1,156,-1
 491 239 l 1,157,-1
 506 154 l 1,158,-1
 497 154 l 1,159,-1
 501 128 l 1,160,-1
 493 128 l 1,161,-1
 496 111 l 1,162,-1
 487 111 l 1,163,-1
 490 94 l 1,164,-1
 482 94 l 1,165,-1
 484 85 l 1,166,-1
 475 85 l 1,167,-1
 478 68 l 1,168,-1
 470 68 l 1,169,-1
 471 60 l 1,170,-1
 454 60 l 1,171,-1
 456 51 l 1,172,-1
 447 51 l 1,173,-1
 448 43 l 1,174,-1
 440 43 l 1,175,-1
 442 34 l 1,176,-1
 425 34 l 1,177,-1
 426 26 l 1,178,-1
 400 26 l 1,179,-1
 402 17 l 1,180,-1
 385 17 l 1,181,-1
 386 9 l 1,182,-1
 343 9 l 1,183,-1
 345 0 l 1,184,-1
 166 0 l 1,185,-1
 164 9 l 1,186,-1
 113 9 l 1,187,-1
 112 17 l 1,188,-1
 78 17 l 1,189,-1
 76 26 l 1,190,-1
 67 26 l 1,191,-1
 48 137 l 1,0,-1
EndSplineSet
EndChar

StartChar: four
Encoding: 52 52 24
Width: 716
GlyphClass: 1
Flags: W
LayerCount: 2
Fore
SplineSet
233 700 m 1,0,-1
 410 700 l 1,1,-1
 475 328 l 1,2,-1
 484 328 l 1,3,-1
 498 248 l 1,4,-1
 569 248 l 1,5,-1
 586 151 l 1,6,-1
 515 151 l 1,7,-1
 517 142 l 1,8,-1
 508 142 l 1,9,-1
 511 124 l 1,10,-1
 520 124 l 1,11,-1
 542 0 l 1,12,-1
 409 0 l 1,13,-1
 382 151 l 1,14,-1
 63 151 l 1,15,-1
 65 142 l 1,16,-1
 56 142 l 1,17,-1
 54 151 l 1,18,-1
 45 151 l 1,19,-1
 44 159 l 1,20,-1
 53 159 l 1,21,-1
 36 257 l 1,22,-1
 45 257 l 1,23,-1
 43 266 l 1,24,-1
 52 266 l 1,25,-1
 49 284 l 1,26,-1
 57 284 l 1,27,-1
 54 301 l 1,28,-1
 63 301 l 1,29,-1
 61 310 l 1,30,-1
 70 310 l 1,31,-1
 67 328 l 1,32,-1
 76 328 l 1,33,-1
 73 346 l 1,34,-1
 82 346 l 1,35,-1
 81 354 l 1,36,-1
 90 354 l 1,37,-1
 86 372 l 1,38,-1
 95 372 l 1,39,-1
 94 381 l 1,40,-1
 102 381 l 1,41,-1
 99 399 l 1,42,-1
 108 399 l 1,43,-1
 105 416 l 1,44,-1
 114 416 l 1,45,-1
 112 425 l 1,46,-1
 121 425 l 1,47,-1
 118 443 l 1,48,-1
 127 443 l 1,49,-1
 124 461 l 1,50,-1
 133 461 l 1,51,-1
 131 470 l 1,52,-1
 140 470 l 1,53,-1
 137 487 l 1,54,-1
 145 487 l 1,55,-1
 142 505 l 1,56,-1
 151 505 l 1,57,-1
 149 514 l 1,58,-1
 158 514 l 1,59,-1
 155 532 l 1,60,-1
 164 532 l 1,61,-1
 161 549 l 1,62,-1
 170 549 l 1,63,-1
 169 558 l 1,64,-1
 178 558 l 1,65,-1
 174 576 l 1,66,-1
 183 576 l 1,67,-1
 182 585 l 1,68,-1
 191 585 l 1,69,-1
 188 603 l 1,70,-1
 196 603 l 1,71,-1
 193 620 l 1,72,-1
 202 620 l 1,73,-1
 200 629 l 1,74,-1
 209 629 l 1,75,-1
 206 647 l 1,76,-1
 215 647 l 1,77,-1
 212 665 l 1,78,-1
 221 665 l 1,79,-1
 219 673 l 1,80,-1
 228 673 l 1,81,-1
 225 691 l 1,82,-1
 234 691 l 1,83,-1
 233 700 l 1,0,-1
365 248 m 1,84,-1
 306 585 l 1,85,-1
 297 585 l 1,86,-1
 298 576 l 1,87,-1
 289 576 l 1,88,-1
 293 558 l 1,89,-1
 284 558 l 1,90,-1
 285 549 l 1,91,-1
 276 549 l 1,92,-1
 279 532 l 1,93,-1
 270 532 l 1,94,-1
 272 523 l 1,95,-1
 264 523 l 1,96,-1
 267 505 l 1,97,-1
 258 505 l 1,98,-1
 261 487 l 1,99,-1
 252 487 l 1,100,-1
 254 478 l 1,101,-1
 245 478 l 1,102,-1
 248 461 l 1,103,-1
 239 461 l 1,104,-1
 240 452 l 1,105,-1
 231 452 l 1,106,-1
 234 434 l 1,107,-1
 225 434 l 1,108,-1
 229 416 l 1,109,-1
 221 416 l 1,110,-1
 222 408 l 1,111,-1
 213 408 l 1,112,-1
 216 390 l 1,113,-1
 207 390 l 1,114,-1
 209 381 l 1,115,-1
 200 381 l 1,116,-1
 203 363 l 1,117,-1
 194 363 l 1,118,-1
 196 354 l 1,119,-1
 187 354 l 1,120,-1
 190 337 l 1,121,-1
 181 337 l 1,122,-1
 182 328 l 1,123,-1
 173 328 l 1,124,-1
 176 310 l 1,125,-1
 168 310 l 1,126,-1
 172 292 l 1,127,-1
 163 292 l 1,128,-1
 164 284 l 1,129,-1
 155 284 l 1,130,-1
 158 266 l 1,131,-1
 149 266 l 1,132,-1
 151 257 l 1,133,-1
 142 257 l 1,134,-1
 143 248 l 1,135,-1
 365 248 l 1,84,-1
EndSplineSet
EndChar

StartChar: five
Encoding: 53 53 25
Width: 651
GlyphClass: 1
Flags: W
LayerCount: 2
Fore
SplineSet
48 138 m 1,0,-1
 57 138 l 1,1,-1
 58 130 l 1,2,-1
 84 130 l 1,3,-1
 86 121 l 1,4,-1
 103 121 l 1,5,-1
 104 112 l 1,6,-1
 138 112 l 1,7,-1
 140 104 l 1,8,-1
 201 104 l 1,9,-1
 202 95 l 1,10,-1
 262 95 l 1,11,-1
 261 104 l 1,12,-1
 322 104 l 1,13,-1
 320 112 l 1,14,-1
 337 112 l 1,15,-1
 336 121 l 1,16,-1
 353 121 l 1,17,-1
 351 130 l 1,18,-1
 360 130 l 1,19,-1
 359 138 l 1,20,-1
 368 138 l 1,21,-1
 366 147 l 1,22,-1
 374 147 l 1,23,-1
 372 156 l 1,24,-1
 381 156 l 1,25,-1
 377 181 l 1,26,-1
 386 181 l 1,27,-1
 374 251 l 1,28,-1
 365 251 l 1,29,-1
 362 268 l 1,30,-1
 353 268 l 1,31,-1
 350 285 l 1,32,-1
 342 285 l 1,33,-1
 340 294 l 1,34,-1
 331 294 l 1,35,-1
 330 302 l 1,36,-1
 321 302 l 1,37,-1
 319 311 l 1,38,-1
 302 311 l 1,39,-1
 301 320 l 1,40,-1
 267 320 l 1,41,-1
 265 328 l 1,42,-1
 66 328 l 1,43,-1
 68 320 l 1,44,-1
 33 320 l 1,45,-1
 13 432 l 1,46,-1
 22 432 l 1,47,-1
 -18 657 l 1,48,-1
 -9 657 l 1,49,-1
 -16 700 l 1,50,-1
 -8 700 l 1,51,-1
 -7 691 l 1,52,-1
 36 691 l 1,53,-1
 35 700 l 1,54,-1
 390 700 l 1,55,-1
 408 596 l 1,56,-1
 123 596 l 1,57,-1
 124 588 l 1,58,-1
 115 588 l 1,59,-1
 129 510 l 1,60,-1
 120 510 l 1,61,-1
 134 432 l 1,62,-1
 281 432 l 1,63,-1
 282 423 l 1,64,-1
 325 423 l 1,65,-1
 327 415 l 1,66,-1
 353 415 l 1,67,-1
 354 406 l 1,68,-1
 372 406 l 1,69,-1
 374 398 l 1,70,-1
 391 398 l 1,71,-1
 392 389 l 1,72,-1
 409 389 l 1,73,-1
 411 380 l 1,74,-1
 420 380 l 1,75,-1
 421 372 l 1,76,-1
 429 372 l 1,77,-1
 431 363 l 1,78,-1
 440 363 l 1,79,-1
 442 354 l 1,80,-1
 451 354 l 1,81,-1
 452 346 l 1,82,-1
 460 346 l 1,83,-1
 463 328 l 1,84,-1
 472 328 l 1,85,-1
 475 311 l 1,86,-1
 484 311 l 1,87,-1
 489 285 l 1,88,-1
 497 285 l 1,89,-1
 519 156 l 1,90,-1
 511 156 l 1,91,-1
 516 130 l 1,92,-1
 507 130 l 1,93,-1
 510 112 l 1,94,-1
 501 112 l 1,95,-1
 504 95 l 1,96,-1
 496 95 l 1,97,-1
 498 86 l 1,98,-1
 489 86 l 1,99,-1
 490 78 l 1,100,-1
 481 78 l 1,101,-1
 483 69 l 1,102,-1
 475 69 l 1,103,-1
 476 60 l 1,104,-1
 467 60 l 1,105,-1
 469 52 l 1,106,-1
 461 52 l 1,107,-1
 462 43 l 1,108,-1
 444 43 l 1,109,-1
 446 35 l 1,110,-1
 438 35 l 1,111,-1
 439 26 l 1,112,-1
 413 26 l 1,113,-1
 415 17 l 1,114,-1
 389 17 l 1,115,-1
 390 9 l 1,116,-1
 347 9 l 1,117,-1
 349 0 l 1,118,-1
 158 0 l 1,119,-1
 156 9 l 1,120,-1
 113 9 l 1,121,-1
 112 17 l 1,122,-1
 78 17 l 1,123,-1
 76 26 l 1,124,-1
 67 26 l 1,125,-1
 48 138 l 1,0,-1
EndSplineSet
EndChar

StartChar: six
Encoding: 54 54 26
Width: 713
GlyphClass: 1
Flags: W
LayerCount: 2
Fore
SplineSet
267 444 m 1,0,-1
 370 444 l 1,1,-1
 371 435 l 1,2,-1
 405 435 l 1,3,-1
 407 427 l 1,4,-1
 424 427 l 1,5,-1
 425 418 l 1,6,-1
 442 418 l 1,7,-1
 444 410 l 1,8,-1
 461 410 l 1,9,-1
 462 401 l 1,10,-1
 471 401 l 1,11,-1
 473 393 l 1,12,-1
 481 393 l 1,13,-1
 482 384 l 1,14,-1
 491 384 l 1,15,-1
 493 376 l 1,16,-1
 501 376 l 1,17,-1
 502 367 l 1,18,-1
 511 367 l 1,19,-1
 513 359 l 1,20,-1
 521 359 l 1,21,-1
 524 341 l 1,22,-1
 533 341 l 1,23,-1
 537 316 l 1,24,-1
 545 316 l 1,25,-1
 550 290 l 1,26,-1
 559 290 l 1,27,-1
 583 154 l 1,28,-1
 574 154 l 1,29,-1
 578 128 l 1,30,-1
 570 128 l 1,31,-1
 573 111 l 1,32,-1
 564 111 l 1,33,-1
 567 94 l 1,34,-1
 559 94 l 1,35,-1
 561 85 l 1,36,-1
 552 85 l 1,37,-1
 553 77 l 1,38,-1
 545 77 l 1,39,-1
 547 68 l 1,40,-1
 538 68 l 1,41,-1
 539 60 l 1,42,-1
 531 60 l 1,43,-1
 533 51 l 1,44,-1
 524 51 l 1,45,-1
 525 43 l 1,46,-1
 516 43 l 1,47,-1
 518 34 l 1,48,-1
 501 34 l 1,49,-1
 502 26 l 1,50,-1
 485 26 l 1,51,-1
 487 17 l 1,52,-1
 462 17 l 1,53,-1
 463 9 l 1,54,-1
 429 9 l 1,55,-1
 431 0 l 1,56,-1
 277 0 l 1,57,-1
 275 9 l 1,58,-1
 241 9 l 1,59,-1
 240 17 l 1,60,-1
 223 17 l 1,61,-1
 221 26 l 1,62,-1
 204 26 l 1,63,-1
 203 34 l 1,64,-1
 186 34 l 1,65,-1
 184 43 l 1,66,-1
 175 43 l 1,67,-1
 174 51 l 1,68,-1
 165 51 l 1,69,-1
 163 60 l 1,70,-1
 155 60 l 1,71,-1
 154 68 l 1,72,-1
 145 68 l 1,73,-1
 143 77 l 1,74,-1
 135 77 l 1,75,-1
 134 85 l 1,76,-1
 125 85 l 1,77,-1
 123 94 l 1,78,-1
 115 94 l 1,79,-1
 112 111 l 1,80,-1
 103 111 l 1,81,-1
 100 128 l 1,82,-1
 92 128 l 1,83,-1
 89 145 l 1,84,-1
 80 145 l 1,85,-1
 77 162 l 1,86,-1
 69 162 l 1,87,-1
 65 188 l 1,88,-1
 56 188 l 1,89,-1
 48 230 l 1,90,-1
 40 230 l 1,91,-1
 28 299 l 1,92,-1
 19 299 l 1,93,-1
 10 350 l 1,94,-1
 19 350 l 1,95,-1
 6 427 l 1,96,-1
 14 427 l 1,97,-1
 6 470 l 1,98,-1
 15 470 l 1,99,-1
 9 504 l 1,100,-1
 17 504 l 1,101,-1
 14 521 l 1,102,-1
 23 521 l 1,103,-1
 19 546 l 1,104,-1
 27 546 l 1,105,-1
 24 563 l 1,106,-1
 33 563 l 1,107,-1
 31 572 l 1,108,-1
 39 572 l 1,109,-1
 36 589 l 1,110,-1
 45 589 l 1,111,-1
 44 598 l 1,112,-1
 52 598 l 1,113,-1
 49 615 l 1,114,-1
 58 615 l 1,115,-1
 56 623 l 1,116,-1
 64 623 l 1,117,-1
 63 632 l 1,118,-1
 72 632 l 1,119,-1
 70 640 l 1,120,-1
 87 640 l 1,121,-1
 86 649 l 1,122,-1
 95 649 l 1,123,-1
 93 657 l 1,124,-1
 110 657 l 1,125,-1
 109 666 l 1,126,-1
 126 666 l 1,127,-1
 124 674 l 1,128,-1
 141 674 l 1,129,-1
 140 683 l 1,130,-1
 165 683 l 1,131,-1
 163 691 l 1,132,-1
 215 691 l 1,133,-1
 214 700 l 1,134,-1
 359 700 l 1,135,-1
 360 691 l 1,136,-1
 402 691 l 1,137,-1
 404 683 l 1,138,-1
 439 683 l 1,139,-1
 458 572 l 1,140,-1
 441 572 l 1,141,-1
 440 580 l 1,142,-1
 414 580 l 1,143,-1
 412 589 l 1,144,-1
 378 589 l 1,145,-1
 377 598 l 1,146,-1
 240 598 l 1,147,-1
 241 589 l 1,148,-1
 216 589 l 1,149,-1
 218 580 l 1,150,-1
 200 580 l 1,151,-1
 201 572 l 1,152,-1
 184 572 l 1,153,-1
 186 563 l 1,154,-1
 178 563 l 1,155,-1
 179 555 l 1,156,-1
 170 555 l 1,157,-1
 172 546 l 1,158,-1
 164 546 l 1,159,-1
 165 538 l 1,160,-1
 156 538 l 1,161,-1
 159 521 l 1,162,-1
 151 521 l 1,163,-1
 153 512 l 1,164,-1
 144 512 l 1,165,-1
 147 495 l 1,166,-1
 139 495 l 1,167,-1
 143 470 l 1,168,-1
 134 470 l 1,169,-1
 140 435 l 1,170,-1
 132 435 l 1,171,-1
 141 384 l 1,172,-1
 149 384 l 1,173,-1
 148 393 l 1,174,-1
 165 393 l 1,175,-1
 163 401 l 1,176,-1
 180 401 l 1,177,-1
 179 410 l 1,178,-1
 196 410 l 1,179,-1
 194 418 l 1,180,-1
 211 418 l 1,181,-1
 210 427 l 1,182,-1
 236 427 l 1,183,-1
 234 435 l 1,184,-1
 268 435 l 1,185,-1
 267 444 l 1,0,-1
371 94 m 1,186,-1
 370 102 l 1,187,-1
 404 102 l 1,188,-1
 402 111 l 1,189,-1
 419 111 l 1,190,-1
 418 120 l 1,191,-1
 427 120 l 1,192,-1
 425 128 l 1,193,-1
 433 128 l 1,194,-1
 432 137 l 1,195,-1
 441 137 l 1,196,-1
 438 154 l 1,197,-1
 446 154 l 1,198,-1
 443 171 l 1,199,-1
 452 171 l 1,200,-1
 434 273 l 1,201,-1
 425 273 l 1,202,-1
 422 290 l 1,203,-1
 414 290 l 1,204,-1
 411 307 l 1,205,-1
 402 307 l 1,206,-1
 400 316 l 1,207,-1
 392 316 l 1,208,-1
 391 324 l 1,209,-1
 374 324 l 1,210,-1
 372 333 l 1,211,-1
 354 333 l 1,212,-1
 353 341 l 1,213,-1
 328 341 l 1,214,-1
 326 350 l 1,215,-1
 232 350 l 1,216,-1
 234 341 l 1,217,-1
 208 341 l 1,218,-1
 209 333 l 1,219,-1
 184 333 l 1,220,-1
 186 324 l 1,221,-1
 169 324 l 1,222,-1
 170 316 l 1,223,-1
 153 316 l 1,224,-1
 173 205 l 1,225,-1
 181 205 l 1,226,-1
 185 179 l 1,227,-1
 194 179 l 1,228,-1
 197 162 l 1,229,-1
 205 162 l 1,230,-1
 208 145 l 1,231,-1
 217 145 l 1,232,-1
 219 137 l 1,233,-1
 227 137 l 1,234,-1
 228 128 l 1,235,-1
 237 128 l 1,236,-1
 239 120 l 1,237,-1
 247 120 l 1,238,-1
 248 111 l 1,239,-1
 265 111 l 1,240,-1
 267 102 l 1,241,-1
 293 102 l 1,242,-1
 294 94 l 1,243,-1
 371 94 l 1,186,-1
EndSplineSet
EndChar

StartChar: seven
Encoding: 55 55 27
Width: 692
GlyphClass: 1
Flags: W
LayerCount: 2
Fore
SplineSet
448 700 m 1,0,-1
 465 700 l 1,1,-1
 480 612 l 1,2,-1
 472 612 l 1,3,-1
 473 604 l 1,4,-1
 464 604 l 1,5,-1
 469 578 l 1,6,-1
 460 578 l 1,7,-1
 463 560 l 1,8,-1
 454 560 l 1,9,-1
 457 542 l 1,10,-1
 448 542 l 1,11,-1
 451 525 l 1,12,-1
 443 525 l 1,13,-1
 446 508 l 1,14,-1
 437 508 l 1,15,-1
 441 490 l 1,16,-1
 432 490 l 1,17,-1
 435 472 l 1,18,-1
 427 472 l 1,19,-1
 431 446 l 1,20,-1
 422 446 l 1,21,-1
 425 429 l 1,22,-1
 416 429 l 1,23,-1
 420 411 l 1,24,-1
 411 411 l 1,25,-1
 414 394 l 1,26,-1
 405 394 l 1,27,-1
 408 376 l 1,28,-1
 400 376 l 1,29,-1
 403 359 l 1,30,-1
 394 359 l 1,31,-1
 397 341 l 1,32,-1
 388 341 l 1,33,-1
 392 315 l 1,34,-1
 384 315 l 1,35,-1
 387 298 l 1,36,-1
 378 298 l 1,37,-1
 382 280 l 1,38,-1
 373 280 l 1,39,-1
 376 262 l 1,40,-1
 367 262 l 1,41,-1
 370 245 l 1,42,-1
 361 245 l 1,43,-1
 364 228 l 1,44,-1
 356 228 l 1,45,-1
 359 210 l 1,46,-1
 350 210 l 1,47,-1
 353 192 l 1,48,-1
 344 192 l 1,49,-1
 349 166 l 1,50,-1
 341 166 l 1,51,-1
 344 149 l 1,52,-1
 335 149 l 1,53,-1
 338 131 l 1,54,-1
 329 131 l 1,55,-1
 332 114 l 1,56,-1
 323 114 l 1,57,-1
 326 96 l 1,58,-1
 317 96 l 1,59,-1
 320 79 l 1,60,-1
 312 79 l 1,61,-1
 315 61 l 1,62,-1
 306 61 l 1,63,-1
 311 35 l 1,64,-1
 302 35 l 1,65,-1
 305 18 l 1,66,-1
 297 18 l 1,67,-1
 298 9 l 1,68,-1
 289 9 l 1,69,-1
 291 0 l 1,70,-1
 160 0 l 1,71,-1
 157 18 l 1,72,-1
 165 18 l 1,73,-1
 162 35 l 1,74,-1
 171 35 l 1,75,-1
 166 61 l 1,76,-1
 175 61 l 1,77,-1
 172 79 l 1,78,-1
 180 79 l 1,79,-1
 177 96 l 1,80,-1
 186 96 l 1,81,-1
 183 114 l 1,82,-1
 192 114 l 1,83,-1
 189 131 l 1,84,-1
 198 131 l 1,85,-1
 193 158 l 1,86,-1
 202 158 l 1,87,-1
 199 175 l 1,88,-1
 207 175 l 1,89,-1
 204 192 l 1,90,-1
 213 192 l 1,91,-1
 210 210 l 1,92,-1
 219 210 l 1,93,-1
 216 228 l 1,94,-1
 224 228 l 1,95,-1
 221 245 l 1,96,-1
 230 245 l 1,97,-1
 227 262 l 1,98,-1
 236 262 l 1,99,-1
 233 280 l 1,100,-1
 242 280 l 1,101,-1
 237 306 l 1,102,-1
 246 306 l 1,103,-1
 243 324 l 1,104,-1
 251 324 l 1,105,-1
 248 341 l 1,106,-1
 257 341 l 1,107,-1
 254 359 l 1,108,-1
 263 359 l 1,109,-1
 260 376 l 1,110,-1
 268 376 l 1,111,-1
 265 394 l 1,112,-1
 274 394 l 1,113,-1
 271 411 l 1,114,-1
 280 411 l 1,115,-1
 275 438 l 1,116,-1
 284 438 l 1,117,-1
 281 455 l 1,118,-1
 290 455 l 1,119,-1
 287 472 l 1,120,-1
 295 472 l 1,121,-1
 292 490 l 1,122,-1
 301 490 l 1,123,-1
 297 508 l 1,124,-1
 306 508 l 1,125,-1
 303 525 l 1,126,-1
 311 525 l 1,127,-1
 308 542 l 1,128,-1
 317 542 l 1,129,-1
 314 560 l 1,130,-1
 323 560 l 1,131,-1
 319 586 l 1,132,-1
 328 586 l 1,133,-1
 326 595 l 1,134,-1
 -15 595 l 1,135,-1
 -13 586 l 1,136,-1
 -22 586 l 1,137,-1
 -24 595 l 1,138,-1
 -33 595 l 1,139,-1
 -45 665 l 1,140,-1
 -36 665 l 1,141,-1
 -38 674 l 1,142,-1
 -47 674 l 1,143,-1
 -50 691 l 1,144,-1
 -41 691 l 1,145,-1
 -42 700 l 1,146,-1
 439 700 l 1,147,-1
 440 691 l 1,148,-1
 449 691 l 1,149,-1
 448 700 l 1,0,-1
EndSplineSet
EndChar

StartChar: eight
Encoding: 56 56 28
Width: 722
GlyphClass: 1
Flags: W
LayerCount: 2
Fore
SplineSet
162 700 m 1,0,-1
 273 700 l 1,1,-1
 274 691 l 1,2,-1
 326 691 l 1,3,-1
 328 683 l 1,4,-1
 353 683 l 1,5,-1
 354 674 l 1,6,-1
 380 674 l 1,7,-1
 382 666 l 1,8,-1
 399 666 l 1,9,-1
 400 657 l 1,10,-1
 408 657 l 1,11,-1
 410 649 l 1,12,-1
 428 649 l 1,13,-1
 429 640 l 1,14,-1
 437 640 l 1,15,-1
 439 632 l 1,16,-1
 448 632 l 1,17,-1
 449 623 l 1,18,-1
 457 623 l 1,19,-1
 460 606 l 1,20,-1
 469 606 l 1,21,-1
 472 589 l 1,22,-1
 480 589 l 1,23,-1
 485 563 l 1,24,-1
 494 563 l 1,25,-1
 510 470 l 1,26,-1
 501 470 l 1,27,-1
 506 444 l 1,28,-1
 498 444 l 1,29,-1
 501 427 l 1,30,-1
 492 427 l 1,31,-1
 493 418 l 1,32,-1
 485 418 l 1,33,-1
 487 410 l 1,34,-1
 478 410 l 1,35,-1
 479 401 l 1,36,-1
 471 401 l 1,37,-1
 473 393 l 1,38,-1
 464 393 l 1,39,-1
 465 384 l 1,40,-1
 456 384 l 1,41,-1
 458 376 l 1,42,-1
 441 376 l 1,43,-1
 444 359 l 1,44,-1
 461 359 l 1,45,-1
 462 350 l 1,46,-1
 480 350 l 1,47,-1
 482 341 l 1,48,-1
 490 341 l 1,49,-1
 491 333 l 1,50,-1
 508 333 l 1,51,-1
 510 324 l 1,52,-1
 519 324 l 1,53,-1
 520 316 l 1,54,-1
 528 316 l 1,55,-1
 530 307 l 1,56,-1
 539 307 l 1,57,-1
 542 290 l 1,58,-1
 550 290 l 1,59,-1
 553 273 l 1,60,-1
 562 273 l 1,61,-1
 566 248 l 1,62,-1
 574 248 l 1,63,-1
 592 145 l 1,64,-1
 584 145 l 1,65,-1
 589 120 l 1,66,-1
 580 120 l 1,67,-1
 583 102 l 1,68,-1
 575 102 l 1,69,-1
 576 94 l 1,70,-1
 567 94 l 1,71,-1
 570 77 l 1,72,-1
 562 77 l 1,73,-1
 564 68 l 1,74,-1
 555 68 l 1,75,-1
 556 60 l 1,76,-1
 548 60 l 1,77,-1
 550 51 l 1,78,-1
 533 51 l 1,79,-1
 534 43 l 1,80,-1
 525 43 l 1,81,-1
 527 34 l 1,82,-1
 510 34 l 1,83,-1
 511 26 l 1,84,-1
 494 26 l 1,85,-1
 496 17 l 1,86,-1
 470 17 l 1,87,-1
 471 9 l 1,88,-1
 437 9 l 1,89,-1
 439 0 l 1,90,-1
 260 0 l 1,91,-1
 258 9 l 1,92,-1
 224 9 l 1,93,-1
 223 17 l 1,94,-1
 197 17 l 1,95,-1
 195 26 l 1,96,-1
 178 26 l 1,97,-1
 177 34 l 1,98,-1
 160 34 l 1,99,-1
 158 43 l 1,100,-1
 141 43 l 1,101,-1
 140 51 l 1,102,-1
 131 51 l 1,103,-1
 129 60 l 1,104,-1
 121 60 l 1,105,-1
 120 68 l 1,106,-1
 111 68 l 1,107,-1
 109 77 l 1,108,-1
 101 77 l 1,109,-1
 100 85 l 1,110,-1
 91 85 l 1,111,-1
 89 94 l 1,112,-1
 81 94 l 1,113,-1
 78 111 l 1,114,-1
 69 111 l 1,115,-1
 66 128 l 1,116,-1
 58 128 l 1,117,-1
 54 154 l 1,118,-1
 45 154 l 1,119,-1
 30 239 l 1,120,-1
 39 239 l 1,121,-1
 34 265 l 1,122,-1
 42 265 l 1,123,-1
 39 282 l 1,124,-1
 48 282 l 1,125,-1
 47 290 l 1,126,-1
 55 290 l 1,127,-1
 52 307 l 1,128,-1
 61 307 l 1,129,-1
 59 316 l 1,130,-1
 67 316 l 1,131,-1
 66 324 l 1,132,-1
 75 324 l 1,133,-1
 73 333 l 1,134,-1
 90 333 l 1,135,-1
 89 341 l 1,136,-1
 97 341 l 1,137,-1
 95 350 l 1,138,-1
 112 350 l 1,139,-1
 111 359 l 1,140,-1
 129 359 l 1,141,-1
 127 367 l 1,142,-1
 118 367 l 1,143,-1
 117 376 l 1,144,-1
 100 376 l 1,145,-1
 98 384 l 1,146,-1
 89 384 l 1,147,-1
 88 393 l 1,148,-1
 80 393 l 1,149,-1
 78 401 l 1,150,-1
 69 401 l 1,151,-1
 68 410 l 1,152,-1
 60 410 l 1,153,-1
 58 418 l 1,154,-1
 49 418 l 1,155,-1
 46 435 l 1,156,-1
 38 435 l 1,157,-1
 35 452 l 1,158,-1
 26 452 l 1,159,-1
 22 478 l 1,160,-1
 14 478 l 1,161,-1
 2 546 l 1,162,-1
 10 546 l 1,163,-1
 4 580 l 1,164,-1
 13 580 l 1,165,-1
 10 598 l 1,166,-1
 18 598 l 1,167,-1
 16 606 l 1,168,-1
 25 606 l 1,169,-1
 22 623 l 1,170,-1
 30 623 l 1,171,-1
 29 632 l 1,172,-1
 38 632 l 1,173,-1
 36 640 l 1,174,-1
 44 640 l 1,175,-1
 43 649 l 1,176,-1
 52 649 l 1,177,-1
 50 657 l 1,178,-1
 67 657 l 1,179,-1
 66 666 l 1,180,-1
 83 666 l 1,181,-1
 81 674 l 1,182,-1
 98 674 l 1,183,-1
 97 683 l 1,184,-1
 123 683 l 1,185,-1
 121 691 l 1,186,-1
 163 691 l 1,187,-1
 162 700 l 1,0,-1
388 94 m 1,188,-1
 387 102 l 1,189,-1
 413 102 l 1,190,-1
 411 111 l 1,191,-1
 428 111 l 1,192,-1
 427 120 l 1,193,-1
 435 120 l 1,194,-1
 433 128 l 1,195,-1
 442 128 l 1,196,-1
 441 137 l 1,197,-1
 449 137 l 1,198,-1
 447 145 l 1,199,-1
 456 145 l 1,200,-1
 452 171 l 1,201,-1
 460 171 l 1,202,-1
 448 239 l 1,203,-1
 440 239 l 1,204,-1
 437 256 l 1,205,-1
 428 256 l 1,206,-1
 425 273 l 1,207,-1
 417 273 l 1,208,-1
 415 282 l 1,209,-1
 406 282 l 1,210,-1
 405 290 l 1,211,-1
 388 290 l 1,212,-1
 386 299 l 1,213,-1
 369 299 l 1,214,-1
 368 307 l 1,215,-1
 334 307 l 1,216,-1
 332 316 l 1,217,-1
 246 316 l 1,218,-1
 248 307 l 1,219,-1
 214 307 l 1,220,-1
 215 299 l 1,221,-1
 198 299 l 1,222,-1
 200 290 l 1,223,-1
 183 290 l 1,224,-1
 184 282 l 1,225,-1
 176 282 l 1,226,-1
 178 273 l 1,227,-1
 169 273 l 1,228,-1
 172 256 l 1,229,-1
 164 256 l 1,230,-1
 167 239 l 1,231,-1
 158 239 l 1,232,-1
 170 171 l 1,233,-1
 179 171 l 1,234,-1
 183 145 l 1,235,-1
 191 145 l 1,236,-1
 193 137 l 1,237,-1
 202 137 l 1,238,-1
 203 128 l 1,239,-1
 211 128 l 1,240,-1
 213 120 l 1,241,-1
 222 120 l 1,242,-1
 223 111 l 1,243,-1
 240 111 l 1,244,-1
 242 102 l 1,245,-1
 259 102 l 1,246,-1
 260 94 l 1,247,-1
 388 94 l 1,188,-1
325 401 m 1,248,-1
 324 410 l 1,249,-1
 350 410 l 1,250,-1
 348 418 l 1,251,-1
 365 418 l 1,252,-1
 364 427 l 1,253,-1
 373 427 l 1,254,-1
 371 435 l 1,255,-1
 379 435 l 1,256,-1
 378 444 l 1,257,-1
 387 444 l 1,258,-1
 382 470 l 1,259,-1
 390 470 l 1,260,-1
 380 529 l 1,261,-1
 372 529 l 1,262,-1
 369 546 l 1,263,-1
 360 546 l 1,264,-1
 357 563 l 1,265,-1
 349 563 l 1,266,-1
 347 572 l 1,267,-1
 338 572 l 1,268,-1
 337 580 l 1,269,-1
 329 580 l 1,270,-1
 327 589 l 1,271,-1
 309 589 l 1,272,-1
 308 598 l 1,273,-1
 283 598 l 1,274,-1
 281 606 l 1,275,-1
 213 606 l 1,276,-1
 215 598 l 1,277,-1
 180 598 l 1,278,-1
 181 589 l 1,279,-1
 164 589 l 1,280,-1
 166 580 l 1,281,-1
 149 580 l 1,282,-1
 150 572 l 1,283,-1
 142 572 l 1,284,-1
 145 555 l 1,285,-1
 136 555 l 1,286,-1
 139 538 l 1,287,-1
 131 538 l 1,288,-1
 146 452 l 1,289,-1
 154 452 l 1,290,-1
 156 444 l 1,291,-1
 165 444 l 1,292,-1
 166 435 l 1,293,-1
 174 435 l 1,294,-1
 176 427 l 1,295,-1
 185 427 l 1,296,-1
 186 418 l 1,297,-1
 203 418 l 1,298,-1
 205 410 l 1,299,-1
 230 410 l 1,300,-1
 231 401 l 1,301,-1
 325 401 l 1,248,-1
EndSplineSet
EndChar

StartChar: nine
Encoding: 57 57 29
Width: 722
GlyphClass: 1
Flags: W
LayerCount: 2
Fore
SplineSet
91 137 m 1,0,-1
 99 137 l 1,1,-1
 100 128 l 1,2,-1
 117 128 l 1,3,-1
 119 120 l 1,4,-1
 136 120 l 1,5,-1
 137 111 l 1,6,-1
 163 111 l 1,7,-1
 165 102 l 1,8,-1
 208 102 l 1,9,-1
 209 94 l 1,10,-1
 303 94 l 1,11,-1
 302 102 l 1,12,-1
 344 102 l 1,13,-1
 342 111 l 1,14,-1
 368 111 l 1,15,-1
 367 120 l 1,16,-1
 384 120 l 1,17,-1
 382 128 l 1,18,-1
 399 128 l 1,19,-1
 398 137 l 1,20,-1
 407 137 l 1,21,-1
 405 145 l 1,22,-1
 413 145 l 1,23,-1
 412 154 l 1,24,-1
 421 154 l 1,25,-1
 418 171 l 1,26,-1
 426 171 l 1,27,-1
 424 179 l 1,28,-1
 433 179 l 1,29,-1
 429 205 l 1,30,-1
 437 205 l 1,31,-1
 431 239 l 1,32,-1
 440 239 l 1,33,-1
 431 290 l 1,34,-1
 414 290 l 1,35,-1
 415 282 l 1,36,-1
 406 282 l 1,37,-1
 408 273 l 1,38,-1
 383 273 l 1,39,-1
 384 265 l 1,40,-1
 349 265 l 1,41,-1
 351 256 l 1,42,-1
 309 256 l 1,43,-1
 310 248 l 1,44,-1
 233 248 l 1,45,-1
 232 256 l 1,46,-1
 189 256 l 1,47,-1
 187 265 l 1,48,-1
 162 265 l 1,49,-1
 161 273 l 1,50,-1
 144 273 l 1,51,-1
 142 282 l 1,52,-1
 124 282 l 1,53,-1
 123 290 l 1,54,-1
 106 290 l 1,55,-1
 104 299 l 1,56,-1
 96 299 l 1,57,-1
 95 307 l 1,58,-1
 86 307 l 1,59,-1
 84 316 l 1,60,-1
 76 316 l 1,61,-1
 75 324 l 1,62,-1
 66 324 l 1,63,-1
 64 333 l 1,64,-1
 56 333 l 1,65,-1
 55 341 l 1,66,-1
 46 341 l 1,67,-1
 43 359 l 1,68,-1
 35 359 l 1,69,-1
 33 367 l 1,70,-1
 24 367 l 1,71,-1
 20 393 l 1,72,-1
 12 393 l 1,73,-1
 6 427 l 1,74,-1
 -3 427 l 1,75,-1
 -20 521 l 1,76,-1
 -11 521 l 1,77,-1
 -17 555 l 1,78,-1
 -9 555 l 1,79,-1
 -12 572 l 1,80,-1
 -3 572 l 1,81,-1
 -6 589 l 1,82,-1
 2 589 l 1,83,-1
 1 598 l 1,84,-1
 10 598 l 1,85,-1
 7 615 l 1,86,-1
 15 615 l 1,87,-1
 13 623 l 1,88,-1
 22 623 l 1,89,-1
 21 632 l 1,90,-1
 29 632 l 1,91,-1
 27 640 l 1,92,-1
 36 640 l 1,93,-1
 35 649 l 1,94,-1
 52 649 l 1,95,-1
 50 657 l 1,96,-1
 58 657 l 1,97,-1
 57 666 l 1,98,-1
 75 666 l 1,99,-1
 73 674 l 1,100,-1
 98 674 l 1,101,-1
 97 683 l 1,102,-1
 123 683 l 1,103,-1
 121 691 l 1,104,-1
 163 691 l 1,105,-1
 162 700 l 1,106,-1
 265 700 l 1,107,-1
 266 691 l 1,108,-1
 309 691 l 1,109,-1
 311 683 l 1,110,-1
 336 683 l 1,111,-1
 337 674 l 1,112,-1
 363 674 l 1,113,-1
 365 666 l 1,114,-1
 373 666 l 1,115,-1
 374 657 l 1,116,-1
 391 657 l 1,117,-1
 393 649 l 1,118,-1
 402 649 l 1,119,-1
 403 640 l 1,120,-1
 411 640 l 1,121,-1
 413 632 l 1,122,-1
 422 632 l 1,123,-1
 423 623 l 1,124,-1
 432 623 l 1,125,-1
 434 615 l 1,126,-1
 442 615 l 1,127,-1
 443 606 l 1,128,-1
 452 606 l 1,129,-1
 454 598 l 1,130,-1
 462 598 l 1,131,-1
 465 580 l 1,132,-1
 474 580 l 1,133,-1
 477 563 l 1,134,-1
 485 563 l 1,135,-1
 488 546 l 1,136,-1
 497 546 l 1,137,-1
 500 529 l 1,138,-1
 508 529 l 1,139,-1
 514 495 l 1,140,-1
 523 495 l 1,141,-1
 532 444 l 1,142,-1
 540 444 l 1,143,-1
 567 290 l 1,144,-1
 559 290 l 1,145,-1
 568 239 l 1,146,-1
 559 239 l 1,147,-1
 565 205 l 1,148,-1
 557 205 l 1,149,-1
 561 179 l 1,150,-1
 552 179 l 1,151,-1
 555 162 l 1,152,-1
 547 162 l 1,153,-1
 550 145 l 1,154,-1
 541 145 l 1,155,-1
 544 128 l 1,156,-1
 536 128 l 1,157,-1
 538 120 l 1,158,-1
 529 120 l 1,159,-1
 532 102 l 1,160,-1
 524 102 l 1,161,-1
 525 94 l 1,162,-1
 516 94 l 1,163,-1
 518 85 l 1,164,-1
 509 85 l 1,165,-1
 510 77 l 1,166,-1
 502 77 l 1,167,-1
 504 68 l 1,168,-1
 495 68 l 1,169,-1
 496 60 l 1,170,-1
 488 60 l 1,171,-1
 490 51 l 1,172,-1
 473 51 l 1,173,-1
 474 43 l 1,174,-1
 465 43 l 1,175,-1
 467 34 l 1,176,-1
 450 34 l 1,177,-1
 451 26 l 1,178,-1
 426 26 l 1,179,-1
 428 17 l 1,180,-1
 410 17 l 1,181,-1
 411 9 l 1,182,-1
 369 9 l 1,183,-1
 371 0 l 1,184,-1
 209 0 l 1,185,-1
 207 9 l 1,186,-1
 155 9 l 1,187,-1
 154 17 l 1,188,-1
 129 17 l 1,189,-1
 127 26 l 1,190,-1
 110 26 l 1,191,-1
 94 120 l 1,192,-1
 85 120 l 1,193,-1
 83 128 l 1,194,-1
 92 128 l 1,195,-1
 91 137 l 1,0,-1
343 350 m 1,196,-1
 342 359 l 1,197,-1
 368 359 l 1,198,-1
 366 367 l 1,199,-1
 391 367 l 1,200,-1
 390 376 l 1,201,-1
 407 376 l 1,202,-1
 405 384 l 1,203,-1
 414 384 l 1,204,-1
 396 487 l 1,205,-1
 387 487 l 1,206,-1
 383 512 l 1,207,-1
 375 512 l 1,208,-1
 370 538 l 1,209,-1
 361 538 l 1,210,-1
 360 546 l 1,211,-1
 352 546 l 1,212,-1
 349 563 l 1,213,-1
 340 563 l 1,214,-1
 338 572 l 1,215,-1
 330 572 l 1,216,-1
 329 580 l 1,217,-1
 311 580 l 1,218,-1
 309 589 l 1,219,-1
 292 589 l 1,220,-1
 291 598 l 1,221,-1
 266 598 l 1,222,-1
 264 606 l 1,223,-1
 195 606 l 1,224,-1
 197 598 l 1,225,-1
 172 598 l 1,226,-1
 173 589 l 1,227,-1
 156 589 l 1,228,-1
 158 580 l 1,229,-1
 141 580 l 1,230,-1
 142 572 l 1,231,-1
 133 572 l 1,232,-1
 135 563 l 1,233,-1
 127 563 l 1,234,-1
 130 546 l 1,235,-1
 121 546 l 1,236,-1
 124 529 l 1,237,-1
 116 529 l 1,238,-1
 122 495 l 1,239,-1
 113 495 l 1,240,-1
 119 461 l 1,241,-1
 128 461 l 1,242,-1
 135 418 l 1,243,-1
 143 418 l 1,244,-1
 146 401 l 1,245,-1
 155 401 l 1,246,-1
 157 393 l 1,247,-1
 165 393 l 1,248,-1
 166 384 l 1,249,-1
 175 384 l 1,250,-1
 177 376 l 1,251,-1
 185 376 l 1,252,-1
 186 367 l 1,253,-1
 203 367 l 1,254,-1
 205 359 l 1,255,-1
 231 359 l 1,256,-1
 232 350 l 1,257,-1
 343 350 l 1,196,-1
EndSplineSet
EndChar

StartChar: colon
Encoding: 58 58 30
Width: 664
GlyphClass: 1
Flags: W
LayerCount: 2
Fore
SplineSet
284 256 m 1,0,-1
 346 256 l 1,1,-1
 347 247 l 1,2,-1
 364 247 l 1,3,-1
 366 238 l 1,4,-1
 375 238 l 1,5,-1
 376 230 l 1,6,-1
 385 230 l 1,7,-1
 387 221 l 1,8,-1
 395 221 l 1,9,-1
 406 160 l 1,10,-1
 398 160 l 1,11,-1
 401 142 l 1,12,-1
 392 142 l 1,13,-1
 393 134 l 1,14,-1
 384 134 l 1,15,-1
 386 125 l 1,16,-1
 377 125 l 1,17,-1
 379 116 l 1,18,-1
 301 116 l 1,19,-1
 299 125 l 1,20,-1
 290 125 l 1,21,-1
 288 134 l 1,22,-1
 279 134 l 1,23,-1
 278 142 l 1,24,-1
 269 142 l 1,25,-1
 267 151 l 1,26,-1
 259 151 l 1,27,-1
 249 212 l 1,28,-1
 257 212 l 1,29,-1
 253 230 l 1,30,-1
 262 230 l 1,31,-1
 261 238 l 1,32,-1
 270 238 l 1,33,-1
 268 247 l 1,34,-1
 285 247 l 1,35,-1
 284 256 l 1,0,-1
236 529 m 1,36,-1
 298 529 l 1,37,-1
 299 520 l 1,38,-1
 316 520 l 1,39,-1
 318 511 l 1,40,-1
 327 511 l 1,41,-1
 328 503 l 1,42,-1
 337 503 l 1,43,-1
 339 494 l 1,44,-1
 347 494 l 1,45,-1
 358 433 l 1,46,-1
 350 433 l 1,47,-1
 353 415 l 1,48,-1
 344 415 l 1,49,-1
 345 407 l 1,50,-1
 336 407 l 1,51,-1
 338 398 l 1,52,-1
 329 398 l 1,53,-1
 330 389 l 1,54,-1
 252 389 l 1,55,-1
 251 398 l 1,56,-1
 242 398 l 1,57,-1
 240 407 l 1,58,-1
 231 407 l 1,59,-1
 230 415 l 1,60,-1
 221 415 l 1,61,-1
 219 424 l 1,62,-1
 211 424 l 1,63,-1
 200 485 l 1,64,-1
 208 485 l 1,65,-1
 205 503 l 1,66,-1
 214 503 l 1,67,-1
 213 511 l 1,68,-1
 222 511 l 1,69,-1
 220 520 l 1,70,-1
 237 520 l 1,71,-1
 236 529 l 1,36,-1
EndSplineSet
EndChar

StartChar: semicolon
Encoding: 59 59 31
Width: 664
GlyphClass: 1
Flags: W
LayerCount: 2
Fore
SplineSet
241 498 m 1,0,-1
 303 498 l 1,1,-1
 305 489 l 1,2,-1
 322 489 l 1,3,-1
 323 480 l 1,4,-1
 332 480 l 1,5,-1
 334 472 l 1,6,-1
 343 472 l 1,7,-1
 344 463 l 1,8,-1
 352 463 l 1,9,-1
 363 402 l 1,10,-1
 355 402 l 1,11,-1
 358 384 l 1,12,-1
 349 384 l 1,13,-1
 351 376 l 1,14,-1
 342 376 l 1,15,-1
 343 367 l 1,16,-1
 334 367 l 1,17,-1
 336 358 l 1,18,-1
 258 358 l 1,19,-1
 256 367 l 1,20,-1
 247 367 l 1,21,-1
 246 376 l 1,22,-1
 237 376 l 1,23,-1
 235 384 l 1,24,-1
 226 384 l 1,25,-1
 225 393 l 1,26,-1
 217 393 l 1,27,-1
 206 454 l 1,28,-1
 214 454 l 1,29,-1
 211 472 l 1,30,-1
 220 472 l 1,31,-1
 218 480 l 1,32,-1
 227 480 l 1,33,-1
 226 489 l 1,34,-1
 243 489 l 1,35,-1
 241 498 l 1,0,-1
270 289 m 1,36,-1
 338 289 l 1,37,-1
 340 279 l 1,38,-1
 359 279 l 1,39,-1
 360 270 l 1,40,-1
 370 270 l 1,41,-1
 372 260 l 1,42,-1
 381 260 l 1,43,-1
 385 241 l 1,44,-1
 395 241 l 1,45,-1
 415 125 l 1,46,-1
 405 125 l 1,47,-1
 410 96 l 1,48,-1
 401 96 l 1,49,-1
 404 77 l 1,50,-1
 394 77 l 1,51,-1
 396 67 l 1,52,-1
 387 67 l 1,53,-1
 391 48 l 1,54,-1
 381 48 l 1,55,-1
 382 38 l 1,56,-1
 362 38 l 1,57,-1
 364 28 l 1,58,-1
 355 28 l 1,59,-1
 357 19 l 1,60,-1
 338 19 l 1,61,-1
 339 9 l 1,62,-1
 281 9 l 1,63,-1
 280 19 l 1,64,-1
 299 19 l 1,65,-1
 297 28 l 1,66,-1
 307 28 l 1,67,-1
 305 38 l 1,68,-1
 314 38 l 1,69,-1
 313 48 l 1,70,-1
 323 48 l 1,71,-1
 319 67 l 1,72,-1
 329 67 l 1,73,-1
 326 86 l 1,74,-1
 335 86 l 1,75,-1
 326 135 l 1,76,-1
 317 135 l 1,77,-1
 316 144 l 1,78,-1
 287 144 l 1,79,-1
 285 154 l 1,80,-1
 275 154 l 1,81,-1
 273 163 l 1,82,-1
 263 163 l 1,83,-1
 261 173 l 1,84,-1
 252 173 l 1,85,-1
 249 193 l 1,86,-1
 239 193 l 1,87,-1
 229 250 l 1,88,-1
 239 250 l 1,89,-1
 237 260 l 1,90,-1
 246 260 l 1,91,-1
 244 270 l 1,92,-1
 254 270 l 1,93,-1
 253 279 l 1,94,-1
 272 279 l 1,95,-1
 270 289 l 1,36,-1
EndSplineSet
EndChar

StartChar: equal
Encoding: 61 61 32
Width: 1189
GlyphClass: 1
Flags: W
LayerCount: 2
Fore
SplineSet
817 253 m 1,0,-1
 913 253 l 1,1,-1
 942 88 l 1,2,-1
 183 88 l 1,3,-1
 154 253 l 1,4,-1
 734 253 l 1,5,-1
 737 240 l 1,6,-1
 820 240 l 1,7,-1
 817 253 l 1,0,-1
91 612 m 1,8,-1
 850 612 l 1,9,-1
 879 447 l 1,10,-1
 603 447 l 1,11,-1
 601 460 l 1,12,-1
 574 460 l 1,13,-1
 576 447 l 1,14,-1
 548 447 l 1,15,-1
 546 460 l 1,16,-1
 518 460 l 1,17,-1
 520 447 l 1,18,-1
 507 447 l 1,19,-1
 505 460 l 1,20,-1
 228 460 l 1,21,-1
 230 447 l 1,22,-1
 120 447 l 1,23,-1
 91 612 l 1,8,-1
EndSplineSet
EndChar

StartChar: question
Encoding: 63 63 33
Width: 597
GlyphClass: 1
Flags: W
LayerCount: 2
Fore
SplineSet
192 181 m 1,0,-1
 242 181 l 1,1,-1
 243 173 l 1,2,-1
 260 173 l 1,3,-1
 262 164 l 1,4,-1
 271 164 l 1,5,-1
 272 156 l 1,6,-1
 280 156 l 1,7,-1
 282 147 l 1,8,-1
 291 147 l 1,9,-1
 297 113 l 1,10,-1
 305 113 l 1,11,-1
 306 105 l 1,12,-1
 298 105 l 1,13,-1
 304 71 l 1,14,-1
 295 71 l 1,15,-1
 297 63 l 1,16,-1
 289 63 l 1,17,-1
 290 54 l 1,18,-1
 273 54 l 1,19,-1
 275 46 l 1,20,-1
 199 46 l 1,21,-1
 197 54 l 1,22,-1
 189 54 l 1,23,-1
 188 63 l 1,24,-1
 179 63 l 1,25,-1
 177 71 l 1,26,-1
 169 71 l 1,27,-1
 165 97 l 1,28,-1
 156 97 l 1,29,-1
 150 130 l 1,30,-1
 159 130 l 1,31,-1
 156 147 l 1,32,-1
 164 147 l 1,33,-1
 161 164 l 1,34,-1
 178 164 l 1,35,-1
 176 173 l 1,36,-1
 193 173 l 1,37,-1
 192 181 l 1,0,-1
67 746 m 1,38,-1
 193 746 l 1,39,-1
 195 738 l 1,40,-1
 237 738 l 1,41,-1
 238 729 l 1,42,-1
 263 729 l 1,43,-1
 265 721 l 1,44,-1
 291 721 l 1,45,-1
 292 712 l 1,46,-1
 300 712 l 1,47,-1
 302 704 l 1,48,-1
 319 704 l 1,49,-1
 320 695 l 1,50,-1
 329 695 l 1,51,-1
 331 687 l 1,52,-1
 339 687 l 1,53,-1
 340 679 l 1,54,-1
 348 679 l 1,55,-1
 351 662 l 1,56,-1
 360 662 l 1,57,-1
 363 645 l 1,58,-1
 371 645 l 1,59,-1
 376 619 l 1,60,-1
 385 619 l 1,61,-1
 400 535 l 1,62,-1
 391 535 l 1,63,-1
 395 510 l 1,64,-1
 387 510 l 1,65,-1
 390 493 l 1,66,-1
 381 493 l 1,67,-1
 382 485 l 1,68,-1
 374 485 l 1,69,-1
 376 476 l 1,70,-1
 368 476 l 1,71,-1
 371 459 l 1,72,-1
 362 459 l 1,73,-1
 363 451 l 1,74,-1
 355 451 l 1,75,-1
 357 442 l 1,76,-1
 348 442 l 1,77,-1
 349 434 l 1,78,-1
 332 434 l 1,79,-1
 334 426 l 1,80,-1
 326 426 l 1,81,-1
 327 417 l 1,82,-1
 318 417 l 1,83,-1
 320 409 l 1,84,-1
 312 409 l 1,85,-1
 313 400 l 1,86,-1
 296 400 l 1,87,-1
 298 392 l 1,88,-1
 290 392 l 1,89,-1
 291 383 l 1,90,-1
 282 383 l 1,91,-1
 284 375 l 1,92,-1
 276 375 l 1,93,-1
 277 366 l 1,94,-1
 268 366 l 1,95,-1
 270 358 l 1,96,-1
 262 358 l 1,97,-1
 263 350 l 1,98,-1
 255 350 l 1,99,-1
 257 341 l 1,100,-1
 248 341 l 1,101,-1
 251 324 l 1,102,-1
 243 324 l 1,103,-1
 246 307 l 1,104,-1
 237 307 l 1,105,-1
 246 257 l 1,106,-1
 145 257 l 1,107,-1
 140 282 l 1,108,-1
 132 282 l 1,109,-1
 122 341 l 1,110,-1
 130 341 l 1,111,-1
 127 358 l 1,112,-1
 136 358 l 1,113,-1
 133 375 l 1,114,-1
 141 375 l 1,115,-1
 139 383 l 1,116,-1
 147 383 l 1,117,-1
 146 392 l 1,118,-1
 155 392 l 1,119,-1
 153 400 l 1,120,-1
 161 400 l 1,121,-1
 160 409 l 1,122,-1
 169 409 l 1,123,-1
 167 417 l 1,124,-1
 175 417 l 1,125,-1
 174 426 l 1,126,-1
 183 426 l 1,127,-1
 181 434 l 1,128,-1
 189 434 l 1,129,-1
 188 442 l 1,130,-1
 196 442 l 1,131,-1
 194 451 l 1,132,-1
 211 451 l 1,133,-1
 210 459 l 1,134,-1
 219 459 l 1,135,-1
 217 468 l 1,136,-1
 225 468 l 1,137,-1
 224 476 l 1,138,-1
 233 476 l 1,139,-1
 231 485 l 1,140,-1
 239 485 l 1,141,-1
 238 493 l 1,142,-1
 246 493 l 1,143,-1
 245 501 l 1,144,-1
 254 501 l 1,145,-1
 252 510 l 1,146,-1
 260 510 l 1,147,-1
 259 518 l 1,148,-1
 268 518 l 1,149,-1
 265 535 l 1,150,-1
 273 535 l 1,151,-1
 262 594 l 1,152,-1
 254 594 l 1,153,-1
 251 611 l 1,154,-1
 242 611 l 1,155,-1
 241 619 l 1,156,-1
 233 619 l 1,157,-1
 231 628 l 1,158,-1
 214 628 l 1,159,-1
 213 636 l 1,160,-1
 188 636 l 1,161,-1
 186 645 l 1,162,-1
 68 645 l 1,163,-1
 70 636 l 1,164,-1
 36 636 l 1,165,-1
 37 628 l 1,166,-1
 20 628 l 1,167,-1
 22 619 l 1,168,-1
 -3 619 l 1,169,-1
 -2 611 l 1,170,-1
 -19 611 l 1,171,-1
 -17 603 l 1,172,-1
 -26 603 l 1,173,-1
 -25 594 l 1,174,-1
 -33 594 l 1,175,-1
 -54 712 l 1,176,-1
 -29 712 l 1,177,-1
 -30 721 l 1,178,-1
 -4 721 l 1,179,-1
 -6 729 l 1,180,-1
 19 729 l 1,181,-1
 18 738 l 1,182,-1
 69 738 l 1,183,-1
 67 746 l 1,38,-1
EndSplineSet
EndChar

StartChar: at
Encoding: 64 64 34
Width: 538
GlyphClass: 1
Flags: W
LayerCount: 2
Fore
SplineSet
210 267 m 1,0,-1
 209 273 l 1,1,-1
 233 273 l 1,2,-1
 232 279 l 1,3,-1
 244 279 l 1,4,-1
 243 284 l 1,5,-1
 255 284 l 1,6,-1
 254 290 l 1,7,-1
 260 290 l 1,8,-1
 256 314 l 1,9,-1
 262 314 l 1,10,-1
 253 362 l 1,11,-1
 259 362 l 1,12,-1
 253 398 l 1,13,-1
 258 398 l 1,14,-1
 257 404 l 1,15,-1
 252 404 l 1,16,-1
 251 410 l 1,17,-1
 233 410 l 1,18,-1
 232 416 l 1,19,-1
 186 416 l 1,20,-1
 184 416 l 1,21,-1
 168 416 l 1,22,-1
 169 410 l 1,23,-1
 157 410 l 1,24,-1
 158 404 l 1,25,-1
 146 404 l 1,26,-1
 147 398 l 1,27,-1
 141 398 l 1,28,-1
 142 392 l 1,29,-1
 136 392 l 1,30,-1
 138 380 l 1,31,-1
 132 380 l 1,32,-1
 135 362 l 1,33,-1
 129 362 l 1,34,-1
 140 302 l 1,35,-1
 146 302 l 1,36,-1
 149 284 l 1,37,-1
 155 284 l 1,38,-1
 156 279 l 1,39,-1
 162 279 l 1,40,-1
 163 273 l 1,41,-1
 181 273 l 1,42,-1
 182 267 l 1,43,-1
 210 267 l 1,0,-1
305 469 m 1,44,-1
 311 469 l 1,45,-1
 314 451 l 1,46,-1
 308 451 l 1,47,-1
 315 416 l 1,48,-1
 309 416 l 1,49,-1
 313 392 l 1,50,-1
 307 392 l 1,51,-1
 314 350 l 1,52,-1
 308 350 l 1,53,-1
 321 279 l 1,54,-1
 327 279 l 1,55,-1
 328 273 l 1,56,-1
 346 273 l 1,57,-1
 345 279 l 1,58,-1
 357 279 l 1,59,-1
 356 284 l 1,60,-1
 368 284 l 1,61,-1
 367 290 l 1,62,-1
 373 290 l 1,63,-1
 372 296 l 1,64,-1
 378 296 l 1,65,-1
 377 302 l 1,66,-1
 383 302 l 1,67,-1
 382 308 l 1,68,-1
 388 308 l 1,69,-1
 386 320 l 1,70,-1
 392 320 l 1,71,-1
 389 332 l 1,72,-1
 395 332 l 1,73,-1
 392 350 l 1,74,-1
 398 350 l 1,75,-1
 384 433 l 1,76,-1
 378 433 l 1,77,-1
 373 457 l 1,78,-1
 367 457 l 1,79,-1
 365 469 l 1,80,-1
 359 469 l 1,81,-1
 358 475 l 1,82,-1
 352 475 l 1,83,-1
 350 487 l 1,84,-1
 344 487 l 1,85,-1
 343 493 l 1,86,-1
 337 493 l 1,87,-1
 336 499 l 1,88,-1
 330 499 l 1,89,-1
 329 505 l 1,90,-1
 323 505 l 1,91,-1
 322 511 l 1,92,-1
 310 511 l 1,93,-1
 309 517 l 1,94,-1
 297 517 l 1,95,-1
 296 523 l 1,96,-1
 290 523 l 1,97,-1
 289 529 l 1,98,-1
 277 529 l 1,99,-1
 276 535 l 1,100,-1
 258 535 l 1,101,-1
 257 541 l 1,102,-1
 239 541 l 1,103,-1
 238 546 l 1,104,-1
 209 546 l 1,105,-1
 208 552 l 1,106,-1
 162 552 l 1,107,-1
 160 552 l 1,108,-1
 132 552 l 1,109,-1
 133 546 l 1,110,-1
 103 546 l 1,111,-1
 104 541 l 1,112,-1
 87 541 l 1,113,-1
 88 535 l 1,114,-1
 76 535 l 1,115,-1
 77 529 l 1,116,-1
 65 529 l 1,117,-1
 66 523 l 1,118,-1
 54 523 l 1,119,-1
 55 517 l 1,120,-1
 43 517 l 1,121,-1
 44 511 l 1,122,-1
 38 511 l 1,123,-1
 39 505 l 1,124,-1
 33 505 l 1,125,-1
 34 499 l 1,126,-1
 28 499 l 1,127,-1
 29 493 l 1,128,-1
 23 493 l 1,129,-1
 24 487 l 1,130,-1
 18 487 l 1,131,-1
 19 481 l 1,132,-1
 13 481 l 1,133,-1
 14 475 l 1,134,-1
 8 475 l 1,135,-1
 10 463 l 1,136,-1
 4 463 l 1,137,-1
 6 451 l 1,138,-1
 0 451 l 1,139,-1
 3 439 l 1,140,-1
 -3 439 l 1,141,-1
 -1 427 l 1,142,-1
 -7 427 l 1,143,-1
 -3 404 l 1,144,-1
 -9 404 l 1,145,-1
 -4 374 l 1,146,-1
 -10 374 l 1,147,-1
 2 308 l 1,148,-1
 8 308 l 1,149,-1
 12 284 l 1,150,-1
 18 284 l 1,151,-1
 22 261 l 1,152,-1
 28 261 l 1,153,-1
 30 249 l 1,154,-1
 36 249 l 1,155,-1
 38 237 l 1,156,-1
 44 237 l 1,157,-1
 45 231 l 1,158,-1
 51 231 l 1,159,-1
 53 219 l 1,160,-1
 59 219 l 1,161,-1
 60 213 l 1,162,-1
 66 213 l 1,163,-1
 68 207 l 1,164,-1
 74 207 l 1,165,-1
 75 201 l 1,166,-1
 81 201 l 1,167,-1
 82 195 l 1,168,-1
 88 195 l 1,169,-1
 89 189 l 1,170,-1
 101 189 l 1,171,-1
 102 183 l 1,172,-1
 108 183 l 1,173,-1
 109 177 l 1,174,-1
 121 177 l 1,175,-1
 122 171 l 1,176,-1
 134 171 l 1,177,-1
 135 165 l 1,178,-1
 147 165 l 1,179,-1
 148 159 l 1,180,-1
 171 159 l 1,181,-1
 172 154 l 1,182,-1
 214 154 l 1,183,-1
 215 148 l 1,184,-1
 231 148 l 1,185,-1
 233 148 l 1,186,-1
 261 148 l 1,187,-1
 260 154 l 1,188,-1
 307 154 l 1,189,-1
 306 159 l 1,190,-1
 336 159 l 1,191,-1
 335 165 l 1,192,-1
 353 165 l 1,193,-1
 352 171 l 1,194,-1
 370 171 l 1,195,-1
 377 130 l 1,196,-1
 371 130 l 1,197,-1
 372 124 l 1,198,-1
 378 124 l 1,199,-1
 379 118 l 1,200,-1
 373 118 l 1,201,-1
 374 112 l 1,202,-1
 356 112 l 1,203,-1
 357 106 l 1,204,-1
 333 106 l 1,205,-1
 334 100 l 1,206,-1
 310 100 l 1,207,-1
 311 94 l 1,208,-1
 276 94 l 1,209,-1
 277 88 l 1,210,-1
 243 88 l 1,211,-1
 241 88 l 1,212,-1
 189 88 l 1,213,-1
 188 94 l 1,214,-1
 153 94 l 1,215,-1
 152 100 l 1,216,-1
 134 100 l 1,217,-1
 133 106 l 1,218,-1
 115 106 l 1,219,-1
 114 112 l 1,220,-1
 102 112 l 1,221,-1
 101 118 l 1,222,-1
 89 118 l 1,223,-1
 88 124 l 1,224,-1
 76 124 l 1,225,-1
 75 130 l 1,226,-1
 69 130 l 1,227,-1
 68 136 l 1,228,-1
 56 136 l 1,229,-1
 55 142 l 1,230,-1
 49 142 l 1,231,-1
 48 148 l 1,232,-1
 42 148 l 1,233,-1
 41 154 l 1,234,-1
 35 154 l 1,235,-1
 34 159 l 1,236,-1
 28 159 l 1,237,-1
 27 165 l 1,238,-1
 21 165 l 1,239,-1
 20 171 l 1,240,-1
 14 171 l 1,241,-1
 13 177 l 1,242,-1
 7 177 l 1,243,-1
 5 189 l 1,244,-1
 -1 189 l 1,245,-1
 -2 195 l 1,246,-1
 -8 195 l 1,247,-1
 -10 207 l 1,248,-1
 -16 207 l 1,249,-1
 -19 219 l 1,250,-1
 -25 219 l 1,251,-1
 -28 237 l 1,252,-1
 -34 237 l 1,253,-1
 -36 249 l 1,254,-1
 -42 249 l 1,255,-1
 -47 279 l 1,256,-1
 -53 279 l 1,257,-1
 -73 392 l 1,258,-1
 -67 392 l 1,259,-1
 -72 421 l 1,260,-1
 -66 421 l 1,261,-1
 -69 439 l 1,262,-1
 -63 439 l 1,263,-1
 -66 451 l 1,264,-1
 -60 451 l 1,265,-1
 -62 463 l 1,266,-1
 -56 463 l 1,267,-1
 -59 481 l 1,268,-1
 -53 481 l 1,269,-1
 -54 487 l 1,270,-1
 -48 487 l 1,271,-1
 -50 499 l 1,272,-1
 -44 499 l 1,273,-1
 -45 505 l 1,274,-1
 -39 505 l 1,275,-1
 -41 517 l 1,276,-1
 -35 517 l 1,277,-1
 -36 523 l 1,278,-1
 -30 523 l 1,279,-1
 -31 529 l 1,280,-1
 -25 529 l 1,281,-1
 -26 535 l 1,282,-1
 -20 535 l 1,283,-1
 -22 546 l 1,284,-1
 -16 546 l 1,285,-1
 -17 552 l 1,286,-1
 -5 552 l 1,287,-1
 -6 558 l 1,288,-1
 0 558 l 1,289,-1
 -1 564 l 1,290,-1
 5 564 l 1,291,-1
 3 570 l 1,292,-1
 15 570 l 1,293,-1
 14 576 l 1,294,-1
 20 576 l 1,295,-1
 19 582 l 1,296,-1
 31 582 l 1,297,-1
 30 588 l 1,298,-1
 42 588 l 1,299,-1
 41 594 l 1,300,-1
 59 594 l 1,301,-1
 58 600 l 1,302,-1
 76 600 l 1,303,-1
 75 606 l 1,304,-1
 98 606 l 1,305,-1
 97 612 l 1,306,-1
 149 612 l 1,307,-1
 151 612 l 1,308,-1
 232 612 l 1,309,-1
 233 606 l 1,310,-1
 263 606 l 1,311,-1
 264 600 l 1,312,-1
 282 600 l 1,313,-1
 283 594 l 1,314,-1
 301 594 l 1,315,-1
 302 588 l 1,316,-1
 314 588 l 1,317,-1
 315 582 l 1,318,-1
 327 582 l 1,319,-1
 328 576 l 1,320,-1
 340 576 l 1,321,-1
 341 570 l 1,322,-1
 347 570 l 1,323,-1
 349 564 l 1,324,-1
 355 564 l 1,325,-1
 356 558 l 1,326,-1
 368 558 l 1,327,-1
 369 552 l 1,328,-1
 375 552 l 1,329,-1
 376 546 l 1,330,-1
 382 546 l 1,331,-1
 383 541 l 1,332,-1
 389 541 l 1,333,-1
 391 529 l 1,334,-1
 397 529 l 1,335,-1
 398 523 l 1,336,-1
 404 523 l 1,337,-1
 405 517 l 1,338,-1
 411 517 l 1,339,-1
 413 505 l 1,340,-1
 419 505 l 1,341,-1
 422 487 l 1,342,-1
 428 487 l 1,343,-1
 431 469 l 1,344,-1
 437 469 l 1,345,-1
 454 374 l 1,346,-1
 448 374 l 1,347,-1
 453 344 l 1,348,-1
 447 344 l 1,349,-1
 451 326 l 1,350,-1
 445 326 l 1,351,-1
 447 314 l 1,352,-1
 441 314 l 1,353,-1
 443 302 l 1,354,-1
 437 302 l 1,355,-1
 439 290 l 1,356,-1
 433 290 l 1,357,-1
 435 279 l 1,358,-1
 429 279 l 1,359,-1
 430 273 l 1,360,-1
 424 273 l 1,361,-1
 425 267 l 1,362,-1
 419 267 l 1,363,-1
 420 261 l 1,364,-1
 414 261 l 1,365,-1
 415 255 l 1,366,-1
 409 255 l 1,367,-1
 410 249 l 1,368,-1
 404 249 l 1,369,-1
 405 243 l 1,370,-1
 399 243 l 1,371,-1
 400 237 l 1,372,-1
 388 237 l 1,373,-1
 389 231 l 1,374,-1
 383 231 l 1,375,-1
 384 225 l 1,376,-1
 366 225 l 1,377,-1
 367 219 l 1,378,-1
 349 219 l 1,379,-1
 350 213 l 1,380,-1
 314 213 l 1,381,-1
 313 219 l 1,382,-1
 295 219 l 1,383,-1
 294 225 l 1,384,-1
 288 225 l 1,385,-1
 287 231 l 1,386,-1
 282 231 l 1,387,-1
 281 237 l 1,388,-1
 275 237 l 1,389,-1
 273 249 l 1,390,-1
 267 249 l 1,391,-1
 268 243 l 1,392,-1
 262 243 l 1,393,-1
 263 237 l 1,394,-1
 257 237 l 1,395,-1
 258 231 l 1,396,-1
 252 231 l 1,397,-1
 253 225 l 1,398,-1
 241 225 l 1,399,-1
 242 219 l 1,400,-1
 224 219 l 1,401,-1
 225 213 l 1,402,-1
 221 213 l 1,403,-1
 219 213 l 1,404,-1
 155 213 l 1,405,-1
 154 219 l 1,406,-1
 143 219 l 1,407,-1
 142 225 l 1,408,-1
 130 225 l 1,409,-1
 129 231 l 1,410,-1
 123 231 l 1,411,-1
 122 237 l 1,412,-1
 116 237 l 1,413,-1
 115 243 l 1,414,-1
 109 243 l 1,415,-1
 108 249 l 1,416,-1
 102 249 l 1,417,-1
 100 261 l 1,418,-1
 94 261 l 1,419,-1
 92 273 l 1,420,-1
 86 273 l 1,421,-1
 83 290 l 1,422,-1
 77 290 l 1,423,-1
 62 374 l 1,424,-1
 68 374 l 1,425,-1
 65 392 l 1,426,-1
 71 392 l 1,427,-1
 69 404 l 1,428,-1
 75 404 l 1,429,-1
 73 416 l 1,430,-1
 79 416 l 1,431,-1
 77 427 l 1,432,-1
 83 427 l 1,433,-1
 82 433 l 1,434,-1
 88 433 l 1,435,-1
 87 439 l 1,436,-1
 93 439 l 1,437,-1
 92 445 l 1,438,-1
 98 445 l 1,439,-1
 96 451 l 1,440,-1
 108 451 l 1,441,-1
 107 457 l 1,442,-1
 118 457 l 1,443,-1
 117 463 l 1,444,-1
 135 463 l 1,445,-1
 134 469 l 1,446,-1
 174 469 l 1,447,-1
 176 469 l 1,448,-1
 198 469 l 1,449,-1
 199 463 l 1,450,-1
 217 463 l 1,451,-1
 218 457 l 1,452,-1
 230 457 l 1,453,-1
 231 451 l 1,454,-1
 243 451 l 1,455,-1
 245 445 l 1,456,-1
 250 445 l 1,457,-1
 251 439 l 1,458,-1
 257 439 l 1,459,-1
 256 445 l 1,460,-1
 262 445 l 1,461,-1
 258 463 l 1,462,-1
 306 463 l 1,463,-1
 305 469 l 1,44,-1
EndSplineSet
EndChar

StartChar: A
Encoding: 65 65 35
Width: 912
GlyphClass: 1
Flags: W
LayerCount: 2
Fore
SplineSet
221 700 m 1,0,-1
 407 700 l 1,1,-1
 411 673 l 1,2,-1
 419 673 l 1,3,-1
 422 656 l 1,4,-1
 431 656 l 1,5,-1
 435 638 l 1,6,-1
 444 638 l 1,7,-1
 448 611 l 1,8,-1
 457 611 l 1,9,-1
 460 594 l 1,10,-1
 469 594 l 1,11,-1
 474 567 l 1,12,-1
 483 567 l 1,13,-1
 486 549 l 1,14,-1
 495 549 l 1,15,-1
 498 532 l 1,16,-1
 507 532 l 1,17,-1
 512 505 l 1,18,-1
 520 505 l 1,19,-1
 523 487 l 1,20,-1
 532 487 l 1,21,-1
 535 470 l 1,22,-1
 544 470 l 1,23,-1
 549 443 l 1,24,-1
 558 443 l 1,25,-1
 561 425 l 1,26,-1
 570 425 l 1,27,-1
 573 408 l 1,28,-1
 582 408 l 1,29,-1
 585 390 l 1,30,-1
 594 390 l 1,31,-1
 599 363 l 1,32,-1
 607 363 l 1,33,-1
 610 346 l 1,34,-1
 619 346 l 1,35,-1
 622 328 l 1,36,-1
 631 328 l 1,37,-1
 634 310 l 1,38,-1
 643 310 l 1,39,-1
 647 292 l 1,40,-1
 656 292 l 1,41,-1
 660 266 l 1,42,-1
 669 266 l 1,43,-1
 672 248 l 1,44,-1
 681 248 l 1,45,-1
 684 230 l 1,46,-1
 692 230 l 1,47,-1
 695 213 l 1,48,-1
 704 213 l 1,49,-1
 709 186 l 1,50,-1
 718 186 l 1,51,-1
 721 168 l 1,52,-1
 730 168 l 1,53,-1
 733 151 l 1,54,-1
 742 151 l 1,55,-1
 746 133 l 1,56,-1
 755 133 l 1,57,-1
 759 106 l 1,58,-1
 768 106 l 1,59,-1
 771 89 l 1,60,-1
 779 89 l 1,61,-1
 782 71 l 1,62,-1
 791 71 l 1,63,-1
 795 53 l 1,64,-1
 804 53 l 1,65,-1
 807 35 l 1,66,-1
 816 35 l 1,67,-1
 819 18 l 1,68,-1
 828 18 l 1,69,-1
 831 0 l 1,70,-1
 663 0 l 1,71,-1
 658 27 l 1,72,-1
 649 27 l 1,73,-1
 646 44 l 1,74,-1
 637 44 l 1,75,-1
 632 71 l 1,76,-1
 623 71 l 1,77,-1
 619 97 l 1,78,-1
 610 97 l 1,79,-1
 607 115 l 1,80,-1
 598 115 l 1,81,-1
 593 142 l 1,82,-1
 584 142 l 1,83,-1
 581 159 l 1,84,-1
 227 159 l 1,85,-1
 230 142 l 1,86,-1
 221 142 l 1,87,-1
 226 115 l 1,88,-1
 217 115 l 1,89,-1
 220 97 l 1,90,-1
 211 97 l 1,91,-1
 215 71 l 1,92,-1
 206 71 l 1,93,-1
 210 53 l 1,94,-1
 202 53 l 1,95,-1
 206 27 l 1,96,-1
 197 27 l 1,97,-1
 200 9 l 1,98,-1
 191 9 l 1,99,-1
 193 0 l 1,100,-1
 60 0 l 1,101,-1
 58 9 l 1,102,-1
 67 9 l 1,103,-1
 64 27 l 1,104,-1
 73 27 l 1,105,-1
 70 44 l 1,106,-1
 79 44 l 1,107,-1
 74 71 l 1,108,-1
 82 71 l 1,109,-1
 79 89 l 1,110,-1
 88 89 l 1,111,-1
 85 106 l 1,112,-1
 94 106 l 1,113,-1
 91 124 l 1,114,-1
 100 124 l 1,115,-1
 95 151 l 1,116,-1
 104 151 l 1,117,-1
 101 168 l 1,118,-1
 110 168 l 1,119,-1
 107 186 l 1,120,-1
 116 186 l 1,121,-1
 113 204 l 1,122,-1
 121 204 l 1,123,-1
 118 222 l 1,124,-1
 127 222 l 1,125,-1
 122 248 l 1,126,-1
 131 248 l 1,127,-1
 128 266 l 1,128,-1
 137 266 l 1,129,-1
 134 284 l 1,130,-1
 143 284 l 1,131,-1
 140 301 l 1,132,-1
 149 301 l 1,133,-1
 146 319 l 1,134,-1
 155 319 l 1,135,-1
 150 346 l 1,136,-1
 158 346 l 1,137,-1
 155 363 l 1,138,-1
 164 363 l 1,139,-1
 161 381 l 1,140,-1
 170 381 l 1,141,-1
 167 399 l 1,142,-1
 176 399 l 1,143,-1
 171 425 l 1,144,-1
 180 425 l 1,145,-1
 177 443 l 1,146,-1
 186 443 l 1,147,-1
 183 461 l 1,148,-1
 192 461 l 1,149,-1
 189 478 l 1,150,-1
 198 478 l 1,151,-1
 195 496 l 1,152,-1
 203 496 l 1,153,-1
 198 523 l 1,154,-1
 207 523 l 1,155,-1
 204 541 l 1,156,-1
 213 541 l 1,157,-1
 210 558 l 1,158,-1
 219 558 l 1,159,-1
 215 576 l 1,160,-1
 224 576 l 1,161,-1
 220 603 l 1,162,-1
 229 603 l 1,163,-1
 226 620 l 1,164,-1
 235 620 l 1,165,-1
 232 638 l 1,166,-1
 240 638 l 1,167,-1
 233 673 l 1,168,-1
 225 673 l 1,169,-1
 221 700 l 1,0,-1
520 257 m 1,170,-1
 518 266 l 1,171,-1
 509 266 l 1,172,-1
 505 292 l 1,173,-1
 496 292 l 1,174,-1
 492 310 l 1,175,-1
 483 310 l 1,176,-1
 480 328 l 1,177,-1
 472 328 l 1,178,-1
 469 346 l 1,179,-1
 460 346 l 1,180,-1
 457 363 l 1,181,-1
 448 363 l 1,182,-1
 443 390 l 1,183,-1
 434 390 l 1,184,-1
 431 408 l 1,185,-1
 422 408 l 1,186,-1
 419 425 l 1,187,-1
 410 425 l 1,188,-1
 407 443 l 1,189,-1
 398 443 l 1,190,-1
 395 461 l 1,191,-1
 387 461 l 1,192,-1
 382 487 l 1,193,-1
 373 487 l 1,194,-1
 370 505 l 1,195,-1
 361 505 l 1,196,-1
 358 523 l 1,197,-1
 349 523 l 1,198,-1
 344 549 l 1,199,-1
 335 549 l 1,200,-1
 337 541 l 1,201,-1
 328 541 l 1,202,-1
 332 514 l 1,203,-1
 323 514 l 1,204,-1
 328 487 l 1,205,-1
 320 487 l 1,206,-1
 323 470 l 1,207,-1
 314 470 l 1,208,-1
 317 452 l 1,209,-1
 308 452 l 1,210,-1
 311 434 l 1,211,-1
 302 434 l 1,212,-1
 307 408 l 1,213,-1
 298 408 l 1,214,-1
 301 390 l 1,215,-1
 292 390 l 1,216,-1
 295 372 l 1,217,-1
 286 372 l 1,218,-1
 291 346 l 1,219,-1
 283 346 l 1,220,-1
 286 328 l 1,221,-1
 277 328 l 1,222,-1
 280 310 l 1,223,-1
 271 310 l 1,224,-1
 275 292 l 1,225,-1
 266 292 l 1,226,-1
 269 275 l 1,227,-1
 260 275 l 1,228,-1
 263 257 l 1,229,-1
 520 257 l 1,170,-1
EndSplineSet
EndChar

StartChar: B
Encoding: 66 66 36
Width: 822
GlyphClass: 1
Flags: W
LayerCount: 2
Fore
SplineSet
-51 700 m 1,0,-1
 410 700 l 1,1,-1
 411 691 l 1,2,-1
 455 691 l 1,3,-1
 457 682 l 1,4,-1
 475 682 l 1,5,-1
 476 673 l 1,6,-1
 494 673 l 1,7,-1
 496 665 l 1,8,-1
 513 665 l 1,9,-1
 514 656 l 1,10,-1
 523 656 l 1,11,-1
 525 647 l 1,12,-1
 534 647 l 1,13,-1
 536 638 l 1,14,-1
 545 638 l 1,15,-1
 546 629 l 1,16,-1
 555 629 l 1,17,-1
 558 611 l 1,18,-1
 567 611 l 1,19,-1
 570 594 l 1,20,-1
 578 594 l 1,21,-1
 583 567 l 1,22,-1
 592 567 l 1,23,-1
 603 505 l 1,24,-1
 594 505 l 1,25,-1
 600 470 l 1,26,-1
 592 470 l 1,27,-1
 595 452 l 1,28,-1
 586 452 l 1,29,-1
 589 434 l 1,30,-1
 580 434 l 1,31,-1
 582 425 l 1,32,-1
 573 425 l 1,33,-1
 575 416 l 1,34,-1
 566 416 l 1,35,-1
 567 408 l 1,36,-1
 558 408 l 1,37,-1
 560 399 l 1,38,-1
 543 399 l 1,39,-1
 544 390 l 1,40,-1
 535 390 l 1,41,-1
 537 381 l 1,42,-1
 528 381 l 1,43,-1
 529 372 l 1,44,-1
 538 372 l 1,45,-1
 540 363 l 1,46,-1
 557 363 l 1,47,-1
 559 354 l 1,48,-1
 577 354 l 1,49,-1
 578 346 l 1,50,-1
 587 346 l 1,51,-1
 589 337 l 1,52,-1
 607 337 l 1,53,-1
 608 328 l 1,54,-1
 617 328 l 1,55,-1
 619 319 l 1,56,-1
 627 319 l 1,57,-1
 628 310 l 1,58,-1
 637 310 l 1,59,-1
 641 292 l 1,60,-1
 650 292 l 1,61,-1
 653 275 l 1,62,-1
 662 275 l 1,63,-1
 666 248 l 1,64,-1
 675 248 l 1,65,-1
 696 133 l 1,66,-1
 687 133 l 1,67,-1
 691 106 l 1,68,-1
 682 106 l 1,69,-1
 685 89 l 1,70,-1
 676 89 l 1,71,-1
 678 80 l 1,72,-1
 669 80 l 1,73,-1
 670 71 l 1,74,-1
 662 71 l 1,75,-1
 664 62 l 1,76,-1
 655 62 l 1,77,-1
 657 53 l 1,78,-1
 648 53 l 1,79,-1
 649 44 l 1,80,-1
 631 44 l 1,81,-1
 633 35 l 1,82,-1
 624 35 l 1,83,-1
 625 27 l 1,84,-1
 599 27 l 1,85,-1
 601 18 l 1,86,-1
 565 18 l 1,87,-1
 566 9 l 1,88,-1
 495 9 l 1,89,-1
 497 0 l 1,90,-1
 72 0 l 1,91,-1
 -51 700 l 1,0,-1
496 106 m 1,92,-1
 495 115 l 1,93,-1
 513 115 l 1,94,-1
 511 124 l 1,95,-1
 520 124 l 1,96,-1
 519 133 l 1,97,-1
 527 133 l 1,98,-1
 525 142 l 1,99,-1
 534 142 l 1,100,-1
 532 151 l 1,101,-1
 541 151 l 1,102,-1
 538 168 l 1,103,-1
 547 168 l 1,104,-1
 543 195 l 1,105,-1
 552 195 l 1,106,-1
 542 248 l 1,107,-1
 533 248 l 1,108,-1
 530 266 l 1,109,-1
 521 266 l 1,110,-1
 520 275 l 1,111,-1
 511 275 l 1,112,-1
 509 284 l 1,113,-1
 500 284 l 1,114,-1
 499 292 l 1,115,-1
 491 292 l 1,116,-1
 489 301 l 1,117,-1
 462 301 l 1,118,-1
 460 310 l 1,119,-1
 150 310 l 1,120,-1
 186 106 l 1,121,-1
 496 106 l 1,92,-1
381 408 m 1,122,-1
 380 416 l 1,123,-1
 433 416 l 1,124,-1
 431 425 l 1,125,-1
 449 425 l 1,126,-1
 447 434 l 1,127,-1
 456 434 l 1,128,-1
 455 443 l 1,129,-1
 464 443 l 1,130,-1
 462 452 l 1,131,-1
 470 452 l 1,132,-1
 466 478 l 1,133,-1
 475 478 l 1,134,-1
 465 532 l 1,135,-1
 456 532 l 1,136,-1
 452 558 l 1,137,-1
 444 558 l 1,138,-1
 442 567 l 1,139,-1
 433 567 l 1,140,-1
 431 576 l 1,141,-1
 422 576 l 1,142,-1
 421 585 l 1,143,-1
 403 585 l 1,144,-1
 401 594 l 1,145,-1
 366 594 l 1,146,-1
 365 603 l 1,147,-1
 99 603 l 1,148,-1
 133 408 l 1,149,-1
 381 408 l 1,122,-1
EndSplineSet
EndChar

StartChar: C
Encoding: 67 67 37
Width: 813
GlyphClass: 1
Flags: W
LayerCount: 2
Fore
SplineSet
660 145 m 1,0,-1
 677 145 l 1,1,-1
 697 34 l 1,2,-1
 680 34 l 1,3,-1
 681 26 l 1,4,-1
 647 26 l 1,5,-1
 649 17 l 1,6,-1
 606 17 l 1,7,-1
 607 9 l 1,8,-1
 548 9 l 1,9,-1
 550 0 l 1,10,-1
 379 0 l 1,11,-1
 377 9 l 1,12,-1
 326 9 l 1,13,-1
 325 17 l 1,14,-1
 290 17 l 1,15,-1
 288 26 l 1,16,-1
 263 26 l 1,17,-1
 262 34 l 1,18,-1
 245 34 l 1,19,-1
 243 43 l 1,20,-1
 226 43 l 1,21,-1
 225 51 l 1,22,-1
 208 51 l 1,23,-1
 206 60 l 1,24,-1
 197 60 l 1,25,-1
 196 68 l 1,26,-1
 179 68 l 1,27,-1
 177 77 l 1,28,-1
 168 77 l 1,29,-1
 167 85 l 1,30,-1
 159 85 l 1,31,-1
 157 94 l 1,32,-1
 148 94 l 1,33,-1
 147 102 l 1,34,-1
 139 102 l 1,35,-1
 137 111 l 1,36,-1
 128 111 l 1,37,-1
 125 128 l 1,38,-1
 117 128 l 1,39,-1
 116 137 l 1,40,-1
 107 137 l 1,41,-1
 104 154 l 1,42,-1
 96 154 l 1,43,-1
 93 171 l 1,44,-1
 84 171 l 1,45,-1
 81 188 l 1,46,-1
 73 188 l 1,47,-1
 70 205 l 1,48,-1
 61 205 l 1,49,-1
 55 239 l 1,50,-1
 47 239 l 1,51,-1
 36 299 l 1,52,-1
 27 299 l 1,53,-1
 9 401 l 1,54,-1
 18 401 l 1,55,-1
 9 452 l 1,56,-1
 17 452 l 1,57,-1
 11 487 l 1,58,-1
 20 487 l 1,59,-1
 16 512 l 1,60,-1
 24 512 l 1,61,-1
 21 529 l 1,62,-1
 30 529 l 1,63,-1
 27 546 l 1,64,-1
 35 546 l 1,65,-1
 33 555 l 1,66,-1
 42 555 l 1,67,-1
 39 572 l 1,68,-1
 47 572 l 1,69,-1
 46 580 l 1,70,-1
 55 580 l 1,71,-1
 53 589 l 1,72,-1
 61 589 l 1,73,-1
 60 598 l 1,74,-1
 69 598 l 1,75,-1
 67 606 l 1,76,-1
 75 606 l 1,77,-1
 74 615 l 1,78,-1
 83 615 l 1,79,-1
 81 623 l 1,80,-1
 90 623 l 1,81,-1
 89 632 l 1,82,-1
 106 632 l 1,83,-1
 104 640 l 1,84,-1
 121 640 l 1,85,-1
 120 649 l 1,86,-1
 128 649 l 1,87,-1
 126 657 l 1,88,-1
 143 657 l 1,89,-1
 142 666 l 1,90,-1
 168 666 l 1,91,-1
 166 674 l 1,92,-1
 191 674 l 1,93,-1
 190 683 l 1,94,-1
 225 683 l 1,95,-1
 223 691 l 1,96,-1
 274 691 l 1,97,-1
 273 700 l 1,98,-1
 469 700 l 1,99,-1
 470 691 l 1,100,-1
 521 691 l 1,101,-1
 523 683 l 1,102,-1
 566 683 l 1,103,-1
 567 674 l 1,104,-1
 593 674 l 1,105,-1
 614 555 l 1,106,-1
 605 555 l 1,107,-1
 604 563 l 1,108,-1
 579 563 l 1,109,-1
 577 572 l 1,110,-1
 542 572 l 1,111,-1
 541 580 l 1,112,-1
 499 580 l 1,113,-1
 497 589 l 1,114,-1
 446 589 l 1,115,-1
 445 598 l 1,116,-1
 334 598 l 1,117,-1
 335 589 l 1,118,-1
 275 589 l 1,119,-1
 277 580 l 1,120,-1
 251 580 l 1,121,-1
 252 572 l 1,122,-1
 235 572 l 1,123,-1
 237 563 l 1,124,-1
 220 563 l 1,125,-1
 221 555 l 1,126,-1
 204 555 l 1,127,-1
 206 546 l 1,128,-1
 197 546 l 1,129,-1
 198 538 l 1,130,-1
 181 538 l 1,131,-1
 183 529 l 1,132,-1
 175 529 l 1,133,-1
 178 512 l 1,134,-1
 169 512 l 1,135,-1
 170 504 l 1,136,-1
 162 504 l 1,137,-1
 165 487 l 1,138,-1
 156 487 l 1,139,-1
 159 470 l 1,140,-1
 151 470 l 1,141,-1
 154 452 l 1,142,-1
 145 452 l 1,143,-1
 153 410 l 1,144,-1
 145 410 l 1,145,-1
 166 290 l 1,146,-1
 174 290 l 1,147,-1
 181 248 l 1,148,-1
 190 248 l 1,149,-1
 195 222 l 1,150,-1
 203 222 l 1,151,-1
 206 205 l 1,152,-1
 215 205 l 1,153,-1
 216 196 l 1,154,-1
 224 196 l 1,155,-1
 227 179 l 1,156,-1
 236 179 l 1,157,-1
 238 171 l 1,158,-1
 246 171 l 1,159,-1
 247 162 l 1,160,-1
 256 162 l 1,161,-1
 258 154 l 1,162,-1
 275 154 l 1,163,-1
 276 145 l 1,164,-1
 284 145 l 1,165,-1
 286 137 l 1,166,-1
 304 137 l 1,167,-1
 305 128 l 1,168,-1
 330 128 l 1,169,-1
 332 120 l 1,170,-1
 358 120 l 1,171,-1
 359 111 l 1,172,-1
 419 111 l 1,173,-1
 421 102 l 1,174,-1
 514 102 l 1,175,-1
 512 111 l 1,176,-1
 572 111 l 1,177,-1
 571 120 l 1,178,-1
 605 120 l 1,179,-1
 603 128 l 1,180,-1
 637 128 l 1,181,-1
 636 137 l 1,182,-1
 662 137 l 1,183,-1
 660 145 l 1,0,-1
EndSplineSet
EndChar

StartChar: D
Encoding: 68 68 38
Width: 893
GlyphClass: 1
Flags: W
LayerCount: 2
Fore
SplineSet
-51 700 m 1,0,-1
 383 700 l 1,1,-1
 384 691 l 1,2,-1
 428 691 l 1,3,-1
 430 682 l 1,4,-1
 457 682 l 1,5,-1
 458 673 l 1,6,-1
 485 673 l 1,7,-1
 487 665 l 1,8,-1
 504 665 l 1,9,-1
 505 656 l 1,10,-1
 523 656 l 1,11,-1
 525 647 l 1,12,-1
 543 647 l 1,13,-1
 545 638 l 1,14,-1
 563 638 l 1,15,-1
 564 629 l 1,16,-1
 572 629 l 1,17,-1
 574 620 l 1,18,-1
 583 620 l 1,19,-1
 584 611 l 1,20,-1
 593 611 l 1,21,-1
 595 603 l 1,22,-1
 604 603 l 1,23,-1
 605 594 l 1,24,-1
 614 594 l 1,25,-1
 616 585 l 1,26,-1
 625 585 l 1,27,-1
 628 567 l 1,28,-1
 637 567 l 1,29,-1
 639 558 l 1,30,-1
 647 558 l 1,31,-1
 650 541 l 1,32,-1
 659 541 l 1,33,-1
 662 523 l 1,34,-1
 671 523 l 1,35,-1
 676 496 l 1,36,-1
 685 496 l 1,37,-1
 689 470 l 1,38,-1
 698 470 l 1,39,-1
 709 408 l 1,40,-1
 718 408 l 1,41,-1
 739 292 l 1,42,-1
 730 292 l 1,43,-1
 737 248 l 1,44,-1
 728 248 l 1,45,-1
 734 213 l 1,46,-1
 725 213 l 1,47,-1
 729 195 l 1,48,-1
 720 195 l 1,49,-1
 724 168 l 1,50,-1
 715 168 l 1,51,-1
 718 151 l 1,52,-1
 710 151 l 1,53,-1
 712 142 l 1,54,-1
 703 142 l 1,55,-1
 706 124 l 1,56,-1
 697 124 l 1,57,-1
 699 115 l 1,58,-1
 690 115 l 1,59,-1
 691 106 l 1,60,-1
 682 106 l 1,61,-1
 684 97 l 1,62,-1
 675 97 l 1,63,-1
 676 89 l 1,64,-1
 667 89 l 1,65,-1
 669 80 l 1,66,-1
 652 80 l 1,67,-1
 653 71 l 1,68,-1
 644 71 l 1,69,-1
 646 62 l 1,70,-1
 628 62 l 1,71,-1
 630 53 l 1,72,-1
 612 53 l 1,73,-1
 613 44 l 1,74,-1
 596 44 l 1,75,-1
 598 35 l 1,76,-1
 571 35 l 1,77,-1
 572 27 l 1,78,-1
 545 27 l 1,79,-1
 547 18 l 1,80,-1
 494 18 l 1,81,-1
 495 9 l 1,82,-1
 398 9 l 1,83,-1
 400 0 l 1,84,-1
 72 0 l 1,85,-1
 -51 700 l 1,0,-1
381 106 m 1,86,-1
 380 115 l 1,87,-1
 460 115 l 1,88,-1
 458 124 l 1,89,-1
 493 124 l 1,90,-1
 492 133 l 1,91,-1
 510 133 l 1,92,-1
 508 142 l 1,93,-1
 525 142 l 1,94,-1
 523 151 l 1,95,-1
 541 151 l 1,96,-1
 540 159 l 1,97,-1
 549 159 l 1,98,-1
 547 168 l 1,99,-1
 556 168 l 1,100,-1
 555 177 l 1,101,-1
 564 177 l 1,102,-1
 562 186 l 1,103,-1
 571 186 l 1,104,-1
 570 195 l 1,105,-1
 579 195 l 1,106,-1
 577 204 l 1,107,-1
 585 204 l 1,108,-1
 582 222 l 1,109,-1
 591 222 l 1,110,-1
 586 248 l 1,111,-1
 595 248 l 1,112,-1
 589 284 l 1,113,-1
 598 284 l 1,114,-1
 575 416 l 1,115,-1
 566 416 l 1,116,-1
 558 461 l 1,117,-1
 549 461 l 1,118,-1
 546 478 l 1,119,-1
 537 478 l 1,120,-1
 534 496 l 1,121,-1
 526 496 l 1,122,-1
 522 514 l 1,123,-1
 513 514 l 1,124,-1
 512 523 l 1,125,-1
 503 523 l 1,126,-1
 501 532 l 1,127,-1
 492 532 l 1,128,-1
 491 541 l 1,129,-1
 482 541 l 1,130,-1
 480 549 l 1,131,-1
 471 549 l 1,132,-1
 470 558 l 1,133,-1
 452 558 l 1,134,-1
 450 567 l 1,135,-1
 433 567 l 1,136,-1
 431 576 l 1,137,-1
 404 576 l 1,138,-1
 403 585 l 1,139,-1
 377 585 l 1,140,-1
 375 594 l 1,141,-1
 100 594 l 1,142,-1
 185 115 l 1,143,-1
 247 115 l 1,144,-1
 248 106 l 1,145,-1
 381 106 l 1,86,-1
EndSplineSet
EndChar

StartChar: E
Encoding: 69 69 39
Width: 716
GlyphClass: 1
Flags: W
LayerCount: 2
Fore
SplineSet
-51 700 m 1,0,-1
 472 700 l 1,1,-1
 490 594 l 1,2,-1
 100 594 l 1,3,-1
 133 408 l 1,4,-1
 478 408 l 1,5,-1
 495 310 l 1,6,-1
 487 310 l 1,7,-1
 489 301 l 1,8,-1
 152 301 l 1,9,-1
 186 106 l 1,10,-1
 594 106 l 1,11,-1
 613 0 l 1,12,-1
 568 0 l 1,13,-1
 566 9 l 1,14,-1
 389 9 l 1,15,-1
 391 0 l 1,16,-1
 373 0 l 1,17,-1
 371 9 l 1,18,-1
 292 9 l 1,19,-1
 294 0 l 1,20,-1
 72 0 l 1,21,-1
 -51 700 l 1,0,-1
EndSplineSet
EndChar

StartChar: F
Encoding: 70 70 40
Width: 689
GlyphClass: 1
Flags: W
LayerCount: 2
Fore
SplineSet
-51 700 m 1,0,-1
 463 700 l 1,1,-1
 481 594 l 1,2,-1
 109 594 l 1,3,-1
 111 585 l 1,4,-1
 145 390 l 1,5,-1
 464 390 l 1,6,-1
 483 284 l 1,7,-1
 164 284 l 1,8,-1
 214 0 l 1,9,-1
 81 0 l 1,10,-1
 79 9 l 1,11,-1
 70 9 l 1,12,-1
 69 18 l 1,13,-1
 78 18 l 1,14,-1
 -41 691 l 1,15,-1
 -50 691 l 1,16,-1
 -51 700 l 1,0,-1
EndSplineSet
EndChar

StartChar: G
Encoding: 71 71 41
Width: 847
GlyphClass: 1
Flags: W
LayerCount: 2
Fore
SplineSet
379 384 m 1,0,-1
 678 384 l 1,1,-1
 738 43 l 1,2,-1
 721 43 l 1,3,-1
 723 34 l 1,4,-1
 697 34 l 1,5,-1
 698 26 l 1,6,-1
 664 26 l 1,7,-1
 666 17 l 1,8,-1
 615 17 l 1,9,-1
 616 9 l 1,10,-1
 565 9 l 1,11,-1
 567 0 l 1,12,-1
 379 0 l 1,13,-1
 377 9 l 1,14,-1
 326 9 l 1,15,-1
 325 17 l 1,16,-1
 299 17 l 1,17,-1
 297 26 l 1,18,-1
 271 26 l 1,19,-1
 270 34 l 1,20,-1
 253 34 l 1,21,-1
 251 43 l 1,22,-1
 234 43 l 1,23,-1
 233 51 l 1,24,-1
 216 51 l 1,25,-1
 214 60 l 1,26,-1
 197 60 l 1,27,-1
 196 68 l 1,28,-1
 188 68 l 1,29,-1
 186 77 l 1,30,-1
 177 77 l 1,31,-1
 176 85 l 1,32,-1
 167 85 l 1,33,-1
 165 94 l 1,34,-1
 157 94 l 1,35,-1
 156 102 l 1,36,-1
 147 102 l 1,37,-1
 145 111 l 1,38,-1
 137 111 l 1,39,-1
 136 120 l 1,40,-1
 127 120 l 1,41,-1
 125 128 l 1,42,-1
 117 128 l 1,43,-1
 116 137 l 1,44,-1
 107 137 l 1,45,-1
 104 154 l 1,46,-1
 96 154 l 1,47,-1
 93 171 l 1,48,-1
 84 171 l 1,49,-1
 81 188 l 1,50,-1
 73 188 l 1,51,-1
 70 205 l 1,52,-1
 61 205 l 1,53,-1
 55 239 l 1,54,-1
 47 239 l 1,55,-1
 41 273 l 1,56,-1
 32 273 l 1,57,-1
 3 435 l 1,58,-1
 12 435 l 1,59,-1
 6 470 l 1,60,-1
 14 470 l 1,61,-1
 10 495 l 1,62,-1
 19 495 l 1,63,-1
 14 521 l 1,64,-1
 22 521 l 1,65,-1
 19 538 l 1,66,-1
 28 538 l 1,67,-1
 25 555 l 1,68,-1
 33 555 l 1,69,-1
 32 563 l 1,70,-1
 41 563 l 1,71,-1
 38 580 l 1,72,-1
 46 580 l 1,73,-1
 44 589 l 1,74,-1
 53 589 l 1,75,-1
 52 598 l 1,76,-1
 60 598 l 1,77,-1
 58 606 l 1,78,-1
 67 606 l 1,79,-1
 66 615 l 1,80,-1
 74 615 l 1,81,-1
 72 623 l 1,82,-1
 81 623 l 1,83,-1
 80 632 l 1,84,-1
 97 632 l 1,85,-1
 95 640 l 1,86,-1
 104 640 l 1,87,-1
 103 649 l 1,88,-1
 120 649 l 1,89,-1
 118 657 l 1,90,-1
 135 657 l 1,91,-1
 134 666 l 1,92,-1
 151 666 l 1,93,-1
 149 674 l 1,94,-1
 174 674 l 1,95,-1
 173 683 l 1,96,-1
 208 683 l 1,97,-1
 206 691 l 1,98,-1
 248 691 l 1,99,-1
 247 700 l 1,100,-1
 469 700 l 1,101,-1
 470 691 l 1,102,-1
 513 691 l 1,103,-1
 515 683 l 1,104,-1
 558 683 l 1,105,-1
 559 674 l 1,106,-1
 593 674 l 1,107,-1
 595 666 l 1,108,-1
 612 666 l 1,109,-1
 631 555 l 1,110,-1
 614 555 l 1,111,-1
 613 563 l 1,112,-1
 579 563 l 1,113,-1
 577 572 l 1,114,-1
 551 572 l 1,115,-1
 550 580 l 1,116,-1
 507 580 l 1,117,-1
 505 589 l 1,118,-1
 454 589 l 1,119,-1
 453 598 l 1,120,-1
 308 598 l 1,121,-1
 309 589 l 1,122,-1
 266 589 l 1,123,-1
 268 580 l 1,124,-1
 243 580 l 1,125,-1
 244 572 l 1,126,-1
 218 572 l 1,127,-1
 220 563 l 1,128,-1
 211 563 l 1,129,-1
 212 555 l 1,130,-1
 195 555 l 1,131,-1
 197 546 l 1,132,-1
 189 546 l 1,133,-1
 190 538 l 1,134,-1
 181 538 l 1,135,-1
 183 529 l 1,136,-1
 175 529 l 1,137,-1
 176 521 l 1,138,-1
 167 521 l 1,139,-1
 169 512 l 1,140,-1
 161 512 l 1,141,-1
 164 495 l 1,142,-1
 155 495 l 1,143,-1
 156 487 l 1,144,-1
 148 487 l 1,145,-1
 153 461 l 1,146,-1
 144 461 l 1,147,-1
 150 427 l 1,148,-1
 142 427 l 1,149,-1
 166 290 l 1,150,-1
 174 290 l 1,151,-1
 181 248 l 1,152,-1
 190 248 l 1,153,-1
 193 230 l 1,154,-1
 201 230 l 1,155,-1
 204 213 l 1,156,-1
 213 213 l 1,157,-1
 216 196 l 1,158,-1
 224 196 l 1,159,-1
 227 179 l 1,160,-1
 236 179 l 1,161,-1
 238 171 l 1,162,-1
 246 171 l 1,163,-1
 247 162 l 1,164,-1
 256 162 l 1,165,-1
 258 154 l 1,166,-1
 266 154 l 1,167,-1
 267 145 l 1,168,-1
 284 145 l 1,169,-1
 286 137 l 1,170,-1
 304 137 l 1,171,-1
 305 128 l 1,172,-1
 322 128 l 1,173,-1
 324 120 l 1,174,-1
 349 120 l 1,175,-1
 350 111 l 1,176,-1
 393 111 l 1,177,-1
 395 102 l 1,178,-1
 523 102 l 1,179,-1
 521 111 l 1,180,-1
 564 111 l 1,181,-1
 563 120 l 1,182,-1
 588 120 l 1,183,-1
 559 282 l 1,184,-1
 397 282 l 1,185,-1
 379 384 l 1,0,-1
EndSplineSet
EndChar

StartChar: H
Encoding: 72 72 42
Width: 858
GlyphClass: 1
Flags: W
LayerCount: 2
Fore
SplineSet
490 700 m 1,0,-1
 622 700 l 1,1,-1
 742 18 l 1,2,-1
 751 18 l 1,3,-1
 752 9 l 1,4,-1
 743 9 l 1,5,-1
 745 0 l 1,6,-1
 737 0 l 1,7,-1
 735 9 l 1,8,-1
 726 9 l 1,9,-1
 728 0 l 1,10,-1
 613 0 l 1,11,-1
 560 301 l 1,12,-1
 161 301 l 1,13,-1
 214 0 l 1,14,-1
 205 0 l 1,15,-1
 203 9 l 1,16,-1
 194 9 l 1,17,-1
 196 0 l 1,18,-1
 152 0 l 1,19,-1
 150 9 l 1,20,-1
 141 9 l 1,21,-1
 143 0 l 1,22,-1
 81 0 l 1,23,-1
 79 9 l 1,24,-1
 70 9 l 1,25,-1
 -51 700 l 1,26,-1
 91 700 l 1,27,-1
 142 408 l 1,28,-1
 541 408 l 1,29,-1
 490 700 l 1,0,-1
EndSplineSet
EndChar

StartChar: I
Encoding: 73 73 43
Width: 538
GlyphClass: 1
Flags: W
LayerCount: 2
Fore
SplineSet
-63 700 m 1,0,-1
 79 700 l 1,1,-1
 80 691 l 1,2,-1
 71 691 l 1,3,-1
 81 638 l 1,4,-1
 90 638 l 1,5,-1
 99 585 l 1,6,-1
 90 585 l 1,7,-1
 93 567 l 1,8,-1
 102 567 l 1,9,-1
 149 301 l 1,10,-1
 140 301 l 1,11,-1
 146 266 l 1,12,-1
 155 266 l 1,13,-1
 158 248 l 1,14,-1
 149 248 l 1,15,-1
 152 230 l 1,16,-1
 161 230 l 1,17,-1
 163 222 l 1,18,-1
 154 222 l 1,19,-1
 155 213 l 1,20,-1
 164 213 l 1,21,-1
 174 159 l 1,22,-1
 165 159 l 1,23,-1
 187 35 l 1,24,-1
 196 35 l 1,25,-1
 197 27 l 1,26,-1
 188 27 l 1,27,-1
 190 18 l 1,28,-1
 199 18 l 1,29,-1
 200 9 l 1,30,-1
 191 9 l 1,31,-1
 193 0 l 1,32,-1
 69 0 l 1,33,-1
 67 9 l 1,34,-1
 58 9 l 1,35,-1
 -63 700 l 1,0,-1
EndSplineSet
EndChar

StartChar: J
Encoding: 74 74 44
Width: 623
GlyphClass: 1
Flags: W
LayerCount: 2
Fore
SplineSet
32 158 m 1,0,-1
 50 158 l 1,1,-1
 52 149 l 1,2,-1
 69 149 l 1,3,-1
 70 140 l 1,4,-1
 87 140 l 1,5,-1
 89 131 l 1,6,-1
 116 131 l 1,7,-1
 117 122 l 1,8,-1
 152 122 l 1,9,-1
 154 114 l 1,10,-1
 311 114 l 1,11,-1
 309 122 l 1,12,-1
 327 122 l 1,13,-1
 326 131 l 1,14,-1
 343 131 l 1,15,-1
 341 140 l 1,16,-1
 350 140 l 1,17,-1
 349 149 l 1,18,-1
 358 149 l 1,19,-1
 356 158 l 1,20,-1
 364 158 l 1,21,-1
 360 184 l 1,22,-1
 369 184 l 1,23,-1
 364 210 l 1,24,-1
 373 210 l 1,25,-1
 287 700 l 1,26,-1
 418 700 l 1,27,-1
 509 184 l 1,28,-1
 500 184 l 1,29,-1
 506 149 l 1,30,-1
 498 149 l 1,31,-1
 502 122 l 1,32,-1
 493 122 l 1,33,-1
 496 105 l 1,34,-1
 487 105 l 1,35,-1
 490 88 l 1,36,-1
 482 88 l 1,37,-1
 484 79 l 1,38,-1
 475 79 l 1,39,-1
 477 70 l 1,40,-1
 468 70 l 1,41,-1
 469 61 l 1,42,-1
 460 61 l 1,43,-1
 462 52 l 1,44,-1
 453 52 l 1,45,-1
 454 44 l 1,46,-1
 437 44 l 1,47,-1
 439 35 l 1,48,-1
 422 35 l 1,49,-1
 423 26 l 1,50,-1
 405 26 l 1,51,-1
 407 18 l 1,52,-1
 381 18 l 1,53,-1
 382 9 l 1,54,-1
 329 9 l 1,55,-1
 331 0 l 1,56,-1
 209 0 l 1,57,-1
 207 9 l 1,58,-1
 146 9 l 1,59,-1
 145 18 l 1,60,-1
 109 18 l 1,61,-1
 107 26 l 1,62,-1
 81 26 l 1,63,-1
 80 35 l 1,64,-1
 54 35 l 1,65,-1
 32 158 l 1,0,-1
EndSplineSet
EndChar

StartChar: K
Encoding: 75 75 45
Width: 840
GlyphClass: 1
Flags: W
LayerCount: 2
Fore
SplineSet
427 700 m 1,0,-1
 605 700 l 1,1,-1
 606 691 l 1,2,-1
 597 691 l 1,3,-1
 599 682 l 1,4,-1
 590 682 l 1,5,-1
 591 673 l 1,6,-1
 582 673 l 1,7,-1
 584 665 l 1,8,-1
 566 665 l 1,9,-1
 567 656 l 1,10,-1
 559 656 l 1,11,-1
 561 647 l 1,12,-1
 552 647 l 1,13,-1
 554 638 l 1,14,-1
 545 638 l 1,15,-1
 546 629 l 1,16,-1
 528 629 l 1,17,-1
 530 620 l 1,18,-1
 521 620 l 1,19,-1
 522 611 l 1,20,-1
 513 611 l 1,21,-1
 515 603 l 1,22,-1
 507 603 l 1,23,-1
 508 594 l 1,24,-1
 490 594 l 1,25,-1
 492 585 l 1,26,-1
 483 585 l 1,27,-1
 484 576 l 1,28,-1
 475 576 l 1,29,-1
 477 567 l 1,30,-1
 468 567 l 1,31,-1
 470 558 l 1,32,-1
 461 558 l 1,33,-1
 462 549 l 1,34,-1
 453 549 l 1,35,-1
 455 541 l 1,36,-1
 438 541 l 1,37,-1
 439 532 l 1,38,-1
 430 532 l 1,39,-1
 432 523 l 1,40,-1
 423 523 l 1,41,-1
 424 514 l 1,42,-1
 415 514 l 1,43,-1
 417 505 l 1,44,-1
 408 505 l 1,45,-1
 410 496 l 1,46,-1
 401 496 l 1,47,-1
 402 487 l 1,48,-1
 385 487 l 1,49,-1
 387 478 l 1,50,-1
 378 478 l 1,51,-1
 379 470 l 1,52,-1
 370 470 l 1,53,-1
 372 461 l 1,54,-1
 363 461 l 1,55,-1
 364 452 l 1,56,-1
 346 452 l 1,57,-1
 348 443 l 1,58,-1
 340 443 l 1,59,-1
 341 434 l 1,60,-1
 332 434 l 1,61,-1
 334 425 l 1,62,-1
 325 425 l 1,63,-1
 327 416 l 1,64,-1
 318 416 l 1,65,-1
 319 408 l 1,66,-1
 310 408 l 1,67,-1
 313 390 l 1,68,-1
 322 390 l 1,69,-1
 324 381 l 1,70,-1
 333 381 l 1,71,-1
 334 372 l 1,72,-1
 343 372 l 1,73,-1
 345 363 l 1,74,-1
 354 363 l 1,75,-1
 356 354 l 1,76,-1
 364 354 l 1,77,-1
 367 337 l 1,78,-1
 376 337 l 1,79,-1
 377 328 l 1,80,-1
 386 328 l 1,81,-1
 388 319 l 1,82,-1
 397 319 l 1,83,-1
 398 310 l 1,84,-1
 407 310 l 1,85,-1
 409 301 l 1,86,-1
 418 301 l 1,87,-1
 420 292 l 1,88,-1
 429 292 l 1,89,-1
 430 284 l 1,90,-1
 438 284 l 1,91,-1
 440 275 l 1,92,-1
 449 275 l 1,93,-1
 450 266 l 1,94,-1
 459 266 l 1,95,-1
 461 257 l 1,96,-1
 470 257 l 1,97,-1
 471 248 l 1,98,-1
 480 248 l 1,99,-1
 482 239 l 1,100,-1
 491 239 l 1,101,-1
 492 230 l 1,102,-1
 501 230 l 1,103,-1
 503 222 l 1,104,-1
 511 222 l 1,105,-1
 514 204 l 1,106,-1
 523 204 l 1,107,-1
 525 195 l 1,108,-1
 534 195 l 1,109,-1
 535 186 l 1,110,-1
 544 186 l 1,111,-1
 546 177 l 1,112,-1
 555 177 l 1,113,-1
 556 168 l 1,114,-1
 565 168 l 1,115,-1
 567 159 l 1,116,-1
 576 159 l 1,117,-1
 577 151 l 1,118,-1
 586 151 l 1,119,-1
 588 142 l 1,120,-1
 596 142 l 1,121,-1
 598 133 l 1,122,-1
 607 133 l 1,123,-1
 608 124 l 1,124,-1
 617 124 l 1,125,-1
 619 115 l 1,126,-1
 628 115 l 1,127,-1
 629 106 l 1,128,-1
 638 106 l 1,129,-1
 640 97 l 1,130,-1
 649 97 l 1,131,-1
 650 89 l 1,132,-1
 659 89 l 1,133,-1
 661 80 l 1,134,-1
 669 80 l 1,135,-1
 672 62 l 1,136,-1
 681 62 l 1,137,-1
 683 53 l 1,138,-1
 692 53 l 1,139,-1
 693 44 l 1,140,-1
 702 44 l 1,141,-1
 704 35 l 1,142,-1
 713 35 l 1,143,-1
 714 27 l 1,144,-1
 723 27 l 1,145,-1
 725 18 l 1,146,-1
 734 18 l 1,147,-1
 737 0 l 1,148,-1
 728 0 l 1,149,-1
 726 9 l 1,150,-1
 708 9 l 1,151,-1
 710 0 l 1,152,-1
 675 0 l 1,153,-1
 673 9 l 1,154,-1
 664 9 l 1,155,-1
 666 0 l 1,156,-1
 577 0 l 1,157,-1
 575 9 l 1,158,-1
 557 9 l 1,159,-1
 554 27 l 1,160,-1
 545 27 l 1,161,-1
 544 35 l 1,162,-1
 536 35 l 1,163,-1
 534 44 l 1,164,-1
 525 44 l 1,165,-1
 524 53 l 1,166,-1
 515 53 l 1,167,-1
 513 62 l 1,168,-1
 504 62 l 1,169,-1
 502 71 l 1,170,-1
 493 71 l 1,171,-1
 492 80 l 1,172,-1
 483 80 l 1,173,-1
 481 89 l 1,174,-1
 472 89 l 1,175,-1
 471 97 l 1,176,-1
 463 97 l 1,177,-1
 461 106 l 1,178,-1
 452 106 l 1,179,-1
 449 124 l 1,180,-1
 440 124 l 1,181,-1
 439 133 l 1,182,-1
 430 133 l 1,183,-1
 428 142 l 1,184,-1
 419 142 l 1,185,-1
 417 151 l 1,186,-1
 408 151 l 1,187,-1
 407 159 l 1,188,-1
 398 159 l 1,189,-1
 396 168 l 1,190,-1
 388 168 l 1,191,-1
 387 177 l 1,192,-1
 378 177 l 1,193,-1
 376 186 l 1,194,-1
 367 186 l 1,195,-1
 366 195 l 1,196,-1
 357 195 l 1,197,-1
 355 204 l 1,198,-1
 346 204 l 1,199,-1
 344 213 l 1,200,-1
 335 213 l 1,201,-1
 334 222 l 1,202,-1
 325 222 l 1,203,-1
 323 230 l 1,204,-1
 315 230 l 1,205,-1
 312 248 l 1,206,-1
 303 248 l 1,207,-1
 302 257 l 1,208,-1
 293 257 l 1,209,-1
 291 266 l 1,210,-1
 282 266 l 1,211,-1
 281 275 l 1,212,-1
 272 275 l 1,213,-1
 270 284 l 1,214,-1
 261 284 l 1,215,-1
 260 292 l 1,216,-1
 251 292 l 1,217,-1
 249 301 l 1,218,-1
 241 301 l 1,219,-1
 239 310 l 1,220,-1
 230 310 l 1,221,-1
 229 319 l 1,222,-1
 220 319 l 1,223,-1
 221 310 l 1,224,-1
 212 310 l 1,225,-1
 214 301 l 1,226,-1
 205 301 l 1,227,-1
 207 292 l 1,228,-1
 198 292 l 1,229,-1
 199 284 l 1,230,-1
 181 284 l 1,231,-1
 183 275 l 1,232,-1
 175 275 l 1,233,-1
 176 266 l 1,234,-1
 167 266 l 1,235,-1
 214 0 l 1,236,-1
 72 0 l 1,237,-1
 -51 700 l 1,238,-1
 91 700 l 1,239,-1
 141 416 l 1,240,-1
 150 416 l 1,241,-1
 148 425 l 1,242,-1
 165 425 l 1,243,-1
 163 434 l 1,244,-1
 172 434 l 1,245,-1
 171 443 l 1,246,-1
 180 443 l 1,247,-1
 178 452 l 1,248,-1
 187 452 l 1,249,-1
 186 461 l 1,250,-1
 195 461 l 1,251,-1
 193 470 l 1,252,-1
 202 470 l 1,253,-1
 201 478 l 1,254,-1
 218 478 l 1,255,-1
 216 487 l 1,256,-1
 225 487 l 1,257,-1
 224 496 l 1,258,-1
 233 496 l 1,259,-1
 231 505 l 1,260,-1
 240 505 l 1,261,-1
 238 514 l 1,262,-1
 247 514 l 1,263,-1
 246 523 l 1,264,-1
 264 523 l 1,265,-1
 262 532 l 1,266,-1
 270 532 l 1,267,-1
 269 541 l 1,268,-1
 278 541 l 1,269,-1
 276 549 l 1,270,-1
 285 549 l 1,271,-1
 284 558 l 1,272,-1
 293 558 l 1,273,-1
 291 567 l 1,274,-1
 309 567 l 1,275,-1
 307 576 l 1,276,-1
 316 576 l 1,277,-1
 315 585 l 1,278,-1
 323 585 l 1,279,-1
 321 594 l 1,280,-1
 330 594 l 1,281,-1
 329 603 l 1,282,-1
 338 603 l 1,283,-1
 336 611 l 1,284,-1
 345 611 l 1,285,-1
 344 620 l 1,286,-1
 353 620 l 1,287,-1
 351 629 l 1,288,-1
 369 629 l 1,289,-1
 368 638 l 1,290,-1
 376 638 l 1,291,-1
 374 647 l 1,292,-1
 383 647 l 1,293,-1
 381 656 l 1,294,-1
 390 656 l 1,295,-1
 389 665 l 1,296,-1
 398 665 l 1,297,-1
 396 673 l 1,298,-1
 414 673 l 1,299,-1
 413 682 l 1,300,-1
 422 682 l 1,301,-1
 420 691 l 1,302,-1
 428 691 l 1,303,-1
 427 700 l 1,0,-1
EndSplineSet
EndChar

StartChar: L
Encoding: 76 76 46
Width: 664
GlyphClass: 1
Flags: W
LayerCount: 2
Fore
SplineSet
-63 700 m 1,0,-1
 70 700 l 1,1,-1
 173 115 l 1,2,-1
 554 115 l 1,3,-1
 555 106 l 1,4,-1
 564 106 l 1,5,-1
 566 97 l 1,6,-1
 557 97 l 1,7,-1
 558 89 l 1,8,-1
 567 89 l 1,9,-1
 578 27 l 1,10,-1
 569 27 l 1,11,-1
 571 18 l 1,12,-1
 580 18 l 1,13,-1
 581 9 l 1,14,-1
 572 9 l 1,15,-1
 574 0 l 1,16,-1
 565 0 l 1,17,-1
 563 9 l 1,18,-1
 554 9 l 1,19,-1
 556 0 l 1,20,-1
 423 0 l 1,21,-1
 421 9 l 1,22,-1
 102 9 l 1,23,-1
 104 0 l 1,24,-1
 60 0 l 1,25,-1
 -63 700 l 1,0,-1
EndSplineSet
EndChar

StartChar: M
Encoding: 77 77 47
Width: 1144
GlyphClass: 1
Flags: W
LayerCount: 2
Fore
SplineSet
644 700 m 1,0,-1
 833 700 l 1,1,-1
 837 673 l 1,2,-1
 845 673 l 1,3,-1
 860 592 l 1,4,-1
 869 592 l 1,5,-1
 886 494 l 1,6,-1
 895 494 l 1,7,-1
 908 422 l 1,8,-1
 917 422 l 1,9,-1
 931 341 l 1,10,-1
 940 341 l 1,11,-1
 953 269 l 1,12,-1
 962 269 l 1,13,-1
 974 197 l 1,14,-1
 983 197 l 1,15,-1
 996 126 l 1,16,-1
 1005 126 l 1,17,-1
 1017 54 l 1,18,-1
 1026 54 l 1,19,-1
 1036 0 l 1,20,-1
 893 0 l 1,21,-1
 882 63 l 1,22,-1
 873 63 l 1,23,-1
 859 144 l 1,24,-1
 850 144 l 1,25,-1
 834 233 l 1,26,-1
 825 233 l 1,27,-1
 811 314 l 1,28,-1
 802 314 l 1,29,-1
 786 404 l 1,30,-1
 777 404 l 1,31,-1
 764 476 l 1,32,-1
 755 476 l 1,33,-1
 738 574 l 1,34,-1
 729 574 l 1,35,-1
 734 547 l 1,36,-1
 725 547 l 1,37,-1
 728 529 l 1,38,-1
 719 529 l 1,39,-1
 723 503 l 1,40,-1
 714 503 l 1,41,-1
 719 476 l 1,42,-1
 710 476 l 1,43,-1
 713 458 l 1,44,-1
 704 458 l 1,45,-1
 709 431 l 1,46,-1
 700 431 l 1,47,-1
 703 413 l 1,48,-1
 694 413 l 1,49,-1
 699 386 l 1,50,-1
 690 386 l 1,51,-1
 693 368 l 1,52,-1
 684 368 l 1,53,-1
 689 341 l 1,54,-1
 680 341 l 1,55,-1
 683 323 l 1,56,-1
 674 323 l 1,57,-1
 679 296 l 1,58,-1
 670 296 l 1,59,-1
 675 269 l 1,60,-1
 666 269 l 1,61,-1
 669 251 l 1,62,-1
 660 251 l 1,63,-1
 665 224 l 1,64,-1
 656 224 l 1,65,-1
 660 197 l 1,66,-1
 651 197 l 1,67,-1
 654 179 l 1,68,-1
 645 179 l 1,69,-1
 650 153 l 1,70,-1
 641 153 l 1,71,-1
 646 126 l 1,72,-1
 637 126 l 1,73,-1
 640 108 l 1,74,-1
 631 108 l 1,75,-1
 636 81 l 1,76,-1
 627 81 l 1,77,-1
 631 54 l 1,78,-1
 622 54 l 1,79,-1
 626 36 l 1,80,-1
 617 36 l 1,81,-1
 621 9 l 1,82,-1
 612 9 l 1,83,-1
 614 0 l 1,84,-1
 507 0 l 1,85,-1
 504 18 l 1,86,-1
 495 18 l 1,87,-1
 490 45 l 1,88,-1
 481 45 l 1,89,-1
 478 63 l 1,90,-1
 469 63 l 1,91,-1
 464 90 l 1,92,-1
 455 90 l 1,93,-1
 452 108 l 1,94,-1
 443 108 l 1,95,-1
 438 135 l 1,96,-1
 429 135 l 1,97,-1
 426 153 l 1,98,-1
 417 153 l 1,99,-1
 412 179 l 1,100,-1
 403 179 l 1,101,-1
 400 197 l 1,102,-1
 391 197 l 1,103,-1
 388 215 l 1,104,-1
 379 215 l 1,105,-1
 374 242 l 1,106,-1
 365 242 l 1,107,-1
 362 260 l 1,108,-1
 353 260 l 1,109,-1
 348 287 l 1,110,-1
 339 287 l 1,111,-1
 336 305 l 1,112,-1
 327 305 l 1,113,-1
 322 332 l 1,114,-1
 313 332 l 1,115,-1
 310 350 l 1,116,-1
 301 350 l 1,117,-1
 298 368 l 1,118,-1
 289 368 l 1,119,-1
 284 395 l 1,120,-1
 275 395 l 1,121,-1
 272 413 l 1,122,-1
 263 413 l 1,123,-1
 260 431 l 1,124,-1
 251 431 l 1,125,-1
 246 458 l 1,126,-1
 237 458 l 1,127,-1
 234 476 l 1,128,-1
 225 476 l 1,129,-1
 220 503 l 1,130,-1
 211 503 l 1,131,-1
 208 521 l 1,132,-1
 199 521 l 1,133,-1
 196 538 l 1,134,-1
 187 538 l 1,135,-1
 186 547 l 1,136,-1
 177 547 l 1,137,-1
 189 476 l 1,138,-1
 180 476 l 1,139,-1
 190 422 l 1,140,-1
 182 422 l 1,141,-1
 193 359 l 1,142,-1
 184 359 l 1,143,-1
 193 305 l 1,144,-1
 184 305 l 1,145,-1
 197 233 l 1,146,-1
 188 233 l 1,147,-1
 200 162 l 1,148,-1
 191 162 l 1,149,-1
 201 108 l 1,150,-1
 192 108 l 1,151,-1
 203 45 l 1,152,-1
 194 45 l 1,153,-1
 202 0 l 1,154,-1
 85 0 l 1,155,-1
 77 45 l 1,156,-1
 86 45 l 1,157,-1
 77 99 l 1,158,-1
 86 99 l 1,159,-1
 76 153 l 1,160,-1
 85 153 l 1,161,-1
 74 215 l 1,162,-1
 83 215 l 1,163,-1
 74 269 l 1,164,-1
 83 269 l 1,165,-1
 73 323 l 1,166,-1
 82 323 l 1,167,-1
 73 377 l 1,168,-1
 82 377 l 1,169,-1
 72 431 l 1,170,-1
 81 431 l 1,171,-1
 71 485 l 1,172,-1
 80 485 l 1,173,-1
 71 538 l 1,174,-1
 80 538 l 1,175,-1
 69 601 l 1,176,-1
 78 601 l 1,177,-1
 65 673 l 1,178,-1
 56 673 l 1,179,-1
 52 700 l 1,180,-1
 240 700 l 1,181,-1
 243 682 l 1,182,-1
 252 682 l 1,183,-1
 257 655 l 1,184,-1
 266 655 l 1,185,-1
 269 637 l 1,186,-1
 278 637 l 1,187,-1
 282 610 l 1,188,-1
 291 610 l 1,189,-1
 295 592 l 1,190,-1
 304 592 l 1,191,-1
 307 574 l 1,192,-1
 316 574 l 1,193,-1
 321 547 l 1,194,-1
 330 547 l 1,195,-1
 333 529 l 1,196,-1
 342 529 l 1,197,-1
 346 503 l 1,198,-1
 355 503 l 1,199,-1
 358 485 l 1,200,-1
 367 485 l 1,201,-1
 371 467 l 1,202,-1
 380 467 l 1,203,-1
 384 440 l 1,204,-1
 393 440 l 1,205,-1
 397 422 l 1,206,-1
 406 422 l 1,207,-1
 410 395 l 1,208,-1
 419 395 l 1,209,-1
 423 377 l 1,210,-1
 432 377 l 1,211,-1
 435 359 l 1,212,-1
 444 359 l 1,213,-1
 448 332 l 1,214,-1
 457 332 l 1,215,-1
 461 314 l 1,216,-1
 470 314 l 1,217,-1
 474 287 l 1,218,-1
 483 287 l 1,219,-1
 487 269 l 1,220,-1
 496 269 l 1,221,-1
 500 242 l 1,222,-1
 509 242 l 1,223,-1
 514 215 l 1,224,-1
 523 215 l 1,225,-1
 526 197 l 1,226,-1
 535 197 l 1,227,-1
 537 188 l 1,228,-1
 546 188 l 1,229,-1
 541 215 l 1,230,-1
 550 215 l 1,231,-1
 547 233 l 1,232,-1
 556 233 l 1,233,-1
 551 260 l 1,234,-1
 560 260 l 1,235,-1
 557 278 l 1,236,-1
 565 278 l 1,237,-1
 560 305 l 1,238,-1
 569 305 l 1,239,-1
 566 323 l 1,240,-1
 575 323 l 1,241,-1
 570 350 l 1,242,-1
 579 350 l 1,243,-1
 575 377 l 1,244,-1
 584 377 l 1,245,-1
 580 395 l 1,246,-1
 589 395 l 1,247,-1
 585 422 l 1,248,-1
 594 422 l 1,249,-1
 590 440 l 1,250,-1
 599 440 l 1,251,-1
 595 467 l 1,252,-1
 604 467 l 1,253,-1
 600 485 l 1,254,-1
 609 485 l 1,255,-1
 605 512 l 1,256,-1
 614 512 l 1,257,-1
 609 538 l 1,258,-1
 618 538 l 1,259,-1
 615 556 l 1,260,-1
 624 556 l 1,261,-1
 619 583 l 1,262,-1
 628 583 l 1,263,-1
 623 610 l 1,264,-1
 632 610 l 1,265,-1
 629 628 l 1,266,-1
 638 628 l 1,267,-1
 634 655 l 1,268,-1
 643 655 l 1,269,-1
 638 682 l 1,270,-1
 647 682 l 1,271,-1
 644 700 l 1,0,-1
EndSplineSet
EndChar

StartChar: N
Encoding: 78 78 48
Width: 822
GlyphClass: 1
Flags: W
LayerCount: 2
Fore
SplineSet
472 700 m 1,0,-1
 596 700 l 1,1,-1
 719 0 l 1,2,-1
 710 0 l 1,3,-1
 708 9 l 1,4,-1
 584 9 l 1,5,-1
 581 27 l 1,6,-1
 572 27 l 1,7,-1
 571 35 l 1,8,-1
 562 35 l 1,9,-1
 560 44 l 1,10,-1
 551 44 l 1,11,-1
 550 53 l 1,12,-1
 541 53 l 1,13,-1
 539 62 l 1,14,-1
 531 62 l 1,15,-1
 528 80 l 1,16,-1
 519 80 l 1,17,-1
 517 89 l 1,18,-1
 508 89 l 1,19,-1
 507 97 l 1,20,-1
 498 97 l 1,21,-1
 496 106 l 1,22,-1
 487 106 l 1,23,-1
 484 124 l 1,24,-1
 475 124 l 1,25,-1
 474 133 l 1,26,-1
 465 133 l 1,27,-1
 463 142 l 1,28,-1
 455 142 l 1,29,-1
 453 151 l 1,30,-1
 444 151 l 1,31,-1
 441 168 l 1,32,-1
 432 168 l 1,33,-1
 431 177 l 1,34,-1
 422 177 l 1,35,-1
 420 186 l 1,36,-1
 411 186 l 1,37,-1
 410 195 l 1,38,-1
 401 195 l 1,39,-1
 397 213 l 1,40,-1
 388 213 l 1,41,-1
 387 222 l 1,42,-1
 379 222 l 1,43,-1
 377 230 l 1,44,-1
 368 230 l 1,45,-1
 367 239 l 1,46,-1
 358 239 l 1,47,-1
 355 257 l 1,48,-1
 346 257 l 1,49,-1
 344 266 l 1,50,-1
 335 266 l 1,51,-1
 334 275 l 1,52,-1
 325 275 l 1,53,-1
 323 284 l 1,54,-1
 314 284 l 1,55,-1
 311 301 l 1,56,-1
 303 301 l 1,57,-1
 301 310 l 1,58,-1
 292 310 l 1,59,-1
 291 319 l 1,60,-1
 282 319 l 1,61,-1
 280 328 l 1,62,-1
 271 328 l 1,63,-1
 268 346 l 1,64,-1
 259 346 l 1,65,-1
 258 354 l 1,66,-1
 249 354 l 1,67,-1
 247 363 l 1,68,-1
 238 363 l 1,69,-1
 236 372 l 1,70,-1
 228 372 l 1,71,-1
 227 381 l 1,72,-1
 218 381 l 1,73,-1
 215 399 l 1,74,-1
 206 399 l 1,75,-1
 204 408 l 1,76,-1
 195 408 l 1,77,-1
 194 416 l 1,78,-1
 185 416 l 1,79,-1
 183 425 l 1,80,-1
 174 425 l 1,81,-1
 171 443 l 1,82,-1
 162 443 l 1,83,-1
 160 452 l 1,84,-1
 151 452 l 1,85,-1
 150 461 l 1,86,-1
 142 461 l 1,87,-1
 139 478 l 1,88,-1
 130 478 l 1,89,-1
 128 487 l 1,90,-1
 119 487 l 1,91,-1
 118 496 l 1,92,-1
 109 496 l 1,93,-1
 107 505 l 1,94,-1
 98 505 l 1,95,-1
 101 487 l 1,96,-1
 110 487 l 1,97,-1
 121 425 l 1,98,-1
 112 425 l 1,99,-1
 184 18 l 1,100,-1
 193 18 l 1,101,-1
 194 9 l 1,102,-1
 185 9 l 1,103,-1
 187 0 l 1,104,-1
 178 0 l 1,105,-1
 176 9 l 1,106,-1
 123 9 l 1,107,-1
 125 0 l 1,108,-1
 99 0 l 1,109,-1
 97 9 l 1,110,-1
 88 9 l 1,111,-1
 90 0 l 1,112,-1
 72 0 l 1,113,-1
 -51 700 l 1,114,-1
 91 700 l 1,115,-1
 92 691 l 1,116,-1
 101 691 l 1,117,-1
 103 682 l 1,118,-1
 111 682 l 1,119,-1
 112 673 l 1,120,-1
 121 673 l 1,121,-1
 123 665 l 1,122,-1
 132 665 l 1,123,-1
 135 647 l 1,124,-1
 144 647 l 1,125,-1
 146 638 l 1,126,-1
 155 638 l 1,127,-1
 156 629 l 1,128,-1
 165 629 l 1,129,-1
 168 611 l 1,130,-1
 177 611 l 1,131,-1
 179 603 l 1,132,-1
 188 603 l 1,133,-1
 189 594 l 1,134,-1
 197 594 l 1,135,-1
 199 585 l 1,136,-1
 208 585 l 1,137,-1
 211 567 l 1,138,-1
 220 567 l 1,139,-1
 222 558 l 1,140,-1
 231 558 l 1,141,-1
 232 549 l 1,142,-1
 241 549 l 1,143,-1
 244 532 l 1,144,-1
 253 532 l 1,145,-1
 255 523 l 1,146,-1
 264 523 l 1,147,-1
 265 514 l 1,148,-1
 273 514 l 1,149,-1
 275 505 l 1,150,-1
 284 505 l 1,151,-1
 287 487 l 1,152,-1
 296 487 l 1,153,-1
 298 478 l 1,154,-1
 307 478 l 1,155,-1
 308 470 l 1,156,-1
 317 470 l 1,157,-1
 320 452 l 1,158,-1
 329 452 l 1,159,-1
 331 443 l 1,160,-1
 340 443 l 1,161,-1
 341 434 l 1,162,-1
 349 434 l 1,163,-1
 351 425 l 1,164,-1
 360 425 l 1,165,-1
 363 408 l 1,166,-1
 372 408 l 1,167,-1
 374 399 l 1,168,-1
 383 399 l 1,169,-1
 384 390 l 1,170,-1
 393 390 l 1,171,-1
 395 381 l 1,172,-1
 404 381 l 1,173,-1
 407 363 l 1,174,-1
 416 363 l 1,175,-1
 418 354 l 1,176,-1
 426 354 l 1,177,-1
 427 346 l 1,178,-1
 436 346 l 1,179,-1
 438 337 l 1,180,-1
 447 337 l 1,181,-1
 450 319 l 1,182,-1
 459 319 l 1,183,-1
 460 310 l 1,184,-1
 469 310 l 1,185,-1
 471 301 l 1,186,-1
 480 301 l 1,187,-1
 482 292 l 1,188,-1
 491 292 l 1,189,-1
 494 275 l 1,190,-1
 502 275 l 1,191,-1
 503 266 l 1,192,-1
 512 266 l 1,193,-1
 514 257 l 1,194,-1
 523 257 l 1,195,-1
 524 248 l 1,196,-1
 533 248 l 1,197,-1
 536 230 l 1,198,-1
 545 230 l 1,199,-1
 547 222 l 1,200,-1
 556 222 l 1,201,-1
 472 700 l 1,0,-1
556 222 m 1,202,-1
 557 213 l 1,203,-1
 566 213 l 1,204,-1
 565 222 l 1,205,-1
 556 222 l 1,202,-1
EndSplineSet
EndChar

StartChar: O
Encoding: 79 79 49
Width: 933
GlyphClass: 1
Flags: W
LayerCount: 2
Fore
SplineSet
242 700 m 1,0,-1
 432 700 l 1,1,-1
 433 691 l 1,2,-1
 468 691 l 1,3,-1
 470 683 l 1,4,-1
 496 683 l 1,5,-1
 497 674 l 1,6,-1
 523 674 l 1,7,-1
 525 665 l 1,8,-1
 542 665 l 1,9,-1
 543 657 l 1,10,-1
 560 657 l 1,11,-1
 562 648 l 1,12,-1
 571 648 l 1,13,-1
 572 640 l 1,14,-1
 589 640 l 1,15,-1
 591 631 l 1,16,-1
 600 631 l 1,17,-1
 601 622 l 1,18,-1
 610 622 l 1,19,-1
 612 614 l 1,20,-1
 620 614 l 1,21,-1
 621 605 l 1,22,-1
 630 605 l 1,23,-1
 632 596 l 1,24,-1
 640 596 l 1,25,-1
 641 588 l 1,26,-1
 650 588 l 1,27,-1
 652 579 l 1,28,-1
 661 579 l 1,29,-1
 662 570 l 1,30,-1
 670 570 l 1,31,-1
 673 553 l 1,32,-1
 682 553 l 1,33,-1
 684 544 l 1,34,-1
 693 544 l 1,35,-1
 696 527 l 1,36,-1
 704 527 l 1,37,-1
 709 501 l 1,38,-1
 718 501 l 1,39,-1
 721 484 l 1,40,-1
 730 484 l 1,41,-1
 736 449 l 1,42,-1
 744 449 l 1,43,-1
 751 406 l 1,44,-1
 760 406 l 1,45,-1
 780 294 l 1,46,-1
 771 294 l 1,47,-1
 780 242 l 1,48,-1
 772 242 l 1,49,-1
 777 216 l 1,50,-1
 768 216 l 1,51,-1
 772 190 l 1,52,-1
 763 190 l 1,53,-1
 766 173 l 1,54,-1
 758 173 l 1,55,-1
 761 156 l 1,56,-1
 752 156 l 1,57,-1
 754 147 l 1,58,-1
 745 147 l 1,59,-1
 748 130 l 1,60,-1
 740 130 l 1,61,-1
 742 121 l 1,62,-1
 733 121 l 1,63,-1
 734 112 l 1,64,-1
 725 112 l 1,65,-1
 727 104 l 1,66,-1
 719 104 l 1,67,-1
 720 95 l 1,68,-1
 711 95 l 1,69,-1
 713 86 l 1,70,-1
 705 86 l 1,71,-1
 706 78 l 1,72,-1
 697 78 l 1,73,-1
 699 69 l 1,74,-1
 690 69 l 1,75,-1
 691 60 l 1,76,-1
 674 60 l 1,77,-1
 676 52 l 1,78,-1
 659 52 l 1,79,-1
 660 43 l 1,80,-1
 642 43 l 1,81,-1
 644 35 l 1,82,-1
 627 35 l 1,83,-1
 628 26 l 1,84,-1
 602 26 l 1,85,-1
 604 17 l 1,86,-1
 570 17 l 1,87,-1
 571 9 l 1,88,-1
 510 9 l 1,89,-1
 512 0 l 1,90,-1
 374 0 l 1,91,-1
 372 9 l 1,92,-1
 329 9 l 1,93,-1
 328 17 l 1,94,-1
 293 17 l 1,95,-1
 291 26 l 1,96,-1
 265 26 l 1,97,-1
 264 35 l 1,98,-1
 247 35 l 1,99,-1
 245 43 l 1,100,-1
 228 43 l 1,101,-1
 227 52 l 1,102,-1
 209 52 l 1,103,-1
 207 60 l 1,104,-1
 199 60 l 1,105,-1
 198 69 l 1,106,-1
 180 69 l 1,107,-1
 178 78 l 1,108,-1
 170 78 l 1,109,-1
 169 86 l 1,110,-1
 160 86 l 1,111,-1
 158 95 l 1,112,-1
 149 95 l 1,113,-1
 148 104 l 1,114,-1
 140 104 l 1,115,-1
 138 112 l 1,116,-1
 129 112 l 1,117,-1
 128 121 l 1,118,-1
 119 121 l 1,119,-1
 116 138 l 1,120,-1
 108 138 l 1,121,-1
 104 156 l 1,122,-1
 95 156 l 1,123,-1
 94 164 l 1,124,-1
 86 164 l 1,125,-1
 83 181 l 1,126,-1
 74 181 l 1,127,-1
 70 207 l 1,128,-1
 60 207 l 1,129,-1
 56 233 l 1,130,-1
 48 233 l 1,131,-1
 40 277 l 1,132,-1
 31 277 l 1,133,-1
 4 432 l 1,134,-1
 13 432 l 1,135,-1
 7 467 l 1,136,-1
 15 467 l 1,137,-1
 10 493 l 1,138,-1
 19 493 l 1,139,-1
 14 519 l 1,140,-1
 23 519 l 1,141,-1
 20 536 l 1,142,-1
 28 536 l 1,143,-1
 25 553 l 1,144,-1
 34 553 l 1,145,-1
 33 562 l 1,146,-1
 41 562 l 1,147,-1
 38 579 l 1,148,-1
 47 579 l 1,149,-1
 45 588 l 1,150,-1
 54 588 l 1,151,-1
 53 596 l 1,152,-1
 61 596 l 1,153,-1
 59 605 l 1,154,-1
 68 605 l 1,155,-1
 67 614 l 1,156,-1
 76 614 l 1,157,-1
 74 622 l 1,158,-1
 82 622 l 1,159,-1
 81 631 l 1,160,-1
 90 631 l 1,161,-1
 88 640 l 1,162,-1
 105 640 l 1,163,-1
 104 648 l 1,164,-1
 122 648 l 1,165,-1
 120 657 l 1,166,-1
 128 657 l 1,167,-1
 127 665 l 1,168,-1
 153 665 l 1,169,-1
 151 674 l 1,170,-1
 177 674 l 1,171,-1
 176 683 l 1,172,-1
 202 683 l 1,173,-1
 200 691 l 1,174,-1
 243 691 l 1,175,-1
 242 700 l 1,0,-1
503 104 m 1,176,-1
 501 112 l 1,177,-1
 535 112 l 1,178,-1
 534 121 l 1,179,-1
 560 121 l 1,180,-1
 558 130 l 1,181,-1
 567 130 l 1,182,-1
 566 138 l 1,183,-1
 583 138 l 1,184,-1
 581 147 l 1,185,-1
 590 147 l 1,186,-1
 588 156 l 1,187,-1
 605 156 l 1,188,-1
 604 164 l 1,189,-1
 613 164 l 1,190,-1
 610 181 l 1,191,-1
 618 181 l 1,192,-1
 616 190 l 1,193,-1
 625 190 l 1,194,195
 624 190 624 190 622 207 c 1,196,-1
 632 207 l 1,197,-1
 628 225 l 1,198,-1
 636 225 l 1,199,-1
 633 242 l 1,200,-1
 642 242 l 1,201,-1
 635 285 l 1,202,-1
 644 285 l 1,203,-1
 622 406 l 1,204,-1
 613 406 l 1,205,-1
 607 441 l 1,206,-1
 598 441 l 1,207,-1
 594 467 l 1,208,-1
 586 467 l 1,209,-1
 581 493 l 1,210,-1
 572 493 l 1,211,-1
 571 501 l 1,212,-1
 562 501 l 1,213,-1
 558 519 l 1,214,-1
 550 519 l 1,215,-1
 549 527 l 1,216,-1
 540 527 l 1,217,-1
 538 536 l 1,218,-1
 529 536 l 1,219,-1
 528 544 l 1,220,-1
 520 544 l 1,221,-1
 518 553 l 1,222,-1
 509 553 l 1,223,-1
 508 562 l 1,224,-1
 500 562 l 1,225,-1
 498 570 l 1,226,-1
 480 570 l 1,227,-1
 479 579 l 1,228,-1
 453 579 l 1,229,-1
 451 588 l 1,230,-1
 417 588 l 1,231,-1
 416 596 l 1,232,-1
 286 596 l 1,233,-1
 287 588 l 1,234,-1
 244 588 l 1,235,-1
 246 579 l 1,236,-1
 229 579 l 1,237,-1
 230 570 l 1,238,-1
 212 570 l 1,239,-1
 214 562 l 1,240,-1
 197 562 l 1,241,-1
 198 553 l 1,242,-1
 189 553 l 1,243,-1
 191 544 l 1,244,-1
 183 544 l 1,245,-1
 184 536 l 1,246,-1
 175 536 l 1,247,-1
 177 527 l 1,248,-1
 168 527 l 1,249,-1
 171 510 l 1,250,-1
 163 510 l 1,251,-1
 166 493 l 1,252,-1
 157 493 l 1,253,-1
 160 475 l 1,254,-1
 152 475 l 1,255,-1
 157 449 l 1,256,-1
 148 449 l 1,257,-1
 154 415 l 1,258,-1
 145 415 l 1,259,-1
 168 285 l 1,260,-1
 177 285 l 1,261,-1
 184 242 l 1,262,-1
 193 242 l 1,263,-1
 196 225 l 1,264,-1
 204 225 l 1,265,-1
 209 199 l 1,266,-1
 218 199 l 1,267,-1
 219 190 l 1,268,-1
 227 190 l 1,269,-1
 230 173 l 1,270,-1
 239 173 l 1,271,-1
 241 164 l 1,272,-1
 250 164 l 1,273,-1
 251 156 l 1,274,-1
 259 156 l 1,275,-1
 261 147 l 1,276,-1
 270 147 l 1,277,-1
 272 138 l 1,278,-1
 289 138 l 1,279,-1
 290 130 l 1,280,-1
 308 130 l 1,281,-1
 310 121 l 1,282,-1
 327 121 l 1,283,-1
 328 112 l 1,284,-1
 362 112 l 1,285,-1
 364 104 l 1,286,-1
 503 104 l 1,176,-1
EndSplineSet
EndChar

StartChar: P
Encoding: 80 80 50
Width: 778
GlyphClass: 1
Flags: W
LayerCount: 2
Fore
SplineSet
-42 700 m 1,0,-1
 348 700 l 1,1,-1
 349 691 l 1,2,-1
 393 691 l 1,3,-1
 395 682 l 1,4,-1
 422 682 l 1,5,-1
 423 673 l 1,6,-1
 440 673 l 1,7,-1
 442 665 l 1,8,-1
 460 665 l 1,9,-1
 461 656 l 1,10,-1
 470 656 l 1,11,-1
 472 647 l 1,12,-1
 481 647 l 1,13,-1
 483 638 l 1,14,-1
 501 638 l 1,15,-1
 502 629 l 1,16,-1
 510 629 l 1,17,-1
 512 620 l 1,18,-1
 521 620 l 1,19,-1
 524 603 l 1,20,-1
 533 603 l 1,21,-1
 534 594 l 1,22,-1
 543 594 l 1,23,-1
 546 576 l 1,24,-1
 555 576 l 1,25,-1
 560 549 l 1,26,-1
 569 549 l 1,27,-1
 574 523 l 1,28,-1
 583 523 l 1,29,-1
 602 416 l 1,30,-1
 593 416 l 1,31,-1
 599 381 l 1,32,-1
 590 381 l 1,33,-1
 593 363 l 1,34,-1
 584 363 l 1,35,-1
 587 346 l 1,36,-1
 578 346 l 1,37,-1
 581 328 l 1,38,-1
 572 328 l 1,39,-1
 574 319 l 1,40,-1
 565 319 l 1,41,-1
 566 310 l 1,42,-1
 558 310 l 1,43,-1
 560 301 l 1,44,-1
 551 301 l 1,45,-1
 553 292 l 1,46,-1
 544 292 l 1,47,-1
 545 284 l 1,48,-1
 527 284 l 1,49,-1
 529 275 l 1,50,-1
 511 275 l 1,51,-1
 512 266 l 1,52,-1
 495 266 l 1,53,-1
 497 257 l 1,54,-1
 470 257 l 1,55,-1
 471 248 l 1,56,-1
 436 248 l 1,57,-1
 438 239 l 1,58,-1
 172 239 l 1,59,-1
 212 9 l 1,60,-1
 88 9 l 1,61,-1
 90 0 l 1,62,-1
 81 0 l 1,63,-1
 79 9 l 1,64,-1
 70 9 l 1,65,-1
 69 18 l 1,66,-1
 78 18 l 1,67,-1
 -39 682 l 1,68,-1
 -48 682 l 1,69,-1
 -50 691 l 1,70,-1
 -41 691 l 1,71,-1
 -42 700 l 1,0,-1
383 346 m 1,72,-1
 382 354 l 1,73,-1
 409 354 l 1,74,-1
 407 363 l 1,75,-1
 424 363 l 1,76,-1
 422 372 l 1,77,-1
 440 372 l 1,78,-1
 439 381 l 1,79,-1
 448 381 l 1,80,-1
 446 390 l 1,81,-1
 455 390 l 1,82,-1
 452 408 l 1,83,-1
 461 408 l 1,84,-1
 442 514 l 1,85,-1
 433 514 l 1,86,-1
 430 532 l 1,87,-1
 421 532 l 1,88,-1
 418 549 l 1,89,-1
 409 549 l 1,90,-1
 408 558 l 1,91,-1
 399 558 l 1,92,-1
 397 567 l 1,93,-1
 380 567 l 1,94,-1
 378 576 l 1,95,-1
 360 576 l 1,96,-1
 359 585 l 1,97,-1
 315 585 l 1,98,-1
 313 594 l 1,99,-1
 109 594 l 1,100,-1
 153 346 l 1,101,-1
 383 346 l 1,72,-1
EndSplineSet
EndChar

StartChar: Q
Encoding: 81 81 51
Width: 890
GlyphClass: 1
Flags: W
LayerCount: 2
Fore
SplineSet
362 293 m 1,0,-1
 370 293 l 1,1,-1
 372 285 l 1,2,-1
 380 285 l 1,3,-1
 381 277 l 1,4,-1
 397 277 l 1,5,-1
 399 269 l 1,6,-1
 416 269 l 1,7,-1
 417 260 l 1,8,-1
 433 260 l 1,9,-1
 435 252 l 1,10,-1
 451 252 l 1,11,-1
 452 244 l 1,12,-1
 460 244 l 1,13,-1
 461 236 l 1,14,-1
 478 236 l 1,15,-1
 480 228 l 1,16,-1
 496 228 l 1,17,-1
 497 220 l 1,18,-1
 505 220 l 1,19,-1
 507 212 l 1,20,-1
 523 212 l 1,21,-1
 524 203 l 1,22,-1
 532 203 l 1,23,-1
 534 195 l 1,24,-1
 551 195 l 1,25,-1
 552 187 l 1,26,-1
 560 187 l 1,27,-1
 559 195 l 1,28,-1
 567 195 l 1,29,-1
 565 203 l 1,30,-1
 573 203 l 1,31,-1
 572 212 l 1,32,-1
 580 212 l 1,33,-1
 577 228 l 1,34,-1
 585 228 l 1,35,-1
 583 236 l 1,36,-1
 591 236 l 1,37,-1
 589 252 l 1,38,-1
 598 252 l 1,39,-1
 593 277 l 1,40,-1
 601 277 l 1,41,-1
 594 317 l 1,42,-1
 602 317 l 1,43,-1
 585 415 l 1,44,-1
 577 415 l 1,45,-1
 570 456 l 1,46,-1
 562 456 l 1,47,-1
 557 480 l 1,48,-1
 548 480 l 1,49,-1
 545 497 l 1,50,-1
 537 497 l 1,51,-1
 535 513 l 1,52,-1
 527 513 l 1,53,-1
 524 529 l 1,54,-1
 516 529 l 1,55,-1
 514 537 l 1,56,-1
 506 537 l 1,57,-1
 505 545 l 1,58,-1
 497 545 l 1,59,-1
 495 553 l 1,60,-1
 487 553 l 1,61,-1
 486 562 l 1,62,-1
 478 562 l 1,63,-1
 476 570 l 1,64,-1
 459 570 l 1,65,-1
 458 578 l 1,66,-1
 442 578 l 1,67,-1
 441 586 l 1,68,-1
 425 586 l 1,69,-1
 423 594 l 1,70,-1
 390 594 l 1,71,-1
 389 602 l 1,72,-1
 267 602 l 1,73,-1
 268 594 l 1,74,-1
 227 594 l 1,75,-1
 229 586 l 1,76,-1
 213 586 l 1,77,-1
 214 578 l 1,78,-1
 198 578 l 1,79,-1
 199 570 l 1,80,-1
 182 570 l 1,81,-1
 184 562 l 1,82,-1
 176 562 l 1,83,-1
 177 553 l 1,84,-1
 169 553 l 1,85,-1
 171 545 l 1,86,-1
 163 545 l 1,87,-1
 164 537 l 1,88,-1
 156 537 l 1,89,-1
 158 529 l 1,90,-1
 150 529 l 1,91,-1
 153 513 l 1,92,-1
 145 513 l 1,93,-1
 147 497 l 1,94,-1
 139 497 l 1,95,-1
 144 472 l 1,96,-1
 135 472 l 1,97,-1
 140 440 l 1,98,-1
 132 440 l 1,99,-1
 154 317 l 1,100,-1
 162 317 l 1,101,-1
 168 285 l 1,102,-1
 177 285 l 1,103,-1
 181 260 l 1,104,-1
 189 260 l 1,105,-1
 192 244 l 1,106,-1
 200 244 l 1,107,-1
 203 228 l 1,108,-1
 211 228 l 1,109,-1
 214 212 l 1,110,-1
 222 212 l 1,111,-1
 223 203 l 1,112,-1
 231 203 l 1,113,-1
 233 195 l 1,114,-1
 241 195 l 1,115,-1
 242 187 l 1,116,-1
 250 187 l 1,117,-1
 251 179 l 1,118,-1
 260 179 l 1,119,-1
 262 171 l 1,120,-1
 278 171 l 1,121,-1
 279 163 l 1,122,-1
 295 163 l 1,123,-1
 297 155 l 1,124,-1
 313 155 l 1,125,-1
 314 147 l 1,126,-1
 347 147 l 1,127,-1
 349 138 l 1,128,-1
 455 138 l 1,129,-1
 453 147 l 1,130,-1
 469 147 l 1,131,-1
 468 155 l 1,132,-1
 460 155 l 1,133,-1
 457 171 l 1,134,-1
 449 171 l 1,135,-1
 447 179 l 1,136,-1
 439 179 l 1,137,-1
 437 195 l 1,138,-1
 429 195 l 1,139,-1
 427 203 l 1,140,-1
 418 203 l 1,141,-1
 415 220 l 1,142,-1
 407 220 l 1,143,-1
 404 236 l 1,144,-1
 396 236 l 1,145,-1
 395 244 l 1,146,-1
 387 244 l 1,147,-1
 384 260 l 1,148,-1
 376 260 l 1,149,-1
 373 277 l 1,150,-1
 365 277 l 1,151,-1
 362 293 l 1,0,-1
226 700 m 1,152,-1
 388 700 l 1,153,-1
 389 692 l 1,154,-1
 430 692 l 1,155,-1
 431 684 l 1,156,-1
 464 684 l 1,157,-1
 466 676 l 1,158,-1
 482 676 l 1,159,-1
 483 667 l 1,160,-1
 507 667 l 1,161,-1
 509 659 l 1,162,-1
 517 659 l 1,163,-1
 518 651 l 1,164,-1
 535 651 l 1,165,-1
 537 643 l 1,166,-1
 545 643 l 1,167,-1
 546 635 l 1,168,-1
 562 635 l 1,169,-1
 563 627 l 1,170,-1
 571 627 l 1,171,-1
 573 619 l 1,172,-1
 581 619 l 1,173,-1
 582 610 l 1,174,-1
 591 610 l 1,175,-1
 593 602 l 1,176,-1
 601 602 l 1,177,-1
 602 594 l 1,178,-1
 610 594 l 1,179,-1
 612 586 l 1,180,-1
 620 586 l 1,181,-1
 622 570 l 1,182,-1
 630 570 l 1,183,-1
 632 562 l 1,184,-1
 640 562 l 1,185,-1
 643 545 l 1,186,-1
 651 545 l 1,187,-1
 654 529 l 1,188,-1
 663 529 l 1,189,-1
 666 513 l 1,190,-1
 674 513 l 1,191,-1
 678 488 l 1,192,-1
 686 488 l 1,193,-1
 692 456 l 1,194,-1
 700 456 l 1,195,-1
 711 391 l 1,196,-1
 719 391 l 1,197,-1
 726 350 l 1,198,-1
 718 350 l 1,199,-1
 730 285 l 1,200,-1
 722 285 l 1,201,-1
 728 252 l 1,202,-1
 720 252 l 1,203,-1
 722 236 l 1,204,-1
 714 236 l 1,205,-1
 717 220 l 1,206,-1
 708 220 l 1,207,-1
 711 203 l 1,208,-1
 703 203 l 1,209,-1
 706 187 l 1,210,-1
 698 187 l 1,211,-1
 701 171 l 1,212,-1
 693 171 l 1,213,-1
 694 163 l 1,214,-1
 686 163 l 1,215,-1
 688 155 l 1,216,-1
 680 155 l 1,217,-1
 681 147 l 1,218,-1
 673 147 l 1,219,-1
 675 138 l 1,220,-1
 666 138 l 1,221,-1
 667 130 l 1,222,-1
 659 130 l 1,223,-1
 660 122 l 1,224,-1
 652 122 l 1,225,-1
 654 114 l 1,226,-1
 662 114 l 1,227,-1
 663 106 l 1,228,-1
 671 106 l 1,229,-1
 673 98 l 1,230,-1
 682 98 l 1,231,-1
 683 90 l 1,232,-1
 699 90 l 1,233,-1
 701 81 l 1,234,-1
 709 81 l 1,235,-1
 710 73 l 1,236,-1
 718 73 l 1,237,-1
 720 65 l 1,238,-1
 728 65 l 1,239,-1
 729 57 l 1,240,-1
 737 57 l 1,241,-1
 738 49 l 1,242,-1
 747 49 l 1,243,-1
 749 41 l 1,244,-1
 757 41 l 1,245,-1
 758 33 l 1,246,-1
 766 33 l 1,247,-1
 768 24 l 1,248,-1
 776 24 l 1,249,-1
 777 16 l 1,250,-1
 744 16 l 1,251,-1
 746 8 l 1,252,-1
 706 8 l 1,253,-1
 707 0 l 1,254,-1
 625 0 l 1,255,-1
 624 8 l 1,256,-1
 616 8 l 1,257,-1
 614 16 l 1,258,-1
 606 16 l 1,259,-1
 605 24 l 1,260,-1
 597 24 l 1,261,-1
 595 33 l 1,262,-1
 587 33 l 1,263,-1
 584 49 l 1,264,-1
 576 49 l 1,265,-1
 575 57 l 1,266,-1
 567 57 l 1,267,-1
 566 65 l 1,268,-1
 557 65 l 1,269,-1
 558 57 l 1,270,-1
 526 57 l 1,271,-1
 527 49 l 1,272,-1
 486 49 l 1,273,-1
 488 41 l 1,274,-1
 358 41 l 1,275,-1
 356 49 l 1,276,-1
 307 49 l 1,277,-1
 306 57 l 1,278,-1
 282 57 l 1,279,-1
 281 65 l 1,280,-1
 256 65 l 1,281,-1
 254 73 l 1,282,-1
 238 73 l 1,283,-1
 237 81 l 1,284,-1
 221 81 l 1,285,-1
 219 90 l 1,286,-1
 202 90 l 1,287,-1
 201 98 l 1,288,-1
 193 98 l 1,289,-1
 191 106 l 1,290,-1
 175 106 l 1,291,-1
 174 114 l 1,292,-1
 166 114 l 1,293,-1
 164 122 l 1,294,-1
 156 122 l 1,295,-1
 155 130 l 1,296,-1
 147 130 l 1,297,-1
 146 138 l 1,298,-1
 137 138 l 1,299,-1
 135 147 l 1,300,-1
 127 147 l 1,301,-1
 126 155 l 1,302,-1
 118 155 l 1,303,-1
 116 163 l 1,304,-1
 108 163 l 1,305,-1
 105 179 l 1,306,-1
 97 179 l 1,307,-1
 96 187 l 1,308,-1
 88 187 l 1,309,-1
 85 203 l 1,310,-1
 77 203 l 1,311,-1
 74 220 l 1,312,-1
 65 220 l 1,313,-1
 61 244 l 1,314,-1
 53 244 l 1,315,-1
 49 269 l 1,316,-1
 41 269 l 1,317,-1
 34 309 l 1,318,-1
 26 309 l 1,319,-1
 1 448 l 1,320,-1
 9 448 l 1,321,-1
 3 480 l 1,322,-1
 11 480 l 1,323,-1
 7 505 l 1,324,-1
 15 505 l 1,325,-1
 11 529 l 1,326,-1
 20 529 l 1,327,-1
 17 545 l 1,328,-1
 25 545 l 1,329,-1
 23 553 l 1,330,-1
 31 553 l 1,331,-1
 28 570 l 1,332,-1
 36 570 l 1,333,-1
 34 586 l 1,334,-1
 42 586 l 1,335,-1
 40 594 l 1,336,-1
 48 594 l 1,337,-1
 47 602 l 1,338,-1
 55 602 l 1,339,-1
 53 610 l 1,340,-1
 62 610 l 1,341,-1
 61 619 l 1,342,-1
 69 619 l 1,343,-1
 67 627 l 1,344,-1
 75 627 l 1,345,-1
 74 635 l 1,346,-1
 82 635 l 1,347,-1
 81 643 l 1,348,-1
 97 643 l 1,349,-1
 95 651 l 1,350,-1
 103 651 l 1,351,-1
 102 659 l 1,352,-1
 119 659 l 1,353,-1
 117 667 l 1,354,-1
 133 667 l 1,355,-1
 132 676 l 1,356,-1
 156 676 l 1,357,-1
 154 684 l 1,358,-1
 187 684 l 1,359,-1
 186 692 l 1,360,-1
 227 692 l 1,361,-1
 226 700 l 1,152,-1
EndSplineSet
EndChar

StartChar: R
Encoding: 82 82 52
Width: 786
GlyphClass: 1
Flags: W
LayerCount: 2
Fore
SplineSet
-51 700 m 1,0,-1
 317 700 l 1,1,-1
 318 691 l 1,2,-1
 381 691 l 1,3,-1
 383 682 l 1,4,-1
 410 682 l 1,5,-1
 411 673 l 1,6,-1
 438 673 l 1,7,-1
 440 664 l 1,8,-1
 449 664 l 1,9,-1
 451 655 l 1,10,-1
 469 655 l 1,11,-1
 470 646 l 1,12,-1
 479 646 l 1,13,-1
 481 637 l 1,14,-1
 489 637 l 1,15,-1
 490 628 l 1,16,-1
 499 628 l 1,17,-1
 501 619 l 1,18,-1
 510 619 l 1,19,-1
 511 610 l 1,20,-1
 520 610 l 1,21,-1
 524 592 l 1,22,-1
 533 592 l 1,23,-1
 536 574 l 1,24,-1
 545 574 l 1,25,-1
 551 538 l 1,26,-1
 560 538 l 1,27,-1
 581 422 l 1,28,-1
 572 422 l 1,29,-1
 576 395 l 1,30,-1
 567 395 l 1,31,-1
 572 368 l 1,32,-1
 563 368 l 1,33,-1
 565 359 l 1,34,-1
 556 359 l 1,35,-1
 559 341 l 1,36,-1
 550 341 l 1,37,-1
 551 332 l 1,38,-1
 542 332 l 1,39,-1
 544 323 l 1,40,-1
 536 323 l 1,41,-1
 538 314 l 1,42,-1
 520 314 l 1,43,-1
 521 305 l 1,44,-1
 512 305 l 1,45,-1
 514 296 l 1,46,-1
 496 296 l 1,47,-1
 497 287 l 1,48,-1
 479 287 l 1,49,-1
 481 278 l 1,50,-1
 454 278 l 1,51,-1
 456 269 l 1,52,-1
 447 269 l 1,53,-1
 448 260 l 1,54,-1
 457 260 l 1,55,-1
 459 251 l 1,56,-1
 468 251 l 1,57,-1
 471 233 l 1,58,-1
 480 233 l 1,59,-1
 482 224 l 1,60,-1
 491 224 l 1,61,-1
 494 206 l 1,62,-1
 503 206 l 1,63,-1
 504 197 l 1,64,-1
 513 197 l 1,65,-1
 515 188 l 1,66,-1
 524 188 l 1,67,-1
 527 171 l 1,68,-1
 536 171 l 1,69,-1
 537 162 l 1,70,-1
 546 162 l 1,71,-1
 550 144 l 1,72,-1
 559 144 l 1,73,-1
 560 135 l 1,74,-1
 569 135 l 1,75,-1
 571 126 l 1,76,-1
 579 126 l 1,77,-1
 582 108 l 1,78,-1
 591 108 l 1,79,-1
 593 99 l 1,80,-1
 602 99 l 1,81,-1
 605 81 l 1,82,-1
 614 81 l 1,83,-1
 615 72 l 1,84,-1
 624 72 l 1,85,-1
 626 63 l 1,86,-1
 635 63 l 1,87,-1
 638 45 l 1,88,-1
 647 45 l 1,89,-1
 649 36 l 1,90,-1
 658 36 l 1,91,-1
 661 18 l 1,92,-1
 670 18 l 1,93,-1
 671 9 l 1,94,-1
 680 9 l 1,95,-1
 682 0 l 1,96,-1
 521 0 l 1,97,-1
 519 9 l 1,98,-1
 510 9 l 1,99,-1
 507 27 l 1,100,-1
 498 27 l 1,101,-1
 497 36 l 1,102,-1
 488 36 l 1,103,-1
 484 54 l 1,104,-1
 475 54 l 1,105,-1
 474 63 l 1,106,-1
 465 63 l 1,107,-1
 462 81 l 1,108,-1
 453 81 l 1,109,-1
 451 90 l 1,110,-1
 442 90 l 1,111,-1
 439 108 l 1,112,-1
 430 108 l 1,113,-1
 428 117 l 1,114,-1
 419 117 l 1,115,-1
 416 135 l 1,116,-1
 407 135 l 1,117,-1
 406 144 l 1,118,-1
 397 144 l 1,119,-1
 393 162 l 1,120,-1
 384 162 l 1,121,-1
 383 171 l 1,122,-1
 374 171 l 1,123,-1
 371 188 l 1,124,-1
 362 188 l 1,125,-1
 360 197 l 1,126,-1
 351 197 l 1,127,-1
 348 215 l 1,128,-1
 339 215 l 1,129,-1
 338 224 l 1,130,-1
 329 224 l 1,131,-1
 325 242 l 1,132,-1
 316 242 l 1,133,-1
 315 251 l 1,134,-1
 306 251 l 1,135,-1
 304 260 l 1,136,-1
 161 260 l 1,137,-1
 207 0 l 1,138,-1
 72 0 l 1,139,-1
 -51 700 l 1,0,-1
279 350 m 1,140,-1
 278 359 l 1,141,-1
 359 359 l 1,142,-1
 357 368 l 1,143,-1
 384 368 l 1,144,-1
 383 377 l 1,145,-1
 401 377 l 1,146,-1
 399 386 l 1,147,-1
 408 386 l 1,148,-1
 406 395 l 1,149,-1
 415 395 l 1,150,-1
 414 404 l 1,151,-1
 423 404 l 1,152,-1
 421 413 l 1,153,-1
 430 413 l 1,154,-1
 427 431 l 1,155,-1
 436 431 l 1,156,-1
 433 449 l 1,157,-1
 442 449 l 1,158,-1
 429 521 l 1,159,-1
 420 521 l 1,160,-1
 417 538 l 1,161,-1
 408 538 l 1,162,-1
 405 556 l 1,163,-1
 387 556 l 1,164,-1
 385 565 l 1,165,-1
 376 565 l 1,166,-1
 375 574 l 1,167,-1
 357 574 l 1,168,-1
 355 583 l 1,169,-1
 319 583 l 1,170,-1
 318 592 l 1,171,-1
 103 592 l 1,172,-1
 144 359 l 1,173,-1
 180 359 l 1,174,-1
 181 350 l 1,175,-1
 279 350 l 1,140,-1
EndSplineSet
EndChar

StartChar: S
Encoding: 83 83 53
Width: 743
GlyphClass: 1
Flags: W
LayerCount: 2
Fore
SplineSet
60 164 m 1,0,-1
 68 164 l 1,1,-1
 69 156 l 1,2,-1
 87 156 l 1,3,-1
 89 147 l 1,4,-1
 106 147 l 1,5,-1
 108 138 l 1,6,-1
 134 138 l 1,7,-1
 135 130 l 1,8,-1
 161 130 l 1,9,-1
 163 121 l 1,10,-1
 197 121 l 1,11,-1
 198 112 l 1,12,-1
 259 112 l 1,13,-1
 261 104 l 1,14,-1
 364 104 l 1,15,-1
 362 112 l 1,16,-1
 414 112 l 1,17,-1
 413 121 l 1,18,-1
 431 121 l 1,19,-1
 429 130 l 1,20,-1
 446 130 l 1,21,-1
 445 138 l 1,22,-1
 454 138 l 1,23,-1
 452 147 l 1,24,-1
 460 147 l 1,25,-1
 458 156 l 1,26,-1
 467 156 l 1,27,-1
 464 173 l 1,28,-1
 472 173 l 1,29,-1
 463 225 l 1,30,-1
 455 225 l 1,31,-1
 452 242 l 1,32,-1
 443 242 l 1,33,-1
 442 251 l 1,34,-1
 434 251 l 1,35,-1
 432 259 l 1,36,-1
 414 259 l 1,37,-1
 413 268 l 1,38,-1
 405 268 l 1,39,-1
 403 277 l 1,40,-1
 377 277 l 1,41,-1
 376 285 l 1,42,-1
 350 285 l 1,43,-1
 348 294 l 1,44,-1
 313 294 l 1,45,-1
 312 302 l 1,46,-1
 278 302 l 1,47,-1
 276 311 l 1,48,-1
 241 311 l 1,49,-1
 240 320 l 1,50,-1
 197 320 l 1,51,-1
 195 328 l 1,52,-1
 169 328 l 1,53,-1
 168 337 l 1,54,-1
 142 337 l 1,55,-1
 140 346 l 1,56,-1
 123 346 l 1,57,-1
 122 354 l 1,58,-1
 104 354 l 1,59,-1
 102 363 l 1,60,-1
 85 363 l 1,61,-1
 83 372 l 1,62,-1
 74 372 l 1,63,-1
 73 380 l 1,64,-1
 65 380 l 1,65,-1
 63 389 l 1,66,-1
 54 389 l 1,67,-1
 53 398 l 1,68,-1
 45 398 l 1,69,-1
 43 406 l 1,70,-1
 34 406 l 1,71,-1
 33 415 l 1,72,-1
 24 415 l 1,73,-1
 21 432 l 1,74,-1
 13 432 l 1,75,-1
 8 458 l 1,76,-1
 -1 458 l 1,77,-1
 -18 553 l 1,78,-1
 -9 553 l 1,79,-1
 -15 588 l 1,80,-1
 -7 588 l 1,81,-1
 -10 605 l 1,82,-1
 -1 605 l 1,83,-1
 -2 614 l 1,84,-1
 7 614 l 1,85,-1
 5 622 l 1,86,-1
 13 622 l 1,87,-1
 12 631 l 1,88,-1
 21 631 l 1,89,-1
 19 640 l 1,90,-1
 27 640 l 1,91,-1
 26 648 l 1,92,-1
 35 648 l 1,93,-1
 33 657 l 1,94,-1
 50 657 l 1,95,-1
 49 665 l 1,96,-1
 67 665 l 1,97,-1
 65 674 l 1,98,-1
 91 674 l 1,99,-1
 90 683 l 1,100,-1
 116 683 l 1,101,-1
 114 691 l 1,102,-1
 157 691 l 1,103,-1
 156 700 l 1,104,-1
 355 700 l 1,105,-1
 356 691 l 1,106,-1
 407 691 l 1,107,-1
 409 683 l 1,108,-1
 444 683 l 1,109,-1
 445 674 l 1,110,-1
 471 674 l 1,111,-1
 492 553 l 1,112,-1
 483 553 l 1,113,-1
 482 562 l 1,114,-1
 456 562 l 1,115,-1
 454 570 l 1,116,-1
 420 570 l 1,117,-1
 419 579 l 1,118,-1
 384 579 l 1,119,-1
 382 588 l 1,120,-1
 322 588 l 1,121,-1
 321 596 l 1,122,-1
 217 596 l 1,123,-1
 218 588 l 1,124,-1
 175 588 l 1,125,-1
 177 579 l 1,126,-1
 151 579 l 1,127,-1
 152 570 l 1,128,-1
 143 570 l 1,129,-1
 145 562 l 1,130,-1
 137 562 l 1,131,-1
 140 544 l 1,132,-1
 131 544 l 1,133,-1
 143 475 l 1,134,-1
 152 475 l 1,135,-1
 154 467 l 1,136,-1
 162 467 l 1,137,-1
 163 458 l 1,138,-1
 180 458 l 1,139,-1
 182 449 l 1,140,-1
 208 449 l 1,141,-1
 209 441 l 1,142,-1
 235 441 l 1,143,-1
 237 432 l 1,144,-1
 272 432 l 1,145,-1
 273 423 l 1,146,-1
 299 423 l 1,147,-1
 301 415 l 1,148,-1
 344 415 l 1,149,-1
 345 406 l 1,150,-1
 380 406 l 1,151,-1
 382 398 l 1,152,-1
 408 398 l 1,153,-1
 409 389 l 1,154,-1
 434 389 l 1,155,-1
 436 380 l 1,156,-1
 462 380 l 1,157,-1
 463 372 l 1,158,-1
 481 372 l 1,159,-1
 483 363 l 1,160,-1
 500 363 l 1,161,-1
 502 354 l 1,162,-1
 511 354 l 1,163,-1
 512 346 l 1,164,-1
 529 346 l 1,165,-1
 531 337 l 1,166,-1
 540 337 l 1,167,-1
 541 328 l 1,168,-1
 549 328 l 1,169,-1
 551 320 l 1,170,-1
 560 320 l 1,171,-1
 563 302 l 1,172,-1
 571 302 l 1,173,-1
 574 285 l 1,174,-1
 583 285 l 1,175,-1
 586 268 l 1,176,-1
 595 268 l 1,177,-1
 616 147 l 1,178,-1
 607 147 l 1,179,-1
 610 130 l 1,180,-1
 601 130 l 1,181,-1
 604 112 l 1,182,-1
 596 112 l 1,183,-1
 599 95 l 1,184,-1
 590 95 l 1,185,-1
 592 86 l 1,186,-1
 584 86 l 1,187,-1
 585 78 l 1,188,-1
 576 78 l 1,189,-1
 578 69 l 1,190,-1
 569 69 l 1,191,-1
 570 60 l 1,192,-1
 562 60 l 1,193,-1
 564 52 l 1,194,-1
 546 52 l 1,195,-1
 547 43 l 1,196,-1
 539 43 l 1,197,-1
 541 35 l 1,198,-1
 523 35 l 1,199,-1
 524 26 l 1,200,-1
 498 26 l 1,201,-1
 500 17 l 1,202,-1
 466 17 l 1,203,-1
 467 9 l 1,204,-1
 424 9 l 1,205,-1
 426 0 l 1,206,-1
 253 0 l 1,207,-1
 251 9 l 1,208,-1
 190 9 l 1,209,-1
 189 17 l 1,210,-1
 155 17 l 1,211,-1
 153 26 l 1,212,-1
 118 26 l 1,213,-1
 117 35 l 1,214,-1
 83 35 l 1,215,-1
 81 43 l 1,216,-1
 72 43 l 1,217,-1
 62 104 l 1,218,-1
 71 104 l 1,219,-1
 60 164 l 1,0,-1
EndSplineSet
EndChar

StartChar: T
Encoding: 84 84 54
Width: 770
GlyphClass: 1
Flags: W
LayerCount: 2
Fore
SplineSet
-63 700 m 1,0,-1
 565 700 l 1,1,-1
 585 583 l 1,2,-1
 567 583 l 1,3,-1
 566 592 l 1,4,-1
 539 592 l 1,5,-1
 540 583 l 1,6,-1
 522 583 l 1,7,-1
 521 592 l 1,8,-1
 333 592 l 1,9,-1
 429 45 l 1,10,-1
 438 45 l 1,11,-1
 446 0 l 1,12,-1
 302 0 l 1,13,-1
 198 592 l 1,14,-1
 -8 592 l 1,15,-1
 -7 583 l 1,16,-1
 -43 583 l 1,17,-1
 -63 700 l 1,0,-1
EndSplineSet
EndChar

StartChar: U
Encoding: 85 85 55
Width: 788
GlyphClass: 1
Flags: W
LayerCount: 2
Fore
SplineSet
439 700 m 1,0,-1
 561 700 l 1,1,-1
 650 192 l 1,2,-1
 642 192 l 1,3,-1
 648 158 l 1,4,-1
 639 158 l 1,5,-1
 644 131 l 1,6,-1
 635 131 l 1,7,-1
 638 114 l 1,8,-1
 630 114 l 1,9,-1
 631 105 l 1,10,-1
 622 105 l 1,11,-1
 625 88 l 1,12,-1
 616 88 l 1,13,-1
 618 79 l 1,14,-1
 609 79 l 1,15,-1
 611 70 l 1,16,-1
 602 70 l 1,17,-1
 603 61 l 1,18,-1
 595 61 l 1,19,-1
 597 52 l 1,20,-1
 588 52 l 1,21,-1
 589 44 l 1,22,-1
 572 44 l 1,23,-1
 574 35 l 1,24,-1
 556 35 l 1,25,-1
 557 26 l 1,26,-1
 539 26 l 1,27,-1
 541 18 l 1,28,-1
 507 18 l 1,29,-1
 508 9 l 1,30,-1
 455 9 l 1,31,-1
 457 0 l 1,32,-1
 291 0 l 1,33,-1
 289 9 l 1,34,-1
 245 9 l 1,35,-1
 244 18 l 1,36,-1
 218 18 l 1,37,-1
 216 26 l 1,38,-1
 189 26 l 1,39,-1
 188 35 l 1,40,-1
 171 35 l 1,41,-1
 169 44 l 1,42,-1
 152 44 l 1,43,-1
 151 52 l 1,44,-1
 142 52 l 1,45,-1
 140 61 l 1,46,-1
 131 61 l 1,47,-1
 130 70 l 1,48,-1
 121 70 l 1,49,-1
 119 79 l 1,50,-1
 110 79 l 1,51,-1
 108 88 l 1,52,-1
 100 88 l 1,53,-1
 97 105 l 1,54,-1
 88 105 l 1,55,-1
 85 122 l 1,56,-1
 76 122 l 1,57,-1
 73 140 l 1,58,-1
 65 140 l 1,59,-1
 61 166 l 1,60,-1
 52 166 l 1,61,-1
 42 219 l 1,62,-1
 33 219 l 1,63,-1
 -51 700 l 1,64,-1
 80 700 l 1,65,-1
 163 228 l 1,66,-1
 172 228 l 1,67,-1
 178 192 l 1,68,-1
 187 192 l 1,69,-1
 190 175 l 1,70,-1
 199 175 l 1,71,-1
 202 158 l 1,72,-1
 210 158 l 1,73,-1
 212 149 l 1,74,-1
 221 149 l 1,75,-1
 222 140 l 1,76,-1
 231 140 l 1,77,-1
 233 131 l 1,78,-1
 241 131 l 1,79,-1
 242 122 l 1,80,-1
 269 122 l 1,81,-1
 271 114 l 1,82,-1
 314 114 l 1,83,-1
 315 105 l 1,84,-1
 421 105 l 1,85,-1
 420 114 l 1,86,-1
 454 114 l 1,87,-1
 452 122 l 1,88,-1
 470 122 l 1,89,-1
 469 131 l 1,90,-1
 487 131 l 1,91,-1
 485 140 l 1,92,-1
 493 140 l 1,93,-1
 492 149 l 1,94,-1
 501 149 l 1,95,-1
 498 166 l 1,96,-1
 507 166 l 1,97,-1
 504 184 l 1,98,-1
 512 184 l 1,99,-1
 507 210 l 1,100,-1
 516 210 l 1,101,-1
 508 254 l 1,102,-1
 517 254 l 1,103,-1
 439 700 l 1,0,-1
EndSplineSet
EndChar

StartChar: V
Encoding: 86 86 56
Width: 929
GlyphClass: 1
Flags: W
LayerCount: 2
Fore
SplineSet
577 700 m 1,0,-1
 703 700 l 1,1,-1
 707 673 l 1,2,-1
 698 673 l 1,3,-1
 702 655 l 1,4,-1
 693 655 l 1,5,-1
 696 637 l 1,6,-1
 687 637 l 1,7,-1
 691 610 l 1,8,-1
 682 610 l 1,9,-1
 686 592 l 1,10,-1
 677 592 l 1,11,-1
 680 574 l 1,12,-1
 671 574 l 1,13,-1
 674 556 l 1,14,-1
 665 556 l 1,15,-1
 670 529 l 1,16,-1
 661 529 l 1,17,-1
 664 512 l 1,18,-1
 655 512 l 1,19,-1
 658 494 l 1,20,-1
 649 494 l 1,21,-1
 654 467 l 1,22,-1
 645 467 l 1,23,-1
 648 449 l 1,24,-1
 639 449 l 1,25,-1
 642 431 l 1,26,-1
 633 431 l 1,27,-1
 638 404 l 1,28,-1
 629 404 l 1,29,-1
 632 386 l 1,30,-1
 623 386 l 1,31,-1
 626 368 l 1,32,-1
 617 368 l 1,33,-1
 622 341 l 1,34,-1
 613 341 l 1,35,-1
 616 323 l 1,36,-1
 607 323 l 1,37,-1
 610 305 l 1,38,-1
 601 305 l 1,39,-1
 604 287 l 1,40,-1
 595 287 l 1,41,-1
 600 260 l 1,42,-1
 591 260 l 1,43,-1
 594 242 l 1,44,-1
 585 242 l 1,45,-1
 589 224 l 1,46,-1
 580 224 l 1,47,-1
 584 197 l 1,48,-1
 575 197 l 1,49,-1
 578 179 l 1,50,-1
 569 179 l 1,51,-1
 572 162 l 1,52,-1
 564 162 l 1,53,-1
 568 144 l 1,54,-1
 559 144 l 1,55,-1
 563 117 l 1,56,-1
 554 117 l 1,57,-1
 558 99 l 1,58,-1
 549 99 l 1,59,-1
 552 81 l 1,60,-1
 543 81 l 1,61,-1
 547 54 l 1,62,-1
 538 54 l 1,63,-1
 542 36 l 1,64,-1
 533 36 l 1,65,-1
 536 18 l 1,66,-1
 527 18 l 1,67,-1
 530 0 l 1,68,-1
 368 0 l 1,69,-1
 366 9 l 1,70,-1
 357 9 l 1,71,-1
 353 36 l 1,72,-1
 344 36 l 1,73,-1
 339 63 l 1,74,-1
 330 63 l 1,75,-1
 327 81 l 1,76,-1
 318 81 l 1,77,-1
 313 108 l 1,78,-1
 304 108 l 1,79,-1
 301 126 l 1,80,-1
 292 126 l 1,81,-1
 287 153 l 1,82,-1
 278 153 l 1,83,-1
 275 171 l 1,84,-1
 266 171 l 1,85,-1
 263 188 l 1,86,-1
 254 188 l 1,87,-1
 249 215 l 1,88,-1
 240 215 l 1,89,-1
 237 233 l 1,90,-1
 228 233 l 1,91,-1
 225 251 l 1,92,-1
 216 251 l 1,93,-1
 213 269 l 1,94,-1
 204 269 l 1,95,-1
 199 296 l 1,96,-1
 191 296 l 1,97,-1
 188 314 l 1,98,-1
 179 314 l 1,99,-1
 175 332 l 1,100,-1
 166 332 l 1,101,-1
 162 359 l 1,102,-1
 153 359 l 1,103,-1
 150 377 l 1,104,-1
 141 377 l 1,105,-1
 137 395 l 1,106,-1
 128 395 l 1,107,-1
 124 422 l 1,108,-1
 115 422 l 1,109,-1
 111 440 l 1,110,-1
 102 440 l 1,111,-1
 99 458 l 1,112,-1
 90 458 l 1,113,-1
 85 485 l 1,114,-1
 76 485 l 1,115,-1
 73 503 l 1,116,-1
 64 503 l 1,117,-1
 61 521 l 1,118,-1
 52 521 l 1,119,-1
 48 547 l 1,120,-1
 39 547 l 1,121,-1
 35 565 l 1,122,-1
 26 565 l 1,123,-1
 23 583 l 1,124,-1
 14 583 l 1,125,-1
 9 610 l 1,126,-1
 0 610 l 1,127,-1
 -3 628 l 1,128,-1
 -12 628 l 1,129,-1
 -15 646 l 1,130,-1
 -24 646 l 1,131,-1
 -27 664 l 1,132,-1
 -36 664 l 1,133,-1
 -39 682 l 1,134,-1
 -48 682 l 1,135,-1
 -51 700 l 1,136,-1
 102 700 l 1,137,-1
 103 691 l 1,138,-1
 112 691 l 1,139,-1
 115 673 l 1,140,-1
 124 673 l 1,141,-1
 129 646 l 1,142,-1
 137 646 l 1,143,-1
 140 628 l 1,144,-1
 149 628 l 1,145,-1
 152 610 l 1,146,-1
 161 610 l 1,147,-1
 166 583 l 1,148,-1
 175 583 l 1,149,-1
 178 565 l 1,150,-1
 187 565 l 1,151,-1
 191 547 l 1,152,-1
 200 547 l 1,153,-1
 204 521 l 1,154,-1
 213 521 l 1,155,-1
 216 503 l 1,156,-1
 225 503 l 1,157,-1
 230 476 l 1,158,-1
 239 476 l 1,159,-1
 242 458 l 1,160,-1
 251 458 l 1,161,-1
 254 440 l 1,162,-1
 263 440 l 1,163,-1
 267 422 l 1,164,-1
 276 422 l 1,165,-1
 280 395 l 1,166,-1
 289 395 l 1,167,-1
 293 377 l 1,168,-1
 302 377 l 1,169,-1
 305 359 l 1,170,-1
 314 359 l 1,171,-1
 318 332 l 1,172,-1
 327 332 l 1,173,-1
 331 314 l 1,174,-1
 340 314 l 1,175,-1
 343 296 l 1,176,-1
 352 296 l 1,177,-1
 357 269 l 1,178,-1
 366 269 l 1,179,-1
 369 251 l 1,180,-1
 378 251 l 1,181,-1
 383 224 l 1,182,-1
 392 224 l 1,183,-1
 395 206 l 1,184,-1
 404 206 l 1,185,-1
 408 179 l 1,186,-1
 417 179 l 1,187,-1
 420 162 l 1,188,-1
 429 162 l 1,189,-1
 434 135 l 1,190,-1
 443 135 l 1,191,-1
 440 153 l 1,192,-1
 449 153 l 1,193,-1
 446 171 l 1,194,-1
 455 171 l 1,195,-1
 452 188 l 1,196,-1
 461 188 l 1,197,-1
 456 215 l 1,198,-1
 465 215 l 1,199,-1
 462 233 l 1,200,-1
 471 233 l 1,201,-1
 468 251 l 1,202,-1
 477 251 l 1,203,-1
 474 269 l 1,204,-1
 483 269 l 1,205,-1
 478 296 l 1,206,-1
 487 296 l 1,207,-1
 484 314 l 1,208,-1
 493 314 l 1,209,-1
 489 332 l 1,210,-1
 498 332 l 1,211,-1
 494 359 l 1,212,-1
 503 359 l 1,213,-1
 500 377 l 1,214,-1
 509 377 l 1,215,-1
 504 404 l 1,216,-1
 513 404 l 1,217,-1
 510 422 l 1,218,-1
 519 422 l 1,219,-1
 514 449 l 1,220,-1
 522 449 l 1,221,-1
 519 467 l 1,222,-1
 528 467 l 1,223,-1
 524 485 l 1,224,-1
 533 485 l 1,225,-1
 529 512 l 1,226,-1
 538 512 l 1,227,-1
 535 529 l 1,228,-1
 544 529 l 1,229,-1
 539 556 l 1,230,-1
 548 556 l 1,231,-1
 545 574 l 1,232,-1
 554 574 l 1,233,-1
 549 601 l 1,234,-1
 558 601 l 1,235,-1
 553 628 l 1,236,-1
 562 628 l 1,237,-1
 559 646 l 1,238,-1
 568 646 l 1,239,-1
 563 673 l 1,240,-1
 572 673 l 1,241,-1
 569 691 l 1,242,-1
 578 691 l 1,243,-1
 577 700 l 1,0,-1
EndSplineSet
EndChar

StartChar: W
Encoding: 87 87 57
Width: 1200
GlyphClass: 1
Flags: W
LayerCount: 2
Fore
SplineSet
533 715 m 1,0,-1
 544 715 l 1,1,-1
 542 724 l 1,2,-1
 532 723 l 1,3,-1
 533 715 l 1,0,-1
500 715 m 1,4,-1
 499 719 l 1,5,-1
 457 715 l 1,6,-1
 500 715 l 1,4,-1
990 725 m 1,7,-1
 1001 725 l 1,8,-1
 1007 693 l 1,9,-1
 996 693 l 1,10,-1
 1001 661 l 1,11,-1
 990 661 l 1,12,-1
 996 627 l 1,13,-1
 985 627 l 1,14,-1
 989 606 l 1,15,-1
 978 606 l 1,16,-1
 984 573 l 1,17,-1
 973 573 l 1,18,-1
 979 541 l 1,19,-1
 969 541 l 1,20,-1
 972 519 l 1,21,-1
 961 519 l 1,22,-1
 967 486 l 1,23,-1
 956 486 l 1,24,-1
 962 454 l 1,25,-1
 951 454 l 1,26,-1
 955 432 l 1,27,-1
 944 432 l 1,28,-1
 940 400 l 1,29,-1
 938 400 l 1,30,-1
 944 367 l 1,31,-1
 933 367 l 1,32,-1
 937 346 l 1,33,-1
 926 346 l 1,34,-1
 932 312 l 1,35,-1
 921 312 l 1,36,-1
 927 280 l 1,37,-1
 916 280 l 1,38,-1
 921 248 l 1,39,-1
 911 248 l 1,40,-1
 915 226 l 1,41,-1
 903 226 l 1,42,-1
 909 194 l 1,43,-1
 898 194 l 1,44,-1
 904 160 l 1,45,-1
 893 160 l 1,46,-1
 896 139 l 1,47,-1
 885 139 l 1,48,-1
 891 106 l 1,49,-1
 890 106 l 1,50,-1
 895 58 l 1,51,-1
 733 56 l 1,52,-1
 725 117 l 1,53,-1
 714 117 l 1,54,-1
 709 149 l 1,55,-1
 698 149 l 1,56,-1
 692 183 l 1,57,-1
 681 183 l 1,58,-1
 677 204 l 1,59,-1
 667 204 l 1,60,-1
 661 237 l 1,61,-1
 650 237 l 1,62,-1
 645 269 l 1,63,-1
 634 269 l 1,64,-1
 628 302 l 1,65,-1
 617 302 l 1,66,-1
 611 335 l 1,67,-1
 600 335 l 1,68,-1
 594 367 l 1,69,-1
 584 367 l 1,70,-1
 578 400 l 1,71,-1
 566 400 l 1,72,-1
 561 432 l 1,73,-1
 550 432 l 1,74,-1
 544 464 l 1,75,-1
 533 464 l 1,76,-1
 531 475 l 1,77,-1
 520 475 l 1,78,-1
 524 454 l 1,79,-1
 514 454 l 1,80,-1
 520 421 l 1,81,-1
 509 421 l 1,82,-1
 514 389 l 1,83,-1
 503 389 l 1,84,-1
 507 367 l 1,85,-1
 496 367 l 1,86,-1
 502 335 l 1,87,-1
 491 335 l 1,88,-1
 497 302 l 1,89,-1
 487 302 l 1,90,-1
 491 280 l 1,91,-1
 480 280 l 1,92,-1
 485 248 l 1,93,-1
 474 248 l 1,94,-1
 480 215 l 1,95,-1
 469 215 l 1,96,-1
 473 194 l 1,97,-1
 462 194 l 1,98,-1
 468 160 l 1,99,-1
 457 160 l 1,100,-1
 462 128 l 1,101,-1
 451 128 l 1,102,-1
 465 51 l 1,103,-1
 458 47 l 1,104,-1
 458 53 l 1,105,-1
 316 51 l 1,106,-1
 303 106 l 1,107,-1
 292 106 l 1,108,-1
 286 139 l 1,109,-1
 275 139 l 1,110,-1
 270 171 l 1,111,-1
 260 171 l 1,112,-1
 254 204 l 1,113,-1
 243 204 l 1,114,-1
 239 226 l 1,115,-1
 228 226 l 1,116,-1
 223 258 l 1,117,-1
 212 258 l 1,118,-1
 206 291 l 1,119,-1
 195 291 l 1,120,-1
 191 312 l 1,121,-1
 204 312 l 1,122,-1
 187 346 l 1,123,-1
 176 346 l 1,124,-1
 170 378 l 1,125,-1
 159 378 l 1,126,-1
 154 410 l 1,127,-1
 143 410 l 1,128,-1
 137 443 l 1,129,-1
 126 443 l 1,130,-1
 122 464 l 1,131,-1
 111 464 l 1,132,-1
 105 498 l 1,133,-1
 94 498 l 1,134,-1
 89 530 l 1,135,-1
 78 530 l 1,136,-1
 72 562 l 1,137,-1
 61 562 l 1,138,-1
 42 612 l 1,139,-1
 45 595 l 1,140,-1
 33 627 l 1,141,-1
 35 627 l 1,142,-1
 22 661 l 1,143,-1
 33 627 l 1,144,-1
 28 627 l 1,145,-1
 22 661 l 1,146,-1
 11 661 l 1,147,-1
 -5 693 l 1,148,-1
 -9 715 l 1,149,-1
 142 715 l 1,150,-1
 148 682 l 1,151,-1
 159 682 l 1,152,-1
 167 638 l 1,153,-1
 178 638 l 1,154,-1
 183 606 l 1,155,-1
 193 606 l 1,156,-1
 199 573 l 1,157,-1
 210 573 l 1,158,-1
 218 530 l 1,159,-1
 229 530 l 1,160,-1
 234 498 l 1,161,-1
 246 498 l 1,162,-1
 252 464 l 1,163,-1
 262 464 l 1,164,-1
 268 432 l 1,165,-1
 279 432 l 1,166,-1
 286 389 l 1,167,-1
 297 389 l 1,168,-1
 303 356 l 1,169,-1
 314 356 l 1,170,-1
 320 323 l 1,171,-1
 331 323 l 1,172,-1
 348 291 l 1,173,-1
 347 291 l 1,174,-1
 351 269 l 1,175,-1
 362 269 l 1,176,-1
 356 302 l 1,177,-1
 367 302 l 1,178,-1
 361 335 l 1,179,-1
 372 335 l 1,180,-1
 368 356 l 1,181,-1
 379 356 l 1,182,-1
 373 389 l 1,183,-1
 383 389 l 1,184,-1
 378 421 l 1,185,-1
 389 421 l 1,186,-1
 383 454 l 1,187,-1
 394 454 l 1,188,-1
 388 486 l 1,189,-1
 399 486 l 1,190,-1
 393 519 l 1,191,-1
 404 519 l 1,192,-1
 399 552 l 1,193,-1
 410 552 l 1,194,-1
 404 584 l 1,195,-1
 415 584 l 1,196,-1
 409 616 l 1,197,-1
 420 616 l 1,198,-1
 414 650 l 1,199,-1
 425 650 l 1,200,-1
 420 682 l 1,201,-1
 430 682 l 1,202,-1
 424 715 l 1,203,-1
 435 715 l 1,204,-1
 433 725 l 1,205,-1
 498 725 l 1,206,-1
 531 725 l 1,207,-1
 542 725 l 1,208,-1
 553 725 l 1,209,-1
 555 715 l 1,210,-1
 566 715 l 1,211,-1
 572 682 l 1,212,-1
 583 682 l 1,213,-1
 588 650 l 1,214,-1
 598 650 l 1,215,-1
 604 616 l 1,216,-1
 615 616 l 1,217,-1
 621 584 l 1,218,-1
 632 584 l 1,219,-1
 638 552 l 1,220,-1
 649 552 l 1,221,-1
 654 519 l 1,222,-1
 665 519 l 1,223,-1
 671 486 l 1,224,-1
 681 486 l 1,225,-1
 687 454 l 1,226,-1
 698 454 l 1,227,-1
 706 410 l 1,228,-1
 717 410 l 1,229,-1
 722 378 l 1,230,-1
 733 378 l 1,231,-1
 739 346 l 1,232,-1
 751 346 l 1,233,-1
 759 302 l 1,234,-1
 769 302 l 1,235,-1
 775 269 l 1,236,-1
 786 269 l 1,237,-1
 782 291 l 1,238,-1
 793 291 l 1,239,-1
 787 323 l 1,240,-1
 798 323 l 1,241,-1
 792 356 l 1,242,-1
 803 356 l 1,243,-1
 797 389 l 1,244,-1
 807 389 l 1,245,-1
 804 410 l 1,246,-1
 815 410 l 1,247,-1
 809 443 l 1,248,-1
 820 443 l 1,249,-1
 814 475 l 1,250,-1
 825 475 l 1,251,-1
 819 508 l 1,252,-1
 830 508 l 1,253,-1
 825 541 l 1,254,-1
 835 541 l 1,255,-1
 829 573 l 1,256,-1
 840 573 l 1,257,-1
 834 606 l 1,258,-1
 845 606 l 1,259,-1
 840 638 l 1,260,-1
 852 638 l 1,261,-1
 846 671 l 1,262,-1
 856 671 l 1,263,-1
 850 704 l 1,264,-1
 861 704 l 1,265,-1
 857 725 l 1,266,-1
 879 725 l 1,267,-1
 881 715 l 1,268,-1
 992 715 l 1,269,-1
 990 725 l 1,7,-1
35 627 m 1,270,-1
 42 612 l 1,271,-1
 39 627 l 1,272,-1
 35 627 l 1,270,-1
EndSplineSet
EndChar

StartChar: X
Encoding: 88 88 58
Width: 885
GlyphClass: 1
Flags: W
LayerCount: 2
Fore
SplineSet
446 700 m 1,0,-1
 603 700 l 1,1,-1
 604 691 l 1,2,-1
 595 691 l 1,3,-1
 597 682 l 1,4,-1
 588 682 l 1,5,-1
 591 663 l 1,6,-1
 581 663 l 1,7,-1
 583 654 l 1,8,-1
 574 654 l 1,9,-1
 575 645 l 1,10,-1
 566 645 l 1,11,-1
 568 636 l 1,12,-1
 559 636 l 1,13,-1
 562 617 l 1,14,-1
 552 617 l 1,15,-1
 554 608 l 1,16,-1
 545 608 l 1,17,-1
 546 599 l 1,18,-1
 537 599 l 1,19,-1
 541 580 l 1,20,-1
 532 580 l 1,21,-1
 533 571 l 1,22,-1
 524 571 l 1,23,-1
 527 553 l 1,24,-1
 517 553 l 1,25,-1
 519 543 l 1,26,-1
 510 543 l 1,27,-1
 512 534 l 1,28,-1
 503 534 l 1,29,-1
 506 516 l 1,30,-1
 497 516 l 1,31,-1
 499 507 l 1,32,-1
 490 507 l 1,33,-1
 491 497 l 1,34,-1
 481 497 l 1,35,-1
 483 488 l 1,36,-1
 474 488 l 1,37,-1
 477 470 l 1,38,-1
 468 470 l 1,39,-1
 470 461 l 1,40,-1
 461 461 l 1,41,-1
 464 442 l 1,42,-1
 455 442 l 1,43,-1
 457 433 l 1,44,-1
 447 433 l 1,45,-1
 448 424 l 1,46,-1
 439 424 l 1,47,-1
 441 414 l 1,48,-1
 432 414 l 1,49,-1
 435 396 l 1,50,-1
 426 396 l 1,51,-1
 428 387 l 1,52,-1
 418 387 l 1,53,-1
 419 378 l 1,54,-1
 429 378 l 1,55,-1
 431 368 l 1,56,-1
 440 368 l 1,57,-1
 443 350 l 1,58,-1
 452 350 l 1,59,-1
 454 341 l 1,60,-1
 463 341 l 1,61,-1
 464 332 l 1,62,-1
 474 332 l 1,63,-1
 478 313 l 1,64,-1
 487 313 l 1,65,-1
 488 304 l 1,66,-1
 497 304 l 1,67,-1
 499 295 l 1,68,-1
 508 295 l 1,69,-1
 511 276 l 1,70,-1
 520 276 l 1,71,-1
 522 267 l 1,72,-1
 532 267 l 1,73,-1
 534 258 l 1,74,-1
 543 258 l 1,75,-1
 544 249 l 1,76,-1
 553 249 l 1,77,-1
 556 230 l 1,78,-1
 565 230 l 1,79,-1
 567 221 l 1,80,-1
 576 221 l 1,81,-1
 578 212 l 1,82,-1
 588 212 l 1,83,-1
 591 193 l 1,84,-1
 600 193 l 1,85,-1
 602 184 l 1,86,-1
 611 184 l 1,87,-1
 612 175 l 1,88,-1
 621 175 l 1,89,-1
 624 157 l 1,90,-1
 633 157 l 1,91,-1
 635 147 l 1,92,-1
 645 147 l 1,93,-1
 647 138 l 1,94,-1
 656 138 l 1,95,-1
 659 120 l 1,96,-1
 668 120 l 1,97,-1
 669 111 l 1,98,-1
 678 111 l 1,99,-1
 680 101 l 1,100,-1
 690 101 l 1,101,-1
 692 92 l 1,102,-1
 701 92 l 1,103,-1
 704 74 l 1,104,-1
 713 74 l 1,105,-1
 715 64 l 1,106,-1
 724 64 l 1,107,-1
 725 55 l 1,108,-1
 734 55 l 1,109,-1
 737 37 l 1,110,-1
 747 37 l 1,111,-1
 749 28 l 1,112,-1
 758 28 l 1,113,-1
 760 18 l 1,114,-1
 769 18 l 1,115,-1
 770 9 l 1,116,-1
 779 9 l 1,117,-1
 781 0 l 1,118,-1
 588 0 l 1,119,-1
 585 18 l 1,120,-1
 576 18 l 1,121,-1
 574 28 l 1,122,-1
 564 28 l 1,123,-1
 562 37 l 1,124,-1
 553 37 l 1,125,-1
 550 55 l 1,126,-1
 541 55 l 1,127,-1
 540 64 l 1,128,-1
 531 64 l 1,129,-1
 529 74 l 1,130,-1
 520 74 l 1,131,-1
 518 83 l 1,132,-1
 508 83 l 1,133,-1
 505 101 l 1,134,-1
 496 101 l 1,135,-1
 494 111 l 1,136,-1
 485 111 l 1,137,-1
 484 120 l 1,138,-1
 475 120 l 1,139,-1
 472 138 l 1,140,-1
 462 138 l 1,141,-1
 460 147 l 1,142,-1
 451 147 l 1,143,-1
 448 166 l 1,144,-1
 439 166 l 1,145,-1
 437 175 l 1,146,-1
 428 175 l 1,147,-1
 427 184 l 1,148,-1
 418 184 l 1,149,-1
 414 203 l 1,150,-1
 404 203 l 1,151,-1
 403 212 l 1,152,-1
 394 212 l 1,153,-1
 392 221 l 1,154,-1
 383 221 l 1,155,-1
 380 239 l 1,156,-1
 371 239 l 1,157,-1
 369 249 l 1,158,-1
 360 249 l 1,159,-1
 359 258 l 1,160,-1
 349 258 l 1,161,-1
 352 239 l 1,162,-1
 343 239 l 1,163,-1
 344 230 l 1,164,-1
 335 230 l 1,165,-1
 339 212 l 1,166,-1
 330 212 l 1,167,-1
 331 203 l 1,168,-1
 322 203 l 1,169,-1
 326 184 l 1,170,-1
 316 184 l 1,171,-1
 317 175 l 1,172,-1
 308 175 l 1,173,-1
 310 166 l 1,174,-1
 301 166 l 1,175,-1
 304 147 l 1,176,-1
 295 147 l 1,177,-1
 297 138 l 1,178,-1
 287 138 l 1,179,-1
 290 120 l 1,180,-1
 281 120 l 1,181,-1
 282 111 l 1,182,-1
 273 111 l 1,183,-1
 277 92 l 1,184,-1
 268 92 l 1,185,-1
 269 83 l 1,186,-1
 260 83 l 1,187,-1
 264 64 l 1,188,-1
 254 64 l 1,189,-1
 255 55 l 1,190,-1
 246 55 l 1,191,-1
 248 46 l 1,192,-1
 239 46 l 1,193,-1
 242 28 l 1,194,-1
 233 28 l 1,195,-1
 235 18 l 1,196,-1
 226 18 l 1,197,-1
 229 0 l 1,198,-1
 72 0 l 1,199,-1
 70 9 l 1,200,-1
 79 9 l 1,201,-1
 76 28 l 1,202,-1
 85 28 l 1,203,-1
 83 37 l 1,204,-1
 93 37 l 1,205,-1
 90 55 l 1,206,-1
 99 55 l 1,207,-1
 98 64 l 1,208,-1
 107 64 l 1,209,-1
 105 74 l 1,210,-1
 114 74 l 1,211,-1
 111 92 l 1,212,-1
 120 92 l 1,213,-1
 118 101 l 1,214,-1
 128 101 l 1,215,-1
 126 111 l 1,216,-1
 135 111 l 1,217,-1
 132 129 l 1,218,-1
 141 129 l 1,219,-1
 140 138 l 1,220,-1
 149 138 l 1,221,-1
 145 157 l 1,222,-1
 155 157 l 1,223,-1
 154 166 l 1,224,-1
 163 166 l 1,225,-1
 161 175 l 1,226,-1
 170 175 l 1,227,-1
 167 193 l 1,228,-1
 176 193 l 1,229,-1
 174 203 l 1,230,-1
 183 203 l 1,231,-1
 182 212 l 1,232,-1
 192 212 l 1,233,-1
 188 230 l 1,234,-1
 197 230 l 1,235,-1
 196 239 l 1,236,-1
 205 239 l 1,237,-1
 202 258 l 1,238,-1
 211 258 l 1,239,-1
 209 267 l 1,240,-1
 218 267 l 1,241,-1
 216 276 l 1,242,-1
 226 276 l 1,243,-1
 223 295 l 1,244,-1
 232 295 l 1,245,-1
 230 304 l 1,246,-1
 239 304 l 1,247,-1
 236 322 l 1,248,-1
 245 322 l 1,249,-1
 243 332 l 1,250,-1
 252 332 l 1,251,-1
 249 350 l 1,252,-1
 259 350 l 1,253,-1
 258 359 l 1,254,-1
 267 359 l 1,255,-1
 265 368 l 1,256,-1
 256 368 l 1,257,-1
 253 387 l 1,258,-1
 243 387 l 1,259,-1
 241 396 l 1,260,-1
 232 396 l 1,261,-1
 229 414 l 1,262,-1
 220 414 l 1,263,-1
 218 424 l 1,264,-1
 209 424 l 1,265,-1
 208 433 l 1,266,-1
 199 433 l 1,267,-1
 195 451 l 1,268,-1
 185 451 l 1,269,-1
 184 461 l 1,270,-1
 175 461 l 1,271,-1
 173 470 l 1,272,-1
 164 470 l 1,273,-1
 161 488 l 1,274,-1
 152 488 l 1,275,-1
 150 497 l 1,276,-1
 141 497 l 1,277,-1
 138 516 l 1,278,-1
 128 516 l 1,279,-1
 126 525 l 1,280,-1
 117 525 l 1,281,-1
 116 534 l 1,282,-1
 107 534 l 1,283,-1
 103 553 l 1,284,-1
 94 553 l 1,285,-1
 93 562 l 1,286,-1
 84 562 l 1,287,-1
 82 571 l 1,288,-1
 72 571 l 1,289,-1
 69 589 l 1,290,-1
 60 589 l 1,291,-1
 58 599 l 1,292,-1
 49 599 l 1,293,-1
 46 617 l 1,294,-1
 37 617 l 1,295,-1
 36 626 l 1,296,-1
 26 626 l 1,297,-1
 24 636 l 1,298,-1
 15 636 l 1,299,-1
 12 654 l 1,300,-1
 3 654 l 1,301,-1
 1 663 l 1,302,-1
 -8 663 l 1,303,-1
 -11 682 l 1,304,-1
 -20 682 l 1,305,-1
 -22 691 l 1,306,-1
 -32 691 l 1,307,-1
 -33 700 l 1,308,-1
 152 700 l 1,309,-1
 153 691 l 1,310,-1
 162 691 l 1,311,-1
 164 682 l 1,312,-1
 173 682 l 1,313,-1
 176 663 l 1,314,-1
 185 663 l 1,315,-1
 187 654 l 1,316,-1
 196 654 l 1,317,-1
 199 636 l 1,318,-1
 209 636 l 1,319,-1
 211 626 l 1,320,-1
 220 626 l 1,321,-1
 223 608 l 1,322,-1
 232 608 l 1,323,-1
 235 589 l 1,324,-1
 244 589 l 1,325,-1
 246 580 l 1,326,-1
 256 580 l 1,327,-1
 259 562 l 1,328,-1
 268 562 l 1,329,-1
 269 553 l 1,330,-1
 278 553 l 1,331,-1
 282 534 l 1,332,-1
 291 534 l 1,333,-1
 292 525 l 1,334,-1
 301 525 l 1,335,-1
 305 507 l 1,336,-1
 315 507 l 1,337,-1
 316 497 l 1,338,-1
 325 497 l 1,339,-1
 329 479 l 1,340,-1
 338 479 l 1,341,-1
 334 497 l 1,342,-1
 343 497 l 1,343,-1
 342 507 l 1,344,-1
 351 507 l 1,345,-1
 349 516 l 1,346,-1
 359 516 l 1,347,-1
 356 534 l 1,348,-1
 365 534 l 1,349,-1
 363 543 l 1,350,-1
 372 543 l 1,351,-1
 369 562 l 1,352,-1
 378 562 l 1,353,-1
 376 571 l 1,354,-1
 385 571 l 1,355,-1
 384 580 l 1,356,-1
 394 580 l 1,357,-1
 390 599 l 1,358,-1
 399 599 l 1,359,-1
 398 608 l 1,360,-1
 407 608 l 1,361,-1
 404 626 l 1,362,-1
 413 626 l 1,363,-1
 411 636 l 1,364,-1
 421 636 l 1,365,-1
 419 645 l 1,366,-1
 428 645 l 1,367,-1
 425 663 l 1,368,-1
 434 663 l 1,369,-1
 433 672 l 1,370,-1
 442 672 l 1,371,-1
 440 682 l 1,372,-1
 449 682 l 1,373,-1
 446 700 l 1,0,-1
EndSplineSet
EndChar

StartChar: Y
Encoding: 89 89 59
Width: 665
GlyphClass: 1
Flags: W
LayerCount: 2
Fore
SplineSet
92 127 m 1,0,-1
 117 127 l 1,1,-1
 118 118 l 1,2,-1
 135 118 l 1,3,-1
 137 110 l 1,4,-1
 163 110 l 1,5,-1
 164 101 l 1,6,-1
 197 101 l 1,7,-1
 199 93 l 1,8,-1
 343 93 l 1,9,-1
 341 101 l 1,10,-1
 358 101 l 1,11,-1
 357 110 l 1,12,-1
 373 110 l 1,13,-1
 371 118 l 1,14,-1
 388 118 l 1,15,-1
 387 127 l 1,16,-1
 396 127 l 1,17,-1
 393 143 l 1,18,-1
 401 143 l 1,19,-1
 398 160 l 1,20,-1
 407 160 l 1,21,-1
 402 186 l 1,22,-1
 410 186 l 1,23,-1
 395 270 l 1,24,-1
 387 270 l 1,25,-1
 389 261 l 1,26,-1
 380 261 l 1,27,-1
 381 253 l 1,28,-1
 373 253 l 1,29,-1
 375 245 l 1,30,-1
 358 245 l 1,31,-1
 359 236 l 1,32,-1
 350 236 l 1,33,-1
 352 228 l 1,34,-1
 336 228 l 1,35,-1
 337 219 l 1,36,-1
 311 219 l 1,37,-1
 313 211 l 1,38,-1
 280 211 l 1,39,-1
 281 202 l 1,40,-1
 171 202 l 1,41,-1
 170 211 l 1,42,-1
 136 211 l 1,43,-1
 134 219 l 1,44,-1
 117 219 l 1,45,-1
 116 228 l 1,46,-1
 99 228 l 1,47,-1
 97 236 l 1,48,-1
 89 236 l 1,49,-1
 88 245 l 1,50,-1
 80 245 l 1,51,-1
 78 253 l 1,52,-1
 69 253 l 1,53,-1
 68 261 l 1,54,-1
 60 261 l 1,55,-1
 58 270 l 1,56,-1
 49 270 l 1,57,-1
 46 287 l 1,58,-1
 38 287 l 1,59,-1
 35 304 l 1,60,-1
 26 304 l 1,61,-1
 21 337 l 1,62,-1
 13 337 l 1,63,-1
 -51 700 l 1,64,-1
 76 700 l 1,65,-1
 137 354 l 1,66,-1
 145 354 l 1,67,-1
 148 337 l 1,68,-1
 156 337 l 1,69,-1
 157 329 l 1,70,-1
 166 329 l 1,71,-1
 168 320 l 1,72,-1
 176 320 l 1,73,-1
 177 312 l 1,74,-1
 194 312 l 1,75,-1
 195 304 l 1,76,-1
 305 304 l 1,77,-1
 304 312 l 1,78,-1
 329 312 l 1,79,-1
 328 320 l 1,80,-1
 345 320 l 1,81,-1
 343 329 l 1,82,-1
 351 329 l 1,83,-1
 350 337 l 1,84,-1
 367 337 l 1,85,-1
 365 346 l 1,86,-1
 374 346 l 1,87,-1
 373 354 l 1,88,-1
 381 354 l 1,89,-1
 323 683 l 1,90,-1
 315 683 l 1,91,-1
 313 692 l 1,92,-1
 321 692 l 1,93,-1
 320 700 l 1,94,-1
 438 700 l 1,95,-1
 533 160 l 1,96,-1
 525 160 l 1,97,-1
 529 135 l 1,98,-1
 520 135 l 1,99,-1
 525 110 l 1,100,-1
 517 110 l 1,101,-1
 518 101 l 1,102,-1
 509 101 l 1,103,-1
 512 84 l 1,104,-1
 504 84 l 1,105,-1
 506 76 l 1,106,-1
 498 76 l 1,107,-1
 499 67 l 1,108,-1
 490 67 l 1,109,-1
 492 59 l 1,110,-1
 484 59 l 1,111,-1
 485 51 l 1,112,-1
 476 51 l 1,113,-1
 478 42 l 1,114,-1
 461 42 l 1,115,-1
 462 34 l 1,116,-1
 454 34 l 1,117,-1
 456 25 l 1,118,-1
 439 25 l 1,119,-1
 440 17 l 1,120,-1
 415 17 l 1,121,-1
 417 8 l 1,122,-1
 375 8 l 1,123,-1
 376 0 l 1,124,-1
 207 0 l 1,125,-1
 206 8 l 1,126,-1
 164 8 l 1,127,-1
 162 17 l 1,128,-1
 136 17 l 1,129,-1
 135 25 l 1,130,-1
 119 25 l 1,131,-1
 102 118 l 1,132,-1
 93 118 l 1,133,-1
 92 127 l 1,0,-1
EndSplineSet
EndChar

StartChar: Z
Encoding: 90 90 60
Width: 767
GlyphClass: 1
Flags: W
LayerCount: 2
Fore
SplineSet
549 579 m 1,0,-1
 551 567 l 1,1,-1
 539 567 l 1,2,-1
 541 555 l 1,3,-1
 529 555 l 1,4,-1
 533 531 l 1,5,-1
 521 531 l 1,6,-1
 523 519 l 1,7,-1
 511 519 l 1,8,-1
 514 507 l 1,9,-1
 502 507 l 1,10,-1
 504 495 l 1,11,-1
 492 495 l 1,12,-1
 496 471 l 1,13,-1
 484 471 l 1,14,-1
 486 459 l 1,15,-1
 474 459 l 1,16,-1
 476 447 l 1,17,-1
 464 447 l 1,18,-1
 466 434 l 1,19,-1
 454 434 l 1,20,-1
 459 410 l 1,21,-1
 447 410 l 1,22,-1
 449 398 l 1,23,-1
 436 398 l 1,24,-1
 438 386 l 1,25,-1
 426 386 l 1,26,-1
 428 374 l 1,27,-1
 416 374 l 1,28,-1
 420 350 l 1,29,-1
 408 350 l 1,30,-1
 410 338 l 1,31,-1
 398 338 l 1,32,-1
 401 326 l 1,33,-1
 389 326 l 1,34,-1
 393 302 l 1,35,-1
 381 302 l 1,36,-1
 383 290 l 1,37,-1
 371 290 l 1,38,-1
 373 278 l 1,39,-1
 361 278 l 1,40,-1
 363 266 l 1,41,-1
 351 266 l 1,42,-1
 356 241 l 1,43,-1
 344 241 l 1,44,-1
 346 229 l 1,45,-1
 334 229 l 1,46,-1
 336 217 l 1,47,-1
 324 217 l 1,48,-1
 326 205 l 1,49,-1
 314 205 l 1,50,-1
 318 181 l 1,51,-1
 306 181 l 1,52,-1
 308 169 l 1,53,-1
 295 169 l 1,54,-1
 297 157 l 1,55,-1
 285 157 l 1,56,-1
 287 145 l 1,57,-1
 275 145 l 1,58,-1
 278 133 l 1,59,-1
 640 133 l 1,60,-1
 656 33 l 1,61,-1
 63 31 l 1,62,-1
 53 109 l 1,63,-1
 65 109 l 1,64,-1
 61 133 l 1,65,-1
 73 133 l 1,66,-1
 70 145 l 1,67,-1
 82 145 l 1,68,-1
 80 157 l 1,69,-1
 92 157 l 1,70,-1
 90 169 l 1,71,-1
 102 169 l 1,72,-1
 100 181 l 1,73,-1
 112 181 l 1,74,-1
 108 205 l 1,75,-1
 120 205 l 1,76,-1
 118 217 l 1,77,-1
 131 217 l 1,78,-1
 129 229 l 1,79,-1
 141 229 l 1,80,-1
 139 241 l 1,81,-1
 151 241 l 1,82,-1
 146 266 l 1,83,-1
 158 266 l 1,84,-1
 156 278 l 1,85,-1
 168 278 l 1,86,-1
 166 290 l 1,87,-1
 178 290 l 1,88,-1
 176 302 l 1,89,-1
 188 302 l 1,90,-1
 184 326 l 1,91,-1
 196 326 l 1,92,-1
 193 338 l 1,93,-1
 205 338 l 1,94,-1
 203 350 l 1,95,-1
 215 350 l 1,96,-1
 213 362 l 1,97,-1
 225 362 l 1,98,-1
 221 386 l 1,99,-1
 233 386 l 1,100,-1
 231 398 l 1,101,-1
 243 398 l 1,102,-1
 241 410 l 1,103,-1
 253 410 l 1,104,-1
 251 422 l 1,105,-1
 264 422 l 1,106,-1
 259 447 l 1,107,-1
 271 447 l 1,108,-1
 269 459 l 1,109,-1
 281 459 l 1,110,-1
 279 471 l 1,111,-1
 291 471 l 1,112,-1
 289 483 l 1,113,-1
 301 483 l 1,114,-1
 297 507 l 1,115,-1
 309 507 l 1,116,-1
 306 519 l 1,117,-1
 318 519 l 1,118,-1
 316 531 l 1,119,-1
 328 531 l 1,120,-1
 326 543 l 1,121,-1
 338 543 l 1,122,-1
 336 555 l 1,123,-1
 348 555 l 1,124,-1
 346 567 l 1,125,-1
 -28 567 l 1,126,-1
 -51 674 l 1,127,-1
 544 672 l 1,128,-1
 561 579 l 1,129,-1
 549 579 l 1,0,-1
EndSplineSet
EndChar

StartChar: backslash
Encoding: 92 92 61
Width: 538
GlyphClass: 2
Flags: W
LayerCount: 2
Fore
SplineSet
-110 785 m 1,0,-1
 -109 777 l 1,1,-1
 -9 777 l 1,2,-1
 -10 785 l 1,3,-1
 -2 785 l 1,4,-1
 -1 777 l 1,5,-1
 8 777 l 1,6,-1
 10 768 l 1,7,-1
 1 768 l 1,8,-1
 456 89 l 1,9,-1
 446 100 l 1,10,-1
 519 -10 l 1,11,-1
 398 -11 l 1,12,-1
 -118 785 l 1,13,-1
 -110 785 l 1,0,-1
EndSplineSet
EndChar

StartChar: grave
Encoding: 96 96 62
Width: 586
GlyphClass: 2
Flags: W
LayerCount: 2
Fore
SplineSet
71 739 m 1,0,-1
 73 727 l 1,1,-1
 98 727 l 1,2,-1
 100 715 l 1,3,-1
 112 715 l 1,4,-1
 114 703 l 1,5,-1
 126 703 l 1,6,-1
 128 690 l 1,7,-1
 140 690 l 1,8,-1
 153 618 l 1,9,-1
 151 618 l 1,10,-1
 155 595 l 1,11,-1
 153 595 l 1,12,-1
 159 583 l 1,13,-1
 153 583 l 1,14,-1
 155 571 l 1,15,-1
 159 571 l 1,16,-1
 164 559 l 1,17,-1
 168 556 l 1,18,-1
 168 547 l 1,19,-1
 166 547 l 1,20,21
 166 546 166 546 197 486 c 1,22,-1
 209 486 l 1,23,-1
 214 462 l 1,24,-1
 226 462 l 1,25,-1
 230 438 l 1,26,-1
 242 438 l 1,27,-1
 244 426 l 1,28,-1
 256 426 l 1,29,-1
 258 414 l 1,30,-1
 271 414 l 1,31,-1
 273 402 l 1,32,-1
 297 402 l 1,33,-1
 299 390 l 1,34,-1
 226 390 l 1,35,-1
 224 402 l 1,36,-1
 200 402 l 1,37,-1
 198 414 l 1,38,-1
 186 414 l 1,39,-1
 184 426 l 1,40,-1
 159 426 l 1,41,-1
 157 438 l 1,42,-1
 145 438 l 1,43,-1
 141 462 l 1,44,-1
 129 462 l 1,45,-1
 126 474 l 1,46,-1
 114 474 l 1,47,-1
 110 498 l 1,48,-1
 98 498 l 1,49,-1
 92 535 l 1,50,-1
 80 535 l 1,51,52
 80 536 80 536 18 680 c 1,53,-1
 30 680 l 1,54,-1
 26 704 l 1,55,-1
 38 704 l 1,56,-1
 36 716 l 1,57,-1
 48 716 l 1,58,-1
 46 728 l 1,59,-1
 48 727 l 1,60,-1
 46 739 l 1,61,-1
 71 739 l 1,0,-1
EndSplineSet
EndChar

StartChar: a
Encoding: 97 97 63
Width: 669
GlyphClass: 1
Flags: W
LayerCount: 2
Fore
SplineSet
141 510 m 1,0,-1
 300 510 l 1,1,-1
 301 502 l 1,2,-1
 334 502 l 1,3,-1
 336 493 l 1,4,-1
 361 493 l 1,5,-1
 362 485 l 1,6,-1
 371 485 l 1,7,-1
 373 477 l 1,8,-1
 389 477 l 1,9,-1
 390 468 l 1,10,-1
 399 468 l 1,11,-1
 401 460 l 1,12,-1
 417 460 l 1,13,-1
 418 451 l 1,14,-1
 427 451 l 1,15,-1
 430 435 l 1,16,-1
 438 435 l 1,17,-1
 440 426 l 1,18,-1
 448 426 l 1,19,-1
 451 410 l 1,20,-1
 460 410 l 1,21,-1
 463 393 l 1,22,-1
 471 393 l 1,23,-1
 477 360 l 1,24,-1
 486 360 l 1,25,-1
 536 75 l 1,26,-1
 544 75 l 1,27,-1
 553 25 l 1,28,-1
 561 25 l 1,29,-1
 564 8 l 1,30,-1
 447 8 l 1,31,-1
 445 17 l 1,32,-1
 437 17 l 1,33,-1
 433 42 l 1,34,-1
 425 42 l 1,35,-1
 423 50 l 1,36,-1
 414 50 l 1,37,-1
 416 42 l 1,38,-1
 399 42 l 1,39,-1
 400 33 l 1,40,-1
 384 33 l 1,41,-1
 386 25 l 1,42,-1
 361 25 l 1,43,-1
 362 17 l 1,44,-1
 337 17 l 1,45,-1
 339 8 l 1,46,-1
 297 8 l 1,47,-1
 298 0 l 1,48,-1
 214 0 l 1,49,-1
 213 8 l 1,50,-1
 171 8 l 1,51,-1
 169 17 l 1,52,-1
 153 17 l 1,53,-1
 152 25 l 1,54,-1
 135 25 l 1,55,-1
 133 33 l 1,56,-1
 116 33 l 1,57,-1
 115 42 l 1,58,-1
 107 42 l 1,59,-1
 105 50 l 1,60,-1
 96 50 l 1,61,-1
 95 59 l 1,62,-1
 87 59 l 1,63,-1
 85 67 l 1,64,-1
 77 67 l 1,65,-1
 74 84 l 1,66,-1
 65 84 l 1,67,-1
 62 100 l 1,68,-1
 54 100 l 1,69,-1
 38 192 l 1,70,-1
 46 192 l 1,71,-1
 43 209 l 1,72,-1
 52 209 l 1,73,-1
 49 226 l 1,74,-1
 57 226 l 1,75,-1
 56 234 l 1,76,-1
 64 234 l 1,77,-1
 62 242 l 1,78,-1
 71 242 l 1,79,-1
 70 251 l 1,80,-1
 78 251 l 1,81,-1
 76 259 l 1,82,-1
 93 259 l 1,83,-1
 92 268 l 1,84,-1
 100 268 l 1,85,-1
 98 276 l 1,86,-1
 123 276 l 1,87,-1
 122 284 l 1,88,-1
 147 284 l 1,89,-1
 145 293 l 1,90,-1
 179 293 l 1,91,-1
 178 301 l 1,92,-1
 261 301 l 1,93,-1
 260 309 l 1,94,-1
 369 309 l 1,95,-1
 363 343 l 1,96,-1
 355 343 l 1,97,-1
 350 368 l 1,98,-1
 341 368 l 1,99,-1
 338 385 l 1,100,-1
 330 385 l 1,101,-1
 329 393 l 1,102,-1
 312 393 l 1,103,-1
 310 401 l 1,104,-1
 302 401 l 1,105,-1
 301 410 l 1,106,-1
 276 410 l 1,107,-1
 274 418 l 1,108,-1
 157 418 l 1,109,-1
 159 410 l 1,110,-1
 117 410 l 1,111,-1
 118 401 l 1,112,-1
 85 401 l 1,113,-1
 87 393 l 1,114,-1
 70 393 l 1,115,-1
 71 385 l 1,116,-1
 46 385 l 1,117,-1
 30 477 l 1,118,-1
 38 477 l 1,119,-1
 36 485 l 1,120,-1
 61 485 l 1,121,-1
 60 493 l 1,122,-1
 102 493 l 1,123,-1
 100 502 l 1,124,-1
 142 502 l 1,125,-1
 141 510 l 1,0,-1
291 84 m 1,126,-1
 290 92 l 1,127,-1
 324 92 l 1,128,-1
 322 100 l 1,129,-1
 347 100 l 1,130,-1
 346 109 l 1,131,-1
 354 109 l 1,132,-1
 352 117 l 1,133,-1
 369 117 l 1,134,-1
 368 125 l 1,135,-1
 384 125 l 1,136,-1
 382 134 l 1,137,-1
 391 134 l 1,138,-1
 390 142 l 1,139,-1
 398 142 l 1,140,-1
 382 234 l 1,141,-1
 307 234 l 1,142,-1
 308 226 l 1,143,-1
 233 226 l 1,144,-1
 235 217 l 1,145,-1
 201 217 l 1,146,-1
 202 209 l 1,147,-1
 185 209 l 1,148,-1
 187 201 l 1,149,-1
 179 201 l 1,150,-1
 180 192 l 1,151,-1
 172 192 l 1,152,-1
 174 184 l 1,153,-1
 165 184 l 1,154,-1
 176 117 l 1,155,-1
 185 117 l 1,156,-1
 187 109 l 1,157,-1
 195 109 l 1,158,-1
 196 100 l 1,159,-1
 204 100 l 1,160,-1
 206 92 l 1,161,-1
 232 92 l 1,162,-1
 233 84 l 1,163,-1
 291 84 l 1,126,-1
EndSplineSet
EndChar

StartChar: b
Encoding: 98 98 64
Width: 709
GlyphClass: 1
Flags: W
LayerCount: 2
Fore
SplineSet
224 508 m 1,0,-1
 340 508 l 1,1,-1
 342 500 l 1,2,-1
 376 500 l 1,3,-1
 377 492 l 1,4,-1
 393 492 l 1,5,-1
 395 483 l 1,6,-1
 412 483 l 1,7,-1
 413 475 l 1,8,-1
 430 475 l 1,9,-1
 432 467 l 1,10,-1
 440 467 l 1,11,-1
 441 458 l 1,12,-1
 449 458 l 1,13,-1
 451 450 l 1,14,-1
 460 450 l 1,15,-1
 461 442 l 1,16,-1
 469 442 l 1,17,-1
 471 433 l 1,18,-1
 479 433 l 1,19,-1
 480 425 l 1,20,-1
 489 425 l 1,21,-1
 492 408 l 1,22,-1
 500 408 l 1,23,-1
 501 400 l 1,24,-1
 509 400 l 1,25,-1
 512 383 l 1,26,-1
 521 383 l 1,27,-1
 526 358 l 1,28,-1
 534 358 l 1,29,-1
 540 325 l 1,30,-1
 548 325 l 1,31,-1
 573 183 l 1,32,-1
 565 183 l 1,33,-1
 569 158 l 1,34,-1
 561 158 l 1,35,-1
 566 133 l 1,36,-1
 557 133 l 1,37,-1
 559 117 l 1,38,-1
 551 117 l 1,39,-1
 553 108 l 1,40,-1
 545 108 l 1,41,-1
 548 92 l 1,42,-1
 539 92 l 1,43,-1
 540 83 l 1,44,-1
 532 83 l 1,45,-1
 534 75 l 1,46,-1
 526 75 l 1,47,-1
 527 67 l 1,48,-1
 518 67 l 1,49,-1
 520 58 l 1,50,-1
 512 58 l 1,51,-1
 513 50 l 1,52,-1
 496 50 l 1,53,-1
 498 42 l 1,54,-1
 490 42 l 1,55,-1
 491 33 l 1,56,-1
 474 33 l 1,57,-1
 476 25 l 1,58,-1
 460 25 l 1,59,-1
 461 17 l 1,60,-1
 427 17 l 1,61,-1
 429 8 l 1,62,-1
 396 8 l 1,63,-1
 397 0 l 1,64,-1
 322 0 l 1,65,-1
 321 8 l 1,66,-1
 271 8 l 1,67,-1
 269 17 l 1,68,-1
 244 17 l 1,69,-1
 243 25 l 1,70,-1
 226 25 l 1,71,-1
 224 33 l 1,72,-1
 208 33 l 1,73,-1
 207 42 l 1,74,-1
 190 42 l 1,75,-1
 196 8 l 1,76,-1
 79 8 l 1,77,-1
 77 17 l 1,78,-1
 69 17 l 1,79,-1
 -51 700 l 1,80,-1
 74 700 l 1,81,-1
 116 458 l 1,82,-1
 124 458 l 1,83,-1
 123 467 l 1,84,-1
 132 467 l 1,85,-1
 130 475 l 1,86,-1
 146 475 l 1,87,-1
 145 483 l 1,88,-1
 162 483 l 1,89,-1
 160 492 l 1,90,-1
 185 492 l 1,91,-1
 184 500 l 1,92,-1
 226 500 l 1,93,-1
 224 508 l 1,0,-1
362 100 m 1,94,-1
 361 108 l 1,95,-1
 386 108 l 1,96,-1
 384 117 l 1,97,-1
 401 117 l 1,98,-1
 400 125 l 1,99,-1
 408 125 l 1,100,-1
 407 133 l 1,101,-1
 416 133 l 1,102,-1
 414 142 l 1,103,-1
 422 142 l 1,104,-1
 421 150 l 1,105,-1
 429 150 l 1,106,-1
 427 158 l 1,107,-1
 436 158 l 1,108,-1
 432 183 l 1,109,-1
 440 183 l 1,110,-1
 435 208 l 1,111,-1
 443 208 l 1,112,-1
 426 308 l 1,113,-1
 418 308 l 1,114,-1
 412 342 l 1,115,-1
 404 342 l 1,116,-1
 401 358 l 1,117,-1
 392 358 l 1,118,-1
 390 367 l 1,119,-1
 382 367 l 1,120,-1
 381 375 l 1,121,-1
 373 375 l 1,122,-1
 371 383 l 1,123,-1
 362 383 l 1,124,-1
 361 392 l 1,125,-1
 345 392 l 1,126,-1
 343 400 l 1,127,-1
 318 400 l 1,128,-1
 317 408 l 1,129,-1
 208 408 l 1,130,-1
 209 400 l 1,131,-1
 184 400 l 1,132,-1
 186 392 l 1,133,-1
 170 392 l 1,134,-1
 171 383 l 1,135,-1
 154 383 l 1,136,-1
 156 375 l 1,137,-1
 139 375 l 1,138,-1
 140 367 l 1,139,-1
 132 367 l 1,140,-1
 174 133 l 1,141,-1
 182 133 l 1,142,-1
 183 125 l 1,143,-1
 200 125 l 1,144,-1
 201 117 l 1,145,-1
 218 117 l 1,146,-1
 220 108 l 1,147,-1
 253 108 l 1,148,-1
 254 100 l 1,149,-1
 362 100 l 1,94,-1
EndSplineSet
EndChar

StartChar: c
Encoding: 99 99 65
Width: 616
GlyphClass: 1
Flags: W
LayerCount: 2
Fore
SplineSet
474 139 m 1,0,-1
 483 139 l 1,1,-1
 501 38 l 1,2,-1
 492 38 l 1,3,-1
 494 30 l 1,4,-1
 469 30 l 1,5,-1
 470 22 l 1,6,-1
 437 22 l 1,7,-1
 439 13 l 1,8,-1
 389 13 l 1,9,-1
 390 5 l 1,10,-1
 281 5 l 1,11,-1
 280 13 l 1,12,-1
 238 13 l 1,13,-1
 236 22 l 1,14,-1
 211 22 l 1,15,-1
 210 30 l 1,16,-1
 193 30 l 1,17,-1
 191 38 l 1,18,-1
 175 38 l 1,19,-1
 174 47 l 1,20,-1
 157 47 l 1,21,-1
 155 55 l 1,22,-1
 147 55 l 1,23,-1
 146 64 l 1,24,-1
 137 64 l 1,25,-1
 135 72 l 1,26,-1
 127 72 l 1,27,-1
 126 80 l 1,28,-1
 118 80 l 1,29,-1
 116 89 l 1,30,-1
 107 89 l 1,31,-1
 106 97 l 1,32,-1
 98 97 l 1,33,-1
 96 105 l 1,34,-1
 87 105 l 1,35,-1
 84 122 l 1,36,-1
 76 122 l 1,37,-1
 73 139 l 1,38,-1
 65 139 l 1,39,-1
 63 155 l 1,40,-1
 54 155 l 1,41,-1
 48 189 l 1,42,-1
 40 189 l 1,43,-1
 13 339 l 1,44,-1
 21 339 l 1,45,-1
 17 365 l 1,46,-1
 26 365 l 1,47,-1
 21 390 l 1,48,-1
 29 390 l 1,49,-1
 28 398 l 1,50,-1
 36 398 l 1,51,-1
 33 415 l 1,52,-1
 42 415 l 1,53,-1
 40 423 l 1,54,-1
 48 423 l 1,55,-1
 45 440 l 1,56,-1
 54 440 l 1,57,-1
 53 448 l 1,58,-1
 61 448 l 1,59,-1
 60 456 l 1,60,-1
 77 456 l 1,61,-1
 75 465 l 1,62,-1
 83 465 l 1,63,-1
 82 473 l 1,64,-1
 99 473 l 1,65,-1
 97 482 l 1,66,-1
 113 482 l 1,67,-1
 112 490 l 1,68,-1
 129 490 l 1,69,-1
 127 498 l 1,70,-1
 152 498 l 1,71,-1
 151 507 l 1,72,-1
 185 507 l 1,73,-1
 183 515 l 1,74,-1
 350 515 l 1,75,-1
 352 507 l 1,76,-1
 385 507 l 1,77,-1
 386 498 l 1,78,-1
 411 498 l 1,79,-1
 413 490 l 1,80,-1
 422 490 l 1,81,-1
 438 398 l 1,82,-1
 413 398 l 1,83,-1
 411 406 l 1,84,-1
 377 406 l 1,85,-1
 376 415 l 1,86,-1
 343 415 l 1,87,-1
 341 423 l 1,88,-1
 232 423 l 1,89,-1
 234 415 l 1,90,-1
 209 415 l 1,91,-1
 210 406 l 1,92,-1
 185 406 l 1,93,-1
 187 398 l 1,94,-1
 179 398 l 1,95,-1
 180 390 l 1,96,-1
 171 390 l 1,97,-1
 173 381 l 1,98,-1
 165 381 l 1,99,-1
 166 373 l 1,100,-1
 157 373 l 1,101,-1
 159 365 l 1,102,-1
 151 365 l 1,103,-1
 154 348 l 1,104,-1
 146 348 l 1,105,-1
 149 331 l 1,106,-1
 140 331 l 1,107,-1
 165 189 l 1,108,-1
 174 189 l 1,109,-1
 177 172 l 1,110,-1
 185 172 l 1,111,-1
 188 155 l 1,112,-1
 196 155 l 1,113,-1
 197 147 l 1,114,-1
 206 147 l 1,115,-1
 207 139 l 1,116,-1
 215 139 l 1,117,-1
 217 130 l 1,118,-1
 226 130 l 1,119,-1
 227 122 l 1,120,-1
 243 122 l 1,121,-1
 245 114 l 1,122,-1
 279 114 l 1,123,-1
 280 105 l 1,124,-1
 397 105 l 1,125,-1
 396 114 l 1,126,-1
 429 114 l 1,127,-1
 427 122 l 1,128,-1
 452 122 l 1,129,-1
 451 130 l 1,130,-1
 476 130 l 1,131,-1
 474 139 l 1,0,-1
EndSplineSet
EndChar

